<svg xmlns="http://www.w3.org/2000/svg" width="633.196" height="351.218" viewBox="0 0 633.196 351.218">
  <g id="route" transform="translate(0 0.005)">
    <circle id="Ellipse_37" data-name="Ellipse 37" cx="36.264" cy="36.264" r="36.264" transform="translate(129.756 37.492)" fill="#ffe582"/>
    <path id="Path_146" data-name="Path 146" d="M477.015,404.378h-177.9a3.627,3.627,0,0,1-.665-.053l84.139-145.741a5.891,5.891,0,0,1,10.255,0l56.468,97.8,2.705,4.68Z" transform="translate(-197.275 -218.869)" fill="#3f3d56"/>
    <path id="Path_147" data-name="Path 147" d="M367.3,240.492h-60.74l29.817-43.31,2.146-3.12,1.073-1.559,2.705,4.679Z" transform="translate(-87.557 -54.983)" opacity="0.2"/>
    <path id="Path_148" data-name="Path 148" d="M625.545,421.551H471.675l29.817-43.31,2.146-3.12,38.854-56.441c2.547-3.7,8.675-3.929,11.67-.7a7.012,7.012,0,0,1,.56.7Z" transform="translate(-246.75 -236.042)" fill="#3f3d56"/>
    <circle id="Ellipse_38" data-name="Ellipse 38" cx="10.928" cy="10.928" r="10.928" transform="translate(413.034 139.678)" fill="#ffd522"/>
    <path id="Path_149" data-name="Path 149" d="M594.043,243.077H591.8l1.02-34.561Z" transform="translate(-169.028 -59.557)" fill="#3f3d56"/>
    <path id="Path_150" data-name="Path 150" d="M593.391,216.356l2.4-3.325-2.436,4.148-.263-.461Z" transform="translate(-169.397 -60.846)" fill="#3f3d56"/>
    <path id="Path_151" data-name="Path 151" d="M592.18,221.055l-2.4-3.324,2.436,4.147.263-.461Z" transform="translate(-168.449 -62.189)" fill="#3f3d56"/>
    <circle id="Ellipse_39" data-name="Ellipse 39" cx="10.928" cy="10.928" r="10.928" transform="translate(513.274 139.678)" fill="#ffd522"/>
    <path id="Path_152" data-name="Path 152" d="M734.359,243.077h-2.238l1.021-34.561Z" transform="translate(-209.105 -59.557)" fill="#3f3d56"/>
    <path id="Path_153" data-name="Path 153" d="M733.707,216.356l2.4-3.325-2.436,4.148-.264-.461Z" transform="translate(-209.473 -60.846)" fill="#3f3d56"/>
    <path id="Path_154" data-name="Path 154" d="M732.5,221.055l-2.4-3.324,2.436,4.147.263-.461Z" transform="translate(-208.526 -62.189)" fill="#3f3d56"/>
    <circle id="Ellipse_40" data-name="Ellipse 40" cx="16.139" cy="16.139" r="16.139" transform="translate(439.478 118.768)" fill="#ffd522"/>
    <path id="Path_155" data-name="Path 155" d="M638.63,236.487h-3.306l1.507-51.043Z" transform="translate(-181.458 -52.967)" fill="#3f3d56"/>
    <path id="Path_156" data-name="Path 156" d="M637.668,197.022l3.548-4.909-3.6,6.125-.389-.681Z" transform="translate(-182.002 -54.872)" fill="#3f3d56"/>
    <path id="Path_157" data-name="Path 157" d="M635.879,203.963l-3.548-4.909,3.6,6.124.389-.68Z" transform="translate(-180.603 -56.854)" fill="#3f3d56"/>
    <circle id="Ellipse_41" data-name="Ellipse 41" cx="16.139" cy="16.139" r="16.139" transform="translate(478.836 118.768)" fill="#ffd522"/>
    <path id="Path_158" data-name="Path 158" d="M693.724,236.487h-3.305l1.507-51.043Z" transform="translate(-197.194 -52.967)" fill="#3f3d56"/>
    <path id="Path_159" data-name="Path 159" d="M692.761,197.022l3.549-4.909-3.6,6.125-.389-.681Z" transform="translate(-197.738 -54.872)" fill="#3f3d56"/>
    <path id="Path_160" data-name="Path 160" d="M690.973,203.963l-3.549-4.909,3.6,6.124.389-.68Z" transform="translate(-196.338 -56.854)" fill="#3f3d56"/>
    <circle id="Ellipse_42" data-name="Ellipse 42" cx="16.139" cy="16.139" r="16.139" transform="translate(376.751 118.768)" fill="#ffd522"/>
    <path id="Path_161" data-name="Path 161" d="M550.824,236.487h-3.305l1.507-51.043Z" transform="translate(-156.38 -52.967)" fill="#3f3d56"/>
    <path id="Path_162" data-name="Path 162" d="M549.862,197.022l3.548-4.909-3.6,6.125-.389-.681Z" transform="translate(-156.924 -54.872)" fill="#3f3d56"/>
    <path id="Path_163" data-name="Path 163" d="M548.074,203.963l-3.549-4.909,3.6,6.124.389-.68Z" transform="translate(-155.524 -56.854)" fill="#3f3d56"/>
    <path id="Path_164" data-name="Path 164" d="M743.3,627.438H216.605a50.531,50.531,0,1,1,0-101.063H742.131a19.435,19.435,0,0,0,0-38.87H199.114v-31.1H742.131a50.531,50.531,0,0,1,0,101.063H216.605a19.435,19.435,0,0,0,0,38.87H743.3Z" transform="translate(-159.466 -276.225)" fill="#e6e6e6"/>
    <rect id="Rectangle_5" data-name="Rectangle 5" width="24.1" height="1.555" transform="translate(59.083 194.954)" fill="#fff"/>
    <rect id="Rectangle_6" data-name="Rectangle 6" width="24.1" height="1.555" transform="translate(127.494 194.954)" fill="#fff"/>
    <rect id="Rectangle_7" data-name="Rectangle 7" width="24.1" height="1.555" transform="translate(195.906 194.954)" fill="#fff"/>
    <rect id="Rectangle_8" data-name="Rectangle 8" width="24.1" height="1.555" transform="translate(264.318 194.954)" fill="#fff"/>
    <rect id="Rectangle_9" data-name="Rectangle 9" width="24.1" height="1.555" transform="translate(332.729 194.954)" fill="#fff"/>
    <rect id="Rectangle_10" data-name="Rectangle 10" width="24.1" height="1.555" transform="translate(401.141 194.954)" fill="#fff"/>
    <rect id="Rectangle_11" data-name="Rectangle 11" width="24.1" height="1.555" transform="translate(469.553 194.954)" fill="#fff"/>
    <rect id="Rectangle_12" data-name="Rectangle 12" width="24.1" height="1.555" transform="translate(537.964 194.954)" fill="#fff"/>
    <rect id="Rectangle_13" data-name="Rectangle 13" width="24.1" height="1.555" transform="translate(59.083 264.92)" fill="#fff"/>
    <rect id="Rectangle_14" data-name="Rectangle 14" width="24.1" height="1.555" transform="translate(127.494 264.92)" fill="#fff"/>
    <rect id="Rectangle_15" data-name="Rectangle 15" width="24.1" height="1.555" transform="translate(195.906 264.92)" fill="#fff"/>
    <rect id="Rectangle_16" data-name="Rectangle 16" width="24.1" height="1.555" transform="translate(264.318 264.92)" fill="#fff"/>
    <rect id="Rectangle_17" data-name="Rectangle 17" width="24.1" height="1.555" transform="translate(332.729 264.92)" fill="#fff"/>
    <rect id="Rectangle_18" data-name="Rectangle 18" width="24.1" height="1.555" transform="translate(401.141 264.92)" fill="#fff"/>
    <rect id="Rectangle_19" data-name="Rectangle 19" width="24.1" height="1.555" transform="translate(469.553 264.92)" fill="#fff"/>
    <rect id="Rectangle_20" data-name="Rectangle 20" width="24.1" height="1.555" transform="translate(537.964 264.92)" fill="#fff"/>
    <rect id="Rectangle_21" data-name="Rectangle 21" width="24.1" height="1.555" transform="translate(59.083 334.887)" fill="#fff"/>
    <rect id="Rectangle_22" data-name="Rectangle 22" width="24.1" height="1.555" transform="translate(127.494 334.887)" fill="#fff"/>
    <rect id="Rectangle_23" data-name="Rectangle 23" width="24.1" height="1.555" transform="translate(195.906 334.887)" fill="#fff"/>
    <rect id="Rectangle_24" data-name="Rectangle 24" width="24.1" height="1.555" transform="translate(264.318 334.887)" fill="#fff"/>
    <rect id="Rectangle_25" data-name="Rectangle 25" width="24.1" height="1.555" transform="translate(332.729 334.887)" fill="#fff"/>
    <rect id="Rectangle_26" data-name="Rectangle 26" width="24.1" height="1.555" transform="translate(401.141 334.887)" fill="#fff"/>
    <rect id="Rectangle_27" data-name="Rectangle 27" width="24.1" height="1.555" transform="translate(469.553 334.887)" fill="#fff"/>
    <rect id="Rectangle_28" data-name="Rectangle 28" width="24.1" height="1.555" transform="translate(537.964 334.887)" fill="#fff"/>
    <path id="Path_165" data-name="Path 165" d="M730.283,297.25a20.714,20.714,0,0,0-4.319-4.075h9.018A15.084,15.084,0,0,0,730.283,297.25Z" transform="translate(-319.379 -229.603)" fill="none"/>
    <path id="Path_166" data-name="Path 166" d="M690.743,293.176H692.3c-.334.235-.669.468-.988.722C691.127,293.652,690.933,293.415,690.743,293.176Z" transform="translate(-309.319 -229.603)" fill="none"/>
    <path id="Path_167" data-name="Path 167" d="M745.806,290.559a14.883,14.883,0,0,1,7.236,1.87H738.589a14.817,14.817,0,0,1,7.217-1.87Z" transform="translate(-322.985 -228.856)" fill="#e6e6e6"/>
    <path id="Path_168" data-name="Path 168" d="M704.715,287.941a20.447,20.447,0,0,1,11.812,3.74H692.919A20.443,20.443,0,0,1,704.715,287.941Z" transform="translate(-309.941 -228.108)" fill="#e6e6e6"/>
    <path id="Path_169" data-name="Path 169" d="M487.019,240.347a38.331,38.331,0,0,1,75.206-8.082c.464-.017.928-.035,1.4-.035A38.338,38.338,0,0,1,600.4,259.754a27.09,27.09,0,0,1,32.146,8H512.976a25.927,25.927,0,0,1-25.984-26.845Q487,240.63,487.019,240.347Z" transform="translate(-251.12 -204.184)" fill="#e6e6e6"/>
    <path id="Path_170" data-name="Path 170" d="M775.708,336.426a20.712,20.712,0,0,1,4.318-4.074h-9.018A15.082,15.082,0,0,1,775.708,336.426Z" transform="translate(-332.244 -240.792)" fill="none"/>
    <path id="Path_171" data-name="Path 171" d="M818.232,332.352h-1.555c.334.235.669.468.988.722C817.848,332.828,818.042,332.591,818.232,332.352Z" transform="translate(-345.288 -240.793)" fill="none"/>
    <path id="Path_172" data-name="Path 172" d="M758.012,329.734a14.882,14.882,0,0,0-7.236,1.87h14.454A14.818,14.818,0,0,0,758.012,329.734Z" transform="translate(-326.466 -240.045)" fill="#e6e6e6"/>
    <path id="Path_173" data-name="Path 173" d="M795.444,327.117a20.447,20.447,0,0,0-11.812,3.74h23.607A20.443,20.443,0,0,0,795.444,327.117Z" transform="translate(-335.85 -239.297)" fill="#e6e6e6"/>
    <path id="Path_174" data-name="Path 174" d="M964.379,279.523a38.331,38.331,0,0,0-75.206-8.082c-.464-.017-.928-.035-1.4-.035A38.338,38.338,0,0,0,851,298.93a27.09,27.09,0,0,0-32.146,8H938.422a25.927,25.927,0,0,0,25.984-26.845Q964.393,279.806,964.379,279.523Z" transform="translate(-345.91 -215.374)" fill="#e6e6e6"/>
    <rect id="Rectangle_29" data-name="Rectangle 29" width="13.897" height="2.206" transform="matrix(-1, -0.001, 0.001, -1, 552.649, 329.492)" fill="#3f3d56"/>
    <path id="Path_175" data-name="Path 175" d="M770.332,641.423l2.867.663,108.967.058.98-2.283a23.044,23.044,0,0,0,1.694-12.46c-.469-3.153-1.645-6.286-4.316-7.647l-4.836-32.208-60.286-.108-23.324,18.813s-11-.2-16.98,7.244a17.467,17.467,0,0,0-3.654,9.62l-.236,3.871Z" transform="translate(-332.051 -313.649)" fill="#ffd522"/>
    <circle id="Ellipse_43" data-name="Ellipse 43" cx="13.456" cy="13.456" r="13.456" transform="translate(448.758 313.78)" fill="#3f3d56"/>
    <circle id="Ellipse_44" data-name="Ellipse 44" cx="7.082" cy="7.082" r="7.082" transform="translate(455.132 320.154)" fill="#ccc"/>
    <circle id="Ellipse_45" data-name="Ellipse 45" cx="13.456" cy="13.456" r="13.456" transform="translate(515.154 313.815)" fill="#3f3d56"/>
    <circle id="Ellipse_46" data-name="Ellipse 46" cx="7.082" cy="7.082" r="7.082" transform="translate(521.528 320.189)" fill="#ccc"/>
    <path id="Path_176" data-name="Path 176" d="M656.92,401.31l32.549.014h3.973l6.708.005v-.489l.005-5.9,0-6.624H695.7l-3.973,0-7.038-.005h-3.973l-8.125-.005Z" transform="translate(-187.626 -110.906)" fill="#fff"/>
    <path id="Path_177" data-name="Path 177" d="M724.849,401.341l17.2.009,0-3.375v-5.9l.005-3.738h-2.519l-3.973,0-10.714,0Z" transform="translate(-207.028 -110.914)" fill="#fff"/>
    <rect id="Rectangle_30" data-name="Rectangle 30" width="2.206" height="4.191" transform="matrix(-1, -0.001, 0.001, -1, 512.517, 304.324)" fill="#3f3d56"/>
    <rect id="Rectangle_31" data-name="Rectangle 31" width="2.206" height="4.191" transform="matrix(-0.001, 1, -1, -0.001, 478.116, 294.158)" fill="#3f3d56"/>
    <path id="Path_178" data-name="Path 178" d="M0,0H.243a4.61,4.61,0,0,1,4.61,4.61h0A4.61,4.61,0,0,1,.243,9.22H0Z" transform="matrix(-1, -0.001, 0.001, -1, 476.567, 295.129)" fill="#3f3d56"/>
    <path id="Path_179" data-name="Path 179" d="M771.559,637.4a7.126,7.126,0,0,0,3.889-13.491,17.466,17.466,0,0,0-3.654,9.62Z" transform="translate(-332.402 -324.066)" fill="#3f3d56"/>
    <path id="Path_180" data-name="Path 180" d="M705.639,388.316l8.427,12.527.005-5.9-4.458-6.624Z" transform="translate(-201.541 -110.91)" fill="#f2f2f2"/>
    <path id="Path_181" data-name="Path 181" d="M739.854,388.335l6.487,9.642v-5.9l-2.514-3.738Z" transform="translate(-211.313 -110.916)" fill="#f2f2f2"/>
    <path id="Path_182" data-name="Path 182" d="M690.225,388.309l8.757,13.017h3.973L694.2,388.309Z" transform="translate(-197.138 -110.908)" fill="#f2f2f2"/>
    <circle id="Ellipse_47" data-name="Ellipse 47" cx="35.761" cy="35.761" r="35.761" transform="translate(0 150.642)" fill="#3f3d56"/>
    <path id="Path_183" data-name="Path 183" d="M199.572,456.92l-17.9-17.9a3.11,3.11,0,1,1,4.4-4.4l13.2,13.2L241.4,399.792a3.11,3.11,0,1,1,4.676,4.1Z" transform="translate(-163.662 -259.752)" fill="#ffd522"/>
  </g>
</svg>
