<svg xmlns="http://www.w3.org/2000/svg" xmlns:xlink="http://www.w3.org/1999/xlink" width="467.485" height="330.943" viewBox="0 0 467.485 330.943">
  <defs>
    <linearGradient id="linear-gradient" x1="0.5" y1="1" x2="0.5" gradientUnits="objectBoundingBox">
      <stop offset="0" stop-color="gray" stop-opacity="0.251"/>
      <stop offset="0.54" stop-color="gray" stop-opacity="0.122"/>
      <stop offset="1" stop-color="gray" stop-opacity="0.102"/>
    </linearGradient>
    <linearGradient id="linear-gradient-2" x1="0.5" y1="1" x2="0.5" y2="0" xlink:href="#linear-gradient"/>
  </defs>
  <g id="Group_26" data-name="Group 26" transform="translate(0.005 0.006)">
    <ellipse id="Ellipse_92" data-name="Ellipse 92" cx="41.197" cy="6.617" rx="41.197" ry="6.617" transform="translate(114.407 317.517)" fill="#ffd522" opacity="0.1"/>
    <ellipse id="Ellipse_93" data-name="Ellipse 93" cx="51.408" cy="6.617" rx="51.408" ry="6.617" transform="translate(328.139 317.703)" fill="#ffd522" opacity="0.1"/>
    <path id="Path_493" data-name="Path 493" d="M59.879,396.83h42.91v58.485H63.021c-.106.6-.207,1.2-.317,1.81h40.085v47.167c-.072-.021-.135-.047-.2-.072-1.133-.448-2.258-.922-3.382-1.429l-.719-.326q-1.691-.8-3.382-1.691c-.393-.207-.786-.423-1.175-.643a70.362,70.362,0,0,1-16.861-13.174c-.144-.14-.279-.288-.423-.423-.685-.744-1.357-1.5-2.008-2.266l-.719-.846c-.769-.943-1.514-1.911-2.237-2.892-.106-.144-.207-.288-.317-.423a62.945,62.945,0,0,1-7.272-13.149c-.059-.14-.11-.292-.165-.423q-.871-2.241-1.543-4.524c-.194-.638-.381-1.268-.541-1.932-.059-.195-.11-.385-.156-.575-2.4-9.373-2.685-19.11-2.685-28.78v-3.382c0-3.911.047-7.847.114-11.779,0-1.019.042-2.034.063-3.057q.089-3.894.254-7.788c.025-.723.059-1.442.1-2.16a12.237,12.237,0,0,1,.063-1.243C59.693,399.811,59.778,398.318,59.879,396.83Z" transform="translate(-53.751 -253.844)" fill="#ffd522" opacity="0.1"/>
    <path id="Path_494" data-name="Path 494" d="M130.437,202.2H106.9a178.423,178.423,0,0,1,12.519-17.233c3.5-4.3,7.187-8.481,11.018-12.515Z" transform="translate(-81.399 -124.331)" fill="#ffd522" opacity="0.1"/>
    <path id="Path_495" data-name="Path 495" d="M104.174,247.09v61.5H61.4c0-.178.03-.359.042-.537.038-.486.076-.972.118-1.454.047-.567.1-1.137.152-1.691s.114-1.23.178-1.843.123-1.235.194-1.848.135-1.226.211-1.835.144-1.226.224-1.835c.063-.507.131-1.01.2-1.518.1-.715.2-1.433.309-2.144a1.977,1.977,0,0,1,.047-.317,146.246,146.246,0,0,1,3.15-15.441,114.189,114.189,0,0,1,5.306-15.643,117.437,117.437,0,0,1,7.982-15.373Z" transform="translate(-55.136 -167.413)" fill="#ffd522" opacity="0.1"/>
    <path id="Path_496" data-name="Path 496" d="M186.8,201.612V260.1h91.65v-58.49Zm0,60.3v50.228c.524.11,1.044.216,1.56.3.7.135,1.4.258,2.114.364.135.021.275.042.423.055.279.047.567.085.846.123.706.1,1.408.178,2.114.241.334.034.672.063,1.01.089l.816.063h0c.444.034.884.059,1.319.072.271,0,.541.025.82.034h3.015c.364,0,.727,0,1.087-.034h.025a5.7,5.7,0,0,0,.757-.034,1.77,1.77,0,0,0,.211,0,4.374,4.374,0,0,0,.626-.03h.148l1.416-.11c.465-.042.934-.1,1.408-.148l.964-.114a84.328,84.328,0,0,0,11.606-2.469c8.549-2.385,16.912-5.72,25.457-8.164,11.048-3.15,23.254-4.7,33.929-.846V261.907ZM278.45,136.5V58.631a117.821,117.821,0,0,0-29.778,3.492C225.465,67.953,204.642,80.6,186.8,96.75v39.743h4.6V138.3h-4.6v61.508h91.65V138.3H210.286V136.5Zm117.719-26.3a37.962,37.962,0,0,1-16.612-4.828C369.685,100,361.8,91.706,352.989,84.709a121.984,121.984,0,0,0-64.3-25.55V136.5H419.52l.326-.342Zm11.919-2.114,12.637,13.868v-17.5a50.14,50.14,0,0,0-12.62,3.619Zm12.637,216.527v-62.7H393.8c-.072-.266-.144-.537-.228-.808.08.271.148.541.224.808H288.7v45.345c1,.74,1.983,1.518,2.96,2.308h0c1.053.846,2.093,1.738,3.137,2.613l1.053.871c.5.423,1.01.846,1.522,1.243q1.522,1.235,3.074,2.435c.512.423,1.036.8,1.556,1.2a211.913,211.913,0,0,0,26.057,17.043q3.057,1.691,6.169,3.3c1.383.706,2.774,1.408,4.169,2.089q3.146,1.535,6.342,2.96h0A232.893,232.893,0,0,0,406.468,361.3q7.1,1.049,14.252,1.649V324.6h.423ZM288.7,138.3v61.5H420.742V138.3Zm0,63.31V260.1H420.742v-58.49ZM430.99,104.369v19.525l16.13-17.7q-8.016-1.294-16.13-1.848Zm0,97.264V260.1H559.415v-58.49ZM558.946,329.25l.452-67.343H430.99V363.619a230.318,230.318,0,0,0,24.818-.3h.144q5.919-.372,11.783-1.082h.089a217,217,0,0,0,60.545-16.155m55.809-134.843c-.482-1.137-.985-2.266-1.5-3.382-.956-2.114-1.966-4.169-3.006-6.224h-10.02V260.1h25.334c-.013-16.557-4.2-33.469-10.8-48.88Zm-14.523,50.685v57.923a82.977,82.977,0,0,0,17.508-23.613,81.176,81.176,0,0,0,7.8-34.318Zm0-77.338v15.221h9.082a164.893,164.893,0,0,0-9.069-15.242Zm-87.1-68.747c-.668-.254-1.336-.512-2.008-.761a183.331,183.331,0,0,0-21.694-6.52l-24.683,27.089h0l-.474.5.317.347h87.849a187.9,187.9,0,0,0-39.295-20.679Zm41.882,22.48h-91.65l-1.8,1.649v59.834H559.432V170.824A182.987,182.987,0,0,0,524.454,138.3Z" transform="translate(-127.517 -58.63)" fill="#ffd522" opacity="0.1"/>
    <path id="Path_497" data-name="Path 497" d="M104.174,320.46v30.479H61.4c0-.178.03-.359.042-.537.038-.486.076-.972.118-1.454.047-.567.1-1.137.152-1.691s.114-1.23.178-1.843.123-1.235.194-1.848.135-1.226.211-1.835.144-1.226.224-1.835c.063-.507.131-1.01.2-1.518.1-.715.2-1.433.309-2.144a1.977,1.977,0,0,1,.047-.317,146.244,146.244,0,0,1,3.15-15.441Z" transform="translate(-55.136 -209.763)" fill="#ffd522" opacity="0.1"/>
    <path id="Path_498" data-name="Path 498" d="M59.879,396.83h42.91v58.485H63.021c-.106.6-.207,1.2-.317,1.81h40.085v47.167c-.072-.021-.135-.047-.2-.072-1.133-.448-2.258-.922-3.382-1.429l-.719-.326q-1.691-.8-3.382-1.691c-.393-.207-.786-.423-1.175-.643a70.362,70.362,0,0,1-16.861-13.174c-.144-.14-.279-.288-.423-.423-.685-.744-1.357-1.5-2.008-2.266l-.719-.846c-.769-.943-1.514-1.911-2.237-2.892-.106-.144-.207-.288-.317-.423a62.945,62.945,0,0,1-7.272-13.149c-.059-.14-.11-.292-.165-.423q-.871-2.241-1.543-4.524c-.194-.638-.381-1.268-.541-1.932-.059-.195-.11-.385-.156-.575-2.4-9.373-2.685-19.11-2.685-28.78v-3.382c0-3.911.047-7.847.114-11.779,0-1.019.042-2.034.063-3.057q.089-3.894.254-7.788c.025-.723.059-1.442.1-2.16a12.237,12.237,0,0,1,.063-1.243C59.693,399.811,59.778,398.318,59.879,396.83Z" transform="translate(-53.751 -253.844)" fill="#ffd522" opacity="0.1"/>
    <path id="Path_499" data-name="Path 499" d="M171.824,184.922v52.7H139.56v-52.7h4.6V167.08h18.882v17.842Z" transform="translate(-80.277 -96.443)" fill="#ffd522" opacity="0.1"/>
    <rect id="Rectangle_93" data-name="Rectangle 93" width="32.259" height="58.485" transform="translate(59.287 142.982)" fill="#ffd522" opacity="0.1"/>
    <path id="Path_500" data-name="Path 500" d="M186.8,539.44h32.264v48.622a84.186,84.186,0,0,1-11.606,2.465l-.964.118c-.474.055-.943.1-1.408.148s-.947.08-1.416.11h-.148c-.2,0-.423.025-.622.03h-.216c-.254,0-.507.025-.761.034h0c-.359.021-.719.025-1.087.03h-2.993l-.816-.03c-.423,0-.879-.047-1.319-.076h0l-.812-.059-1.01-.093c-.71-.063-1.416-.144-2.114-.241l-.846-.118-.423-.059c-.706-.11-1.4-.228-2.114-.364-.52-.089-1.036-.2-1.56-.3Z" transform="translate(-127.517 -336.159)" fill="#ffd522" opacity="0.1"/>
    <rect id="Rectangle_94" data-name="Rectangle 94" width="26.602" height="58.917" transform="translate(266.622 82.256)" fill="#ffd522" opacity="0.1"/>
    <path id="Path_501" data-name="Path 501" d="M512.624,338.19v58.49H380.58V371.451h70.332v14.882h35.1V338.19Z" transform="translate(-219.395 -195.208)" fill="#ffd522" opacity="0.1"/>
    <path id="Path_502" data-name="Path 502" d="M560.282,601.047h-.423v38.369q-7.145-.6-14.248-1.645a232.9,232.9,0,0,1-61.754-18.02q-8.511-3.83-16.675-8.363a212.773,212.773,0,0,1-26.061-17.043q-3.112-2.385-6.143-4.879c-1.4-1.154-2.79-2.338-4.2-3.488-.977-.791-1.962-1.569-2.96-2.313V538.338H532.906c-.072-.271-.144-.541-.22-.807.08.266.156.537.228.807h26.945v62.684C560,601.026,560.143,601.038,560.282,601.047Z" transform="translate(-266.635 -335.056)" fill="#ffd522" opacity="0.1"/>
    <path id="Path_503" data-name="Path 503" d="M880.555,213.552H863.22v-5.386h7.771V192.12q1.01.368,2.013.757v15.288h7.551Z" transform="translate(-517.949 -135.685)" fill="#ffd522" opacity="0.1"/>
    <path id="Path_504" data-name="Path 504" d="M865.256,308.59h-85.1l.03.021-.038-.021H764.36V249.673h4.473v43.548h20.442V267.431h16.886V247.09H823.5v20.358h16.886v25.791h24.873Z" transform="translate(-460.887 -167.413)" fill="#ffd522" opacity="0.1"/>
    <path id="Path_505" data-name="Path 505" d="M764.36,396.82v58.49h100.9V396.82ZM892.645,524.158l.139-46.3H865.256V457.145H764.36V558.827a230.3,230.3,0,0,0,24.818-.3h.144q5.919-.372,11.783-1.082h.089a216.992,216.992,0,0,0,60.544-16.155" transform="translate(-460.887 -253.838)" fill="#ffd522" opacity="0.1"/>
    <path id="Path_506" data-name="Path 506" d="M1094.146,539.44h23.537a81.431,81.431,0,0,1-7.809,34.314,83.006,83.006,0,0,1-17.5,23.613V560.161h1.776Z" transform="translate(-650.216 -336.159)" fill="#ffd522" opacity="0.1"/>
    <path id="Path_507" data-name="Path 507" d="M1120.12,468.429h-23.55V419.55h12.743C1115.909,434.961,1120.1,451.873,1120.12,468.429Z" transform="translate(-652.64 -266.958)" fill="#ffd522" opacity="0.1"/>
    <rect id="Rectangle_95" data-name="Rectangle 95" width="14.252" height="18.472" transform="translate(278.976 98.635)" fill="#ffd522" opacity="0.1"/>
    <rect id="Rectangle_96" data-name="Rectangle 96" width="14.252" height="4.253" transform="translate(278.976 136.923)" fill="#ffd522" opacity="0.1"/>
    <rect id="Rectangle_97" data-name="Rectangle 97" width="14.252" height="12.409" transform="translate(278.976 142.982)" fill="#ffd522" opacity="0.1"/>
    <rect id="Rectangle_98" data-name="Rectangle 98" width="14.252" height="18.472" transform="translate(278.976 175.212)" fill="#ffd522" opacity="0.1"/>
    <rect id="Rectangle_99" data-name="Rectangle 99" width="14.252" height="18.472" transform="translate(278.976 213.5)" fill="#ffd522" opacity="0.1"/>
    <path id="Path_508" data-name="Path 508" d="M720.668,668.346a2.341,2.341,0,0,1,.423.025h-.423v4.291H706.42V654.17h14.248Z" transform="translate(-427.444 -402.381)" fill="#ffd522" opacity="0.1"/>
    <path id="Path_509" data-name="Path 509" d="M720.668,744.71v14.269q-7.145-.6-14.248-1.645V744.71Z" transform="translate(-427.444 -454.641)" fill="#ffd522" opacity="0.1"/>
    <rect id="Rectangle_100" data-name="Rectangle 100" width="61.081" height="1.357" transform="translate(161.185 200.114)" fill="#ffd522" opacity="0.1"/>
    <rect id="Rectangle_101" data-name="Rectangle 101" width="61.081" height="5.2" transform="translate(161.185 203.277)" fill="#ffd522" opacity="0.1"/>
    <rect id="Rectangle_102" data-name="Rectangle 102" width="61.081" height="8.363" transform="translate(161.185 225.524)" fill="#ffd522" opacity="0.1"/>
    <path id="Path_510" data-name="Path 510" d="M492.932,652.15v8.363H445.156q-3.112-2.376-6.147-4.879c-1.4-1.154-2.786-2.338-4.2-3.484Z" transform="translate(-270.67 -401.215)" fill="#ffd522" opacity="0.1"/>
    <path id="Path_511" data-name="Path 511" d="M542.635,712.223v8.354h-5.044q-8.5-3.835-16.671-8.367Z" transform="translate(-320.373 -435.882)" fill="#ffd522" opacity="0.1"/>
    <rect id="Rectangle_103" data-name="Rectangle 103" width="12.024" height="12.024" transform="translate(328.295 148.652)" fill="#ffd522" opacity="0.1"/>
    <rect id="Rectangle_104" data-name="Rectangle 104" width="12.024" height="12.024" transform="translate(67.946 92.627)" fill="#ffd522" opacity="0.1"/>
    <rect id="Rectangle_105" data-name="Rectangle 105" width="12.024" height="12.024" transform="translate(67.946 120.557)" fill="#ffd522" opacity="0.1"/>
    <rect id="Rectangle_106" data-name="Rectangle 106" width="12.024" height="12.024" transform="translate(67.946 148.487)" fill="#ffd522" opacity="0.1"/>
    <rect id="Rectangle_107" data-name="Rectangle 107" width="12.024" height="12.024" transform="translate(67.946 176.412)" fill="#ffd522" opacity="0.1"/>
    <rect id="Rectangle_108" data-name="Rectangle 108" width="12.024" height="12.024" transform="translate(67.946 204.342)" fill="#ffd522" opacity="0.1"/>
    <rect id="Rectangle_109" data-name="Rectangle 109" width="12.024" height="12.024" transform="translate(67.946 232.272)" fill="#ffd522" opacity="0.1"/>
    <rect id="Rectangle_110" data-name="Rectangle 110" width="12.024" height="12.024" transform="translate(374.198 148.652)" fill="#ffd522" opacity="0.1"/>
    <rect id="Rectangle_111" data-name="Rectangle 111" width="12.024" height="12.024" transform="translate(328.295 178.311)" fill="#ffd522" opacity="0.1"/>
    <rect id="Rectangle_112" data-name="Rectangle 112" width="12.024" height="12.024" transform="translate(374.198 178.311)" fill="#ffd522" opacity="0.1"/>
    <rect id="Rectangle_113" data-name="Rectangle 113" width="12.024" height="12.024" transform="translate(328.295 207.966)" fill="#ffd522" opacity="0.1"/>
    <rect id="Rectangle_114" data-name="Rectangle 114" width="12.024" height="12.024" transform="translate(374.198 207.966)" fill="#ffd522" opacity="0.1"/>
    <rect id="Rectangle_115" data-name="Rectangle 115" width="12.024" height="12.024" transform="translate(328.295 237.625)" fill="#ffd522" opacity="0.1"/>
    <rect id="Rectangle_116" data-name="Rectangle 116" width="12.024" height="12.024" transform="translate(374.198 237.625)" fill="#ffd522" opacity="0.1"/>
    <rect id="Rectangle_117" data-name="Rectangle 117" width="12.024" height="12.024" transform="translate(328.295 267.284)" fill="#ffd522" opacity="0.1"/>
    <rect id="Rectangle_118" data-name="Rectangle 118" width="12.024" height="12.024" transform="translate(374.198 267.284)" fill="#ffd522" opacity="0.1"/>
    <path id="Path_512" data-name="Path 512" d="M775.83,710.084V702.33h12.02v6.651Z" transform="translate(-447.535 -405.391)" fill="#ffd522" opacity="0.1"/>
    <path id="Path_513" data-name="Path 513" d="M65.24,357v6.879h41.151V357Zm4.1,6.448H65.984v-6.025h3.382Zm4.1,0H70.056v-6.025h3.382Zm4.088,0H74.144v-6.025h3.382Zm4.1,0H78.245v-6.025h3.382Zm4.093,0H82.334v-6.025h3.382Zm4.1,0H86.431v-6.025h3.382Zm4.1,0H90.527v-6.025H93.91Zm4.093,0H94.62v-6.025H98Zm4.093,0H98.713v-6.025H102.1Zm4.093,0h-3.382v-6.025h3.382Z" transform="translate(-57.353 -230.854)" fill="#ffd522" opacity="0.1"/>
    <path id="Path_514" data-name="Path 514" d="M65.24,404.34v6.879h41.151V404.34Zm4.1,6.443H65.984v-6.008h3.382Zm4.1,0H70.056v-6.008h3.382Zm4.088,0H74.144v-6.008h3.382Zm4.1,0H78.245v-6.008h3.382Zm4.093,0H82.334v-6.008h3.382Zm4.1,0H86.431v-6.008h3.382Zm4.1,0H90.527v-6.008H93.91Zm4.093,0H94.62v-6.008H98Zm4.093,0H98.713v-6.008H102.1Zm4.093,0h-3.382v-6.008h3.382Z" transform="translate(-57.353 -258.179)" fill="#ffd522" opacity="0.1"/>
    <path id="Path_515" data-name="Path 515" d="M65.24,451.7v6.892h41.151V451.7Zm4.1,6.443H65.984v-6.012h3.382Zm4.1,0H70.056v-6.012h3.382Zm4.088,0H74.144v-6.012h3.382Zm4.1,0H78.245v-6.012h3.382Zm4.093,0H82.334v-6.012h3.382Zm4.1,0H86.431v-6.012h3.382Zm4.1,0H90.527v-6.012H93.91Zm4.093,0H94.62v-6.012H98Zm4.093,0H98.713v-6.012H102.1Zm4.093,0h-3.382v-6.012h3.382Z" transform="translate(-57.353 -285.515)" fill="#ffd522" opacity="0.1"/>
    <path id="Path_516" data-name="Path 516" d="M65.24,499.06v6.87h41.151v-6.87Zm4.1,6.443H65.984v-6.016h3.382Zm4.1,0H70.056v-6.016h3.382Zm4.088,0H74.144v-6.016h3.382Zm4.1,0H78.245v-6.016h3.382Zm4.093,0H82.334v-6.016h3.382Zm4.1,0H86.431v-6.016h3.382Zm4.1,0H90.527v-6.016H93.91Zm4.093,0H94.62v-6.016H98Zm4.093,0H98.713v-6.016H102.1Zm4.093,0h-3.382v-6.016h3.382Z" transform="translate(-57.353 -312.851)" fill="#ffd522" opacity="0.1"/>
    <path id="Path_517" data-name="Path 517" d="M65.66,546.41c.165.647.351,1.294.545,1.932v-1.5h3.382v6.012h-1.81c.055.14.11.292.165.423h38.69V546.41Zm8.033,6.443H70.311v-6.012h3.382Zm4.088,0H74.4v-6.012h3.382Zm4.1,0H78.488v-6.012H81.87Zm4.093,0H82.589v-6.012h3.382Zm4.1,0H86.686v-6.012h3.382Zm4.1,0H90.783v-6.012h3.382Zm4.093,0H94.875v-6.012h3.382Zm4.093,0H98.968v-6.012h3.382Zm4.093,0h-3.382v-6.012h3.382Z" transform="translate(-57.595 -340.182)" fill="#ffd522" opacity="0.1"/>
    <path id="Path_518" data-name="Path 518" d="M88.26,593.77c.106.135.207.287.317.423h2.237v2.888c.241.287.478.575.723.846v-3.75h3.382v6.033h-1.37c.135.14.266.288.423.423h25.719V593.77ZM99,600.209H95.621V594.2H99Zm4.1,0H99.718V594.2H103.1Zm4.1,0h-3.382V594.2H107.2Zm4.093,0h-3.382V594.2h3.382Zm4.093,0H112V594.2h3.382Zm4.093,0h-3.382V594.2h3.382Z" transform="translate(-70.64 -367.518)" fill="#ffd522" opacity="0.1"/>
    <path id="Path_519" data-name="Path 519" d="M141.65,641.12c.385.22.778.423,1.175.643v-.211h3.382v1.9l.719.334v-2.237h3.382v3.657a1.057,1.057,0,0,0,.2.076V641.12Z" transform="translate(-101.457 -394.849)" fill="#ffd522" opacity="0.1"/>
    <path id="Path_520" data-name="Path 520" d="M453.089,306.1ZM427.045,430.886ZM399.872,367.4c.08.271.148.541.224.808h0C400.028,367.936,399.956,367.666,399.872,367.4Zm53.217-61.306ZM197.72,242.78v1.805h18.886V242.78ZM427.045,430.886ZM399.872,367.4c.08.271.148.541.224.808h0C400.028,367.936,399.956,367.666,399.872,367.4Zm53.217-61.306ZM427.045,430.874ZM399.872,367.4c.08.271.148.541.224.808h0C400.028,367.936,399.956,367.666,399.872,367.4Z" transform="translate(-133.82 -164.926)" fill="#ffd522" opacity="0.1"/>
    <path id="Path_521" data-name="Path 521" d="M385.769,311.234S384.1,311,384.1,308.574a38.02,38.02,0,0,0-1.192-6.959h0c0-.021-1.032-7.894-2.456-9.145s-3.256-8.6-3.256-8.6-.313-3.987-.951-4.845a41.163,41.163,0,0,1-2.774-5.957c-1.273-3-6.579-5.074-6.579-5.074s-9.593-5.564-12.312-7.378h0a4.168,4.168,0,0,1-.689-.52c-.474-.621-2.537-.634-2.537-.634a41.562,41.562,0,0,1-.49-4.342,3.3,3.3,0,0,0-.021-.457,14.629,14.629,0,0,0,6.431-7.957c.051-.161.093-.33.14-.49a1.374,1.374,0,0,0,.824-.744,15.5,15.5,0,0,1,.554-1.691,6.369,6.369,0,0,1,1.564-1.374c1.344-1.142,1.691-3.065,1.628-4.816-.042-1.416-.271-2.845-.182-4.253l.025-.355c.025-.211.055-.423.093-.626.207-1.049.66-2.038.913-3.078a3.959,3.959,0,0,0-.313-3.108c-.867-1.315-2.672-1.577-4.258-1.712-1.8-.152-3.4.047-4.553-1.446a16.232,16.232,0,0,0-1.81-2.186c-.237-.22-2.537-1.624-2.537-1.717a10.278,10.278,0,0,0-7.166-.55c-1.192.347-2.317.913-3.526,1.2-2.609.617-5.611-.051-7.826,1.442a9.2,9.2,0,0,0-2.668,3.5q-.846,1.619-1.717,3.234a20.952,20.952,0,0,0-2.279,5.534,8.778,8.778,0,0,0-.152,1.294h0v.689a2.274,2.274,0,0,0,.025.423c.025.131.021.173.034.262s.034.288.059.423.076.372.127.558c.021.08.051.156.076.233.042.144.093.283.148.423.03.072.059.148.093.22a3.957,3.957,0,0,0,.216.423c.034.059.059.114.093.169a5.606,5.606,0,0,0,.389.567c.9,1.129,2.237,1.848,3.222,2.9v.474a14.472,14.472,0,0,0,6.587,11.817c0,.161.021.326.03.486a24.194,24.194,0,0,1-.047,3.767,1.776,1.776,0,0,0-1.4-.626,2.026,2.026,0,0,0-.541.046l-.038-.03h0v.038c-.93.228-2.076,1.2-3.171,3.949,0,0-3.332,3.754-5.868,3.6s-8.959,3.907-8.959,3.907-6.266,4.067-7.61,8.211a57.863,57.863,0,0,1-2.7,6.883l-7.746,15.961h0L295.62,313.2a58.759,58.759,0,0,1,.634,6.49c-.156.858,3.251,8.6,3.251,8.6s11.259,19.783,15.859,20.8l.33-.233a2.7,2.7,0,0,0,.622.233l.947-.668a10.319,10.319,0,0,1-.072,2.232c-.634,1.953.237,14.7,1.344,17.2s.715,35.261.715,35.261L319.094,406a1.227,1.227,0,0,0,.038.254l-.038.685.114.059a8.143,8.143,0,0,1-.114,2.752,30.6,30.6,0,0,0-.558,4.854s-3.167,20.243-1.666,24.311,2.778,8.524,2.778,8.524,1.586,5.074.076,5.94-5.8,2.321-4.917,4.435c.8,1.953,3.852,7.188,4.3,7.953l-.038.4-.622,6.735a8.456,8.456,0,0,0,.715,2.571,4.429,4.429,0,0,0,4.52,2.824c.423-.03.913-.08,1.387-.144a59.927,59.927,0,0,0,10.274-2.672,4.188,4.188,0,0,1-.8-.664h0a2.321,2.321,0,0,1-.706-1.691c.068-1.226-2.228-7.069-2.8-8.507-.089-.207-.135-.326-.135-.326s5.234-5.471,4.363-10.32c0,0-5.792-3.382-3.885-5.238a59.066,59.066,0,0,0,5.315-7.188s.156-19.935,0-22.911a24.647,24.647,0,0,1,.292-6.185c.063-.309.139-.609.22-.9a55.2,55.2,0,0,0,7.965.6c.972,0,1.962,0,2.96-.059q0,.423.038.913c.22,4.938.63,13.6.964,16.815.474,4.613,3.091,17.043,3.091,17.043s-4.993,3.2.871,11.1c0,0,0,2.862-.389,3.277h0a35.843,35.843,0,0,0-1,4.126,7.275,7.275,0,0,0,.051,3.776c.951,1.869,6.659,1.717,6.659,1.717h0l.14-.025a8.181,8.181,0,0,1,6.042,1.822c2.169,1.742,10.4.977,14.857.423,1.746-.22,2.913-.423,2.913-.423a1.691,1.691,0,0,0,.059-.609h0c-.047-1.1-.9-3.5-6.722-5.64,0,0-5.471-3.678-5.395-6.883h-.748a5.966,5.966,0,0,1,.757,0s-2.144-7.822-1.268-8.456-1.746-9.3-1.746-9.3-1.5-14.544-1.581-15.563a8.88,8.88,0,0,1,.393-2.579l-.393-7.974s-.076-2.651,0-3.513a17.543,17.543,0,0,0-.182-2.237c-.038-.3-.076-.6-.118-.909,2.051-.52,3.382-1,3.382-1l-.237-27.757c1.742-3.382,2.063-10.8,2.055-16.066,0-3.382-.152-5.885-.152-5.885l2.38-3.885s.55-4.651-.321-5.67a.976.976,0,0,1,.106-1.332,4.424,4.424,0,0,1,.52-.355s-.025-.038-.055-.093a4.2,4.2,0,0,1,.529-.376s-.846-1.311-.089-1.865c.71.482,1.344.846,1.826,1.142-.034.309-.068.486-.068.486l.2-.423.748.423s3.729-7.429,3.649-8.524,2.537-5.708,2.537-5.708.317-2.423,1.746-3.437,1.108-8.367,1.108-8.367.4-3.831,1.349-5.395S385.769,311.234,385.769,311.234Zm-71.351-3.26.072,1.772-.727-1.171Z" transform="translate(-190.329 -150.714)" fill="url(#linear-gradient)"/>
    <path id="Path_522" data-name="Path 522" d="M473.363,498.542l-.913,3.89s-7.314-3.733-8.634-8.477,2.207-6.545,2.207-6.545l6.815,2.888Z" transform="translate(-287.242 -306.127)" fill="#fff"/>
    <path id="Path_523" data-name="Path 523" d="M473.363,498.542l-.913,3.89s-7.314-3.733-8.634-8.477,2.207-6.545,2.207-6.545l6.815,2.888Z" transform="translate(-287.242 -306.127)" opacity="0.1"/>
    <path id="Path_524" data-name="Path 524" d="M367.118,805.822s-6.765,2.486-11.416,2.8a4.343,4.343,0,0,1-4.435-2.807,8.5,8.5,0,0,1-.7-2.558l.6-6.7.321-3.568,9.881-2.566,1.4,4.279.131.326c.562,1.429,2.816,7.243,2.748,8.456a2.308,2.308,0,0,0,.693,1.67,4.021,4.021,0,0,0,.769.672Z" transform="translate(-222.046 -481.025)" fill="#fff"/>
    <path id="Path_525" data-name="Path 525" d="M457.542,801.809a1.69,1.69,0,0,1-.059.6s-14.468,2.414-17.428,0a7.839,7.839,0,0,0-6.088-1.784s-5.6.152-6.532-1.691a7.34,7.34,0,0,1-.046-3.755,35.772,35.772,0,0,1,.981-4.105l.224-.177,1.332-1.07,15.593-.461h.118c-.076,3.188,5.293,6.845,5.293,6.845C456.633,798.329,457.475,800.718,457.542,801.809Z" transform="translate(-266.263 -480.419)" fill="#fff"/>
    <path id="Path_526" data-name="Path 526" d="M457.546,809.745a1.725,1.725,0,0,1-.063.6s-14.464,2.414-17.423,0a7.839,7.839,0,0,0-6.084-1.784s-5.6.152-6.532-1.691a7.333,7.333,0,0,1-.051-3.754c2.156.216,5.56.753,6.9,2.034,2.021,1.949,5.446,3.894,7.547,4.046C443.479,809.305,453.318,809.618,457.546,809.745Z" transform="translate(-266.266 -488.356)" opacity="0.1"/>
    <path id="Path_527" data-name="Path 527" d="M368.076,825.961s-6.765,2.486-11.415,2.8a4.332,4.332,0,0,1-4.431-2.812c1.721.579,4.11,1.188,5.365.63,1.488-.66,6.765-1.087,9.724-1.268a4.165,4.165,0,0,0,.757.651Z" transform="translate(-223.004 -501.164)" opacity="0.1"/>
    <path id="Path_528" data-name="Path 528" d="M398.095,318.368c-5.581-2.169-12.76-9.335-10.967-12.684a7.492,7.492,0,0,0,.7-2.689,24.555,24.555,0,0,0,.051-3.805,52.1,52.1,0,0,0-.748-6.19s17.423.393,16.409,2.96a9.6,9.6,0,0,0-.262,3.522c.08,1.463.292,3.116.512,4.515.3,1.92.609,3.382.609,3.382s-1.065,1.492-1.691,1.573S406.1,321.458,398.095,318.368Z" transform="translate(-242.985 -193.913)" fill="#cf6f80"/>
    <path id="Path_529" data-name="Path 529" d="M363.7,795.024l-.131.144c-5.209-6.3-11.509,1.552-11.509,1.552l-.093-.165.321-3.568,9.881-2.566,1.4,4.279Z" transform="translate(-222.854 -481.025)" opacity="0.1"/>
    <path id="Path_530" data-name="Path 530" d="M447.282,789.791s-3.805-.08-5.835,1.712-11.838.389-11.415,0a1.391,1.391,0,0,0,.22-.643l1.332-1.07,15.593-.461C447.236,789.613,447.282,789.791,447.282,789.791Z" transform="translate(-267.904 -480.396)" opacity="0.1"/>
    <path id="Path_531" data-name="Path 531" d="M364.309,662.01a11.763,11.763,0,0,0-.643,2.169,24.822,24.822,0,0,0-.292,6.156c.156,2.96,0,22.793,0,22.793a60.67,60.67,0,0,1-5.209,7.154c-1.865,1.865,3.805,5.213,3.805,5.213.846,4.82-4.279,10.266-4.279,10.266-5.209-6.3-11.509,1.556-11.509,1.556s-3.425-5.919-4.279-8.033,3.344-3.577,4.82-4.435-.072-5.919-.072-5.919-1.247-4.435-2.727-8.481,1.632-24.188,1.632-24.188a31.211,31.211,0,0,1,.545-4.824,8.068,8.068,0,0,0,.114-2.74c-.025-.309-.055-.567-.076-.74s-.038-.254-.038-.254l.059-.1,2.114-3.94S365.324,659.528,364.309,662.01Z" transform="translate(-216.979 -402.087)" fill="#ffd522"/>
    <path id="Path_532" data-name="Path 532" d="M441.043,716.662s-3.805-.08-5.835,1.691-11.838.389-11.415,0,.389-3.268.389-3.268c-5.754-7.856-.846-11.043-.846-11.043s-2.571-12.367-3.036-16.954c-.326-3.2-.727-11.817-.943-16.734-.093-2.114-.148-3.568-.148-3.568l4.7-.947.6-.123,11.339-2.275s.313,2.114.524,3.843a17.959,17.959,0,0,1,.178,2.228c-.076.846,0,3.492,0,3.492l.385,7.936a9.014,9.014,0,0,0-.385,2.566c.076,1.01,1.552,15.479,1.552,15.479s2.566,8.633,1.691,9.255S441.043,716.662,441.043,716.662Z" transform="translate(-261.665 -407.732)" fill="#ffd522"/>
    <path id="Path_533" data-name="Path 533" d="M403.919,295.96a9.6,9.6,0,0,0-.262,3.522,14.481,14.481,0,0,1-15.4-.287A52.112,52.112,0,0,0,387.51,293S404.933,293.385,403.919,295.96Z" transform="translate(-243.368 -193.913)" opacity="0.1"/>
    <path id="Path_534" data-name="Path 534" d="M402.758,258.148a14.32,14.32,0,0,1-.71,4.486,14.468,14.468,0,0,1-28.217-4.139v-.347a14.467,14.467,0,1,1,28.934,0Z" transform="translate(-235.472 -165.445)" fill="#cf6f80"/>
    <path id="Path_535" data-name="Path 535" d="M398.095,332.013c-5.581-2.169-12.76-9.335-10.967-12.684a7.492,7.492,0,0,0,.7-2.689l7.64,6.279,4.727,3.877,3.594-9.149c.3,1.919.609,3.382.609,3.382s-1.065,1.492-1.691,1.573S406.1,335.1,398.095,332.013Z" transform="translate(-242.985 -207.558)" opacity="0.1"/>
    <path id="Path_536" data-name="Path 536" d="M363.456,300.213l-6.38,107.179-8.321.545L327.21,345.791l3.535-73.782.744-15.589,9.581,7.868,4.731,3.877,3.7-9.416,6.879,6Z" transform="translate(-188.59 -148.01)" fill="#ffd522"/>
    <path id="Path_537" data-name="Path 537" d="M370.2,662.056a11.763,11.763,0,0,0-.643,2.169,61.3,61.3,0,0,1-17.445-5.45l-.114-.059.038-.681.021-.355,2.114-3.94S371.216,659.575,370.2,662.056Z" transform="translate(-222.871 -402.133)" opacity="0.1"/>
    <path id="Path_538" data-name="Path 538" d="M423.974,673.143a42.8,42.8,0,0,1-4.676.533c-.093-2.114-.148-3.568-.148-3.568l4.7-.947Z" transform="translate(-261.631 -411.034)" opacity="0.1"/>
    <path id="Path_539" data-name="Path 539" d="M443.564,667.333a32.817,32.817,0,0,1-11.8,1.112l-.059-2.681,11.339-2.275S443.352,665.583,443.564,667.333Z" transform="translate(-268.875 -407.761)" opacity="0.1"/>
    <path id="Path_540" data-name="Path 540" d="M356.82,467.788c-17.335,2.96-33.211-5.526-33.211-5.526l.152-2.875s.393-32.593-.7-35.092-1.941-15.17-1.323-17.115-2.254-31.109-2.254-31.109l-.465-11.838L302,357.337l7.61-15.863a57.251,57.251,0,0,0,2.647-6.849c1.323-4.118,7.467-8.164,7.467-8.164s6.3-4.042,8.79-3.89,5.754-3.577,5.754-3.577c2.41-6.143,4.592-3.361,4.592-3.361a5.488,5.488,0,0,1-.118.909c-.846,6.744,13.673,28.053,13.88,28.429h0L354,378.65l1.4,42.622Z" transform="translate(-194.011 -206.614)" opacity="0.1"/>
    <path id="Path_541" data-name="Path 541" d="M355.7,467.754c-17.335,2.96-33.215-5.526-33.215-5.526l.156-2.875s.393-32.593-.7-35.092-1.941-15.17-1.319-17.115-2.253-31.109-2.253-31.109L317.9,364.2l-17.03-6.921,7.61-15.863a58.134,58.134,0,0,0,2.647-6.849c1.319-4.118,7.467-8.164,7.467-8.164s6.3-4.042,8.786-3.89,5.754-3.577,5.754-3.577c2.414-6.143,5.074-3.361,5.074-3.361,0,.292-.254.423-.118.909,1.86,6.541,13.208,28.053,13.415,28.429h0l1.4,33.68,1.4,42.622Z" transform="translate(-193.359 -206.579)" fill="#fff"/>
    <path id="Path_542" data-name="Path 542" d="M397.709,347.207c-1.865-.778-11.741-12.054-11.741-12.054v-2.566c-.359-.846-2.495-.33-4.228.262l.744-15.589.846.7C385.182,324.5,397.493,346.83,397.709,347.207Z" transform="translate(-240.037 -207.916)" opacity="0.1"/>
    <path id="Path_543" data-name="Path 543" d="M398.813,345c-1.869-.778-11.745-12.054-11.745-12.054v-2.566c-.359-.846-2.495-.33-4.228.262l.748-15.589.846.7C386.29,322.288,398.606,344.625,398.813,345Z" transform="translate(-240.672 -206.64)" fill="#fff"/>
    <path id="Path_544" data-name="Path 544" d="M351.811,517.193c.233,0,12.054-1.243,12.054-1.243s7.158,14.075,6.689,17.5-1.319,6.456-4.2,5.919-15.5.423-15.5.423Z" transform="translate(-222.213 -322.6)" opacity="0.1"/>
    <path id="Path_545" data-name="Path 545" d="M350.7,514.983c.233,0,12.054-1.243,12.054-1.243s7.154,14.079,6.689,17.5-1.323,6.456-4.2,5.919-15.5.423-15.5.423Z" transform="translate(-221.573 -321.325)" fill="#fff"/>
    <path id="Path_546" data-name="Path 546" d="M364.245,501.05s10.849,5.83,11.081,7.61-5.522-.778-6.765-1.087a15.477,15.477,0,0,0-2.49-.389l-8.291.224Z" transform="translate(-226.208 -314)" fill="#cf6f80"/>
    <circle id="Ellipse_94" data-name="Ellipse 94" cx="1.142" cy="1.142" r="1.142" transform="translate(153.503 137.735)" opacity="0.1"/>
    <circle id="Ellipse_95" data-name="Ellipse 95" cx="1.142" cy="1.142" r="1.142" transform="translate(153.503 137.27)" fill="#3f3d56"/>
    <circle id="Ellipse_96" data-name="Ellipse 96" cx="1.142" cy="1.142" r="1.142" transform="translate(155.604 187.151)" opacity="0.1"/>
    <circle id="Ellipse_97" data-name="Ellipse 97" cx="1.142" cy="1.142" r="1.142" transform="translate(155.604 186.682)" fill="#3f3d56"/>
    <circle id="Ellipse_98" data-name="Ellipse 98" cx="1.142" cy="1.142" r="1.142" transform="translate(154.64 162.443)" opacity="0.1"/>
    <circle id="Ellipse_99" data-name="Ellipse 99" cx="1.142" cy="1.142" r="1.142" transform="translate(154.64 161.978)" fill="#3f3d56"/>
    <path id="Path_547" data-name="Path 547" d="M448.2,401.786s.778,1.167,0,1.712.076,1.865.076,1.865-1.941,1.137-1.087,2.16.313,5.644.313,5.644l-2.334,3.864s.14,2.49.148,5.856c0,5.251-.309,12.633-2.017,16l.237,27.613s-8.173,2.985-15.014,2.076l-1.015-44.309s1.48-25.127,2.025-29.947a50.182,50.182,0,0,0,.389-7.547,84.315,84.315,0,0,0-1.015-11.043s-.846-15.166-.93-19.364c-.038-2.008.068-7.868.186-13.441.131-6.092.279-11.838.279-11.838l-1.543-12.21s1.543-.156,2.008.465a4.448,4.448,0,0,0,.676.52h0c2.664,1.8,12.075,7.34,12.075,7.34s5.209,2.072,6.456,5.04a43.918,43.918,0,0,0,2.719,5.919c.6.846.934,4.82.934,4.82s1.793,7.314,3.192,8.553,2.423,9.12,2.423,9.12l-12.367,9.724s-1.087,16.176-1.319,16.8S448.2,401.786,448.2,401.786Z" transform="translate(-266.104 -208.838)" fill="#fff"/>
    <path id="Path_548" data-name="Path 548" d="M448.629,401.6s.774,1.167,0,1.712.072,1.865.072,1.865-1.928,1.15-1.082,2.173.313,5.644.313,5.644l-2.334,3.864s.139,2.49.152,5.856c0,5.251-.309,12.633-2.017,16l.233,27.613s-8.185,2.985-15.018,2.076l-1.01-44.309s1.48-25.127,2.025-29.947a49.71,49.71,0,0,0,.385-7.547,84.839,84.839,0,0,0-1.01-11.043s-.846-15.166-.934-19.364c-.038-2.008.072-7.868.186-13.441.131-6.093.279-11.838.279-11.838L426.83,318.54s2.038,0,2.507.63a4.015,4.015,0,0,0,.676.52h0c2.664,1.8,12.079,7.34,12.079,7.34s5.2,2.072,6.452,5.04a43.222,43.222,0,0,0,2.723,5.919c.609.846.93,4.82.93,4.82s1.793,7.314,3.192,8.553,2.41,9.1,2.41,9.1l-12.367,9.724s-1.087,16.176-1.323,16.8S448.629,401.6,448.629,401.6Z" transform="translate(-266.064 -208.655)" fill="#fff"/>
    <path id="Path_549" data-name="Path 549" d="M434.46,335.769l1.116,3.256-5.877,5.919c.131-6.088.279-11.838.279-11.838L427.94,320.73s2.038,0,2.507.63a3.855,3.855,0,0,0,.676.516h0l5,14.417Z" transform="translate(-266.704 -209.919)" opacity="0.1"/>
    <path id="Path_550" data-name="Path 550" d="M433.35,333.559l1.12,3.256-5.877,5.919c.131-6.092.279-11.838.279-11.838L426.83,318.52s2.042,0,2.507.63a4.226,4.226,0,0,0,.676.52h0l5,14.413Z" transform="translate(-266.064 -208.643)" fill="#fff"/>
    <path id="Path_551" data-name="Path 551" d="M402.758,258.148a14.32,14.32,0,0,1-.71,4.486.6.6,0,0,1-.457-.114c-.11-3.805-1.983-7.378-4.287-10.418a10.947,10.947,0,0,0-2.325-2.41,4.549,4.549,0,0,0-3.154-.892c-1.268.173-2.389,1.036-3.67,1.146-1.691.14-3.2-1.032-4.883-1.091a4.8,4.8,0,0,0-3.59,1.666,9.846,9.846,0,0,0-1.924,3.568,20.877,20.877,0,0,0-1.074,6.156c-.021,1.184-.135,2.668-1.235,3.1a6.317,6.317,0,0,0-1.594-4.824l-.025-.025v-.347a14.467,14.467,0,1,1,28.934,0Z" transform="translate(-235.472 -165.445)" opacity="0.1"/>
    <path id="Path_552" data-name="Path 552" d="M388.252,222.277a9.961,9.961,0,0,0-7.027-.55c-1.171.347-2.275.909-3.463,1.192-2.537.613-5.5-.051-7.674,1.433a9.178,9.178,0,0,0-2.613,3.48l-1.691,3.222a20.906,20.906,0,0,0-2.237,5.5,7.018,7.018,0,0,0,1.078,5.674c.9,1.137,2.22,1.852,3.192,2.922a6.342,6.342,0,0,1,1.59,4.82c1.1-.423,1.209-1.911,1.235-3.095a20.877,20.877,0,0,1,1.074-6.156,9.814,9.814,0,0,1,1.924-3.568,4.807,4.807,0,0,1,3.59-1.666c1.691.059,3.209,1.226,4.883,1.087,1.268-.106,2.393-.972,3.67-1.142a4.532,4.532,0,0,1,3.154.892,10.832,10.832,0,0,1,2.321,2.41c2.308,3.04,4.181,6.6,4.291,10.418.478.351,1.167-.106,1.4-.647a15.452,15.452,0,0,1,.545-1.691,6.237,6.237,0,0,1,1.531-1.361c1.319-1.137,1.649-3.053,1.6-4.79a23.866,23.866,0,0,1-.059-5.209c.2-1.049.647-2.029.892-3.065a4.008,4.008,0,0,0-.3-3.091c-.846-1.311-2.626-1.569-4.177-1.691-1.763-.152-3.34.042-4.465-1.442a16.2,16.2,0,0,0-1.776-2.173C390.514,223.765,388.252,222.37,388.252,222.277Z" transform="translate(-229.439 -152.544)" fill="#512e4e"/>
    <path id="Path_553" data-name="Path 553" d="M305.578,423.3l-4.418-8.168-1.4,12.6a58.418,58.418,0,0,1,.622,6.456c-.156.858,3.188,8.553,3.188,8.553s11.048,19.677,15.559,20.692l15.242-10.891-4.042-5.133s-1.4-.545-1.75,0c0,0-7.5-12.912-8.283-13.847a4.664,4.664,0,0,1-.626-2.8s-1.167-1.243-.778-2.41-2.254-5.213-2.254-5.213l2.41-2.254Z" transform="translate(-192.718 -264.407)" opacity="0.1"/>
    <path id="Path_554" data-name="Path 554" d="M300.116,412.93l-1.167.93-1.4,12.6a58.427,58.427,0,0,1,.622,6.456c-.156.858,3.192,8.553,3.192,8.553s11.043,19.677,15.555,20.692l15.246-10.891-4.046-5.133s-1.4-.545-1.75,0c0,0-7.5-12.912-8.283-13.847a4.649,4.649,0,0,1-.622-2.8s-1.167-1.243-.778-2.41-2.258-5.213-2.258-5.213l2.41-2.253Z" transform="translate(-191.443 -263.137)" fill="#fff"/>
    <path id="Path_555" data-name="Path 555" d="M462.848,519.43c.846,1.027.313,5.64.313,5.64l-2.334,3.864s.139,2.494.148,5.856l-3.924,1.226a2.33,2.33,0,0,1-3.023-2.3l.676-21.82,9.154,3.5c-.778.541.076,1.869.076,1.869S461.994,518.4,462.848,519.43Z" transform="translate(-281.762 -320.263)" opacity="0.1"/>
    <path id="Path_556" data-name="Path 556" d="M463.952,518.326c.846,1.027.313,5.644.313,5.644l-2.334,3.864s.14,2.49.152,5.856l-4,1.247a2.283,2.283,0,0,1-2.96-2.249l.681-21.888,9.158,3.5c-.782.541.072,1.865.072,1.865S463.107,517.3,463.952,518.326Z" transform="translate(-282.397 -319.628)" fill="#fff"/>
    <path id="Path_557" data-name="Path 557" d="M473.173,499.352s-.622,3.97-2.177,4.2-2.254,6.422-3.805,6.2-.524-5.754-.469-6.828-1.691-5.522-.385-6.532,5.441,0,5.441,0Z" transform="translate(-288.586 -311.055)" fill="#cf6f80"/>
    <path id="Path_558" data-name="Path 558" d="M474.3,423.609l2.934-5.919a38.43,38.43,0,0,1,1.167,6.921c0,2.41,1.632,2.647,1.632,2.647s1.788,2.114.846,3.653-1.323,5.37-1.323,5.37.309,7.31-1.091,8.321-1.691,3.425-1.691,3.425-2.571,4.587-2.49,5.678-3.577,8.477-3.577,8.477,1.788-9.179-8.633-13.145c0,0-.08-3.116.7-3.97s1.991-1.243,1.23-5.56-.22-9.475-.22-10.511,2.334-7.5,2.334-7.5Z" transform="translate(-286.407 -265.884)" opacity="0.1"/>
    <path id="Path_559" data-name="Path 559" d="M476.779,415.69l2.562.846a38.3,38.3,0,0,1,1.171,6.921c0,2.41,1.632,2.647,1.632,2.647s1.788,2.114.846,3.653-1.319,5.37-1.319,5.37.309,7.31-1.091,8.321-1.712,3.425-1.712,3.425-2.566,4.587-2.486,5.678-3.581,8.477-3.581,8.477,1.793-9.179-8.634-13.145c0,0-.076-3.116.7-3.97s1.991-1.243,1.23-5.56-.22-9.475-.22-10.511,2.334-7.5,2.334-7.5Z" transform="translate(-287.614 -264.73)" fill="#fff"/>
    <path id="Path_560" data-name="Path 560" d="M360.15,776.675s4.084-2.566,6.765-.7S360.15,776.675,360.15,776.675Z" transform="translate(-227.576 -472.295)" opacity="0.1"/>
    <path id="Path_561" data-name="Path 561" d="M435.21,759.759a8.268,8.268,0,0,1,6.651,2.8C444.9,765.83,435.21,759.759,435.21,759.759Z" transform="translate(-270.901 -463.314)" opacity="0.1"/>
    <g id="Group_25" data-name="Group 25" transform="translate(133.942 78.074)" opacity="0.1">
      <path id="Path_562" data-name="Path 562" d="M407.293,262.479a6.271,6.271,0,0,0-1.535,1.366,15.473,15.473,0,0,0-.541,1.691c-.237.55-.926,1-1.4.651-.11-3.805-1.987-7.378-4.291-10.422a10.832,10.832,0,0,0-2.321-2.41,4.545,4.545,0,0,0-3.158-.892c-1.268.173-2.385,1.036-3.666,1.142-1.691.144-3.209-1.027-4.888-1.087a4.786,4.786,0,0,0-3.585,1.67,9.792,9.792,0,0,0-1.924,3.564,20.9,20.9,0,0,0-1.074,6.156c-.025,1.18-.135,2.651-1.226,3.091a5.793,5.793,0,0,1,0,.939c1.1-.423,1.209-1.911,1.235-3.095a20.877,20.877,0,0,1,1.074-6.156,9.813,9.813,0,0,1,1.924-3.568,4.8,4.8,0,0,1,3.585-1.666c1.691.059,3.213,1.226,4.888,1.087,1.268-.106,2.393-.972,3.666-1.142a4.545,4.545,0,0,1,3.158.892,10.833,10.833,0,0,1,2.321,2.41c2.3,3.04,4.181,6.6,4.291,10.418.478.351,1.167-.106,1.4-.647a16.4,16.4,0,0,1,.541-1.691,6.256,6.256,0,0,1,1.535-1.361c1.319-1.137,1.649-3.053,1.6-4.79v-.161A5.551,5.551,0,0,1,407.293,262.479Z" transform="translate(-371.636 -248.577)"/>
      <path id="Path_563" data-name="Path 563" d="M367.83,266.76c-.972-1.07-2.3-1.784-3.192-2.917a6.19,6.19,0,0,1-1.23-3.463,6.511,6.511,0,0,0,1.23,4.393c.892,1.137,2.22,1.852,3.192,2.922a6.342,6.342,0,0,1,1.594,3.771,6.342,6.342,0,0,0-1.594-4.706Z" transform="translate(-363.385 -253.159)"/>
      <path id="Path_564" data-name="Path 564" d="M452.053,244.137c-.249,1.036-.693,2.021-.9,3.065a9.767,9.767,0,0,0-.131,2.114,8.215,8.215,0,0,1,.131-1.2c.2-1.049.647-2.029.9-3.065a5.2,5.2,0,0,0,.14-1.75A5.873,5.873,0,0,1,452.053,244.137Z" transform="translate(-413.965 -243.3)"/>
    </g>
    <ellipse id="Ellipse_100" data-name="Ellipse 100" cx="41.197" cy="6.617" rx="41.197" ry="6.617" transform="translate(15.198 308.338)" fill="#ffd522" opacity="0.1"/>
    <rect id="Rectangle_119" data-name="Rectangle 119" width="2.651" height="59.686" transform="translate(55.071 188.2)" fill="#535461"/>
    <path id="Path_565" data-name="Path 565" d="M173.41,638.98l-.165,2.689-.237,3.805-.1,1.581-.233,3.805-.1,1.581-.237,3.805L169.669,699.4a7.314,7.314,0,0,1-7.3,6.858H148.478a7.31,7.31,0,0,1-7.293-6.858l-2.659-43.184-.237-3.805-.1-1.581-.237-3.805-.1-1.581-.237-3.805-.169-2.689a3.805,3.805,0,0,1,3.805-4.021h28.416a3.78,3.78,0,0,1,3.738,4.05Z" transform="translate(-99.03 -391.276)" fill="#3f3d56"/>
    <path id="Path_566" data-name="Path 566" d="M126.222,592.24l-.237,3.792H90.817l-.237-3.792Z" transform="translate(-52.006 -341.847)" fill="#9d9cb5"/>
    <path id="Path_567" data-name="Path 567" d="M126.344,604.95l-.233,3.8h-34.5l-.237-3.8Z" transform="translate(-52.462 -349.183)" fill="#9d9cb5"/>
    <path id="Path_568" data-name="Path 568" d="M126.466,617.68l-.233,3.792H92.4l-.237-3.792Z" transform="translate(-52.918 -356.531)" fill="#9d9cb5"/>
    <path id="Path_569" data-name="Path 569" d="M81.785,540.565c15.436,11.17,21.88,28.64,21.88,28.64s-18.6-.638-34.044-11.809S47.75,528.76,47.75,528.76,66.345,529.394,81.785,540.565Z" transform="translate(-47.257 -329.994)" fill="#ffd522"/>
    <path id="Path_570" data-name="Path 570" d="M47.72,528.76s19.313,10.718,25.507,19.592,30.42,20.852,30.42,20.852" transform="translate(-47.24 -329.994)" fill="none" stroke="#535461" stroke-miterlimit="10" stroke-width="2"/>
    <path id="Path_571" data-name="Path 571" d="M126.527,494.686c8.4,6.076,11.914,15.584,11.914,15.584s-10.126-.347-18.531-6.422S108,488.26,108,488.26A37.435,37.435,0,0,1,126.527,494.686Z" transform="translate(-82.034 -306.618)" fill="#ffd522"/>
    <path id="Path_572" data-name="Path 572" d="M108,488.26s10.511,5.835,13.88,10.663,16.561,11.348,16.561,11.348" transform="translate(-82.034 -306.618)" fill="none" stroke="#535461" stroke-miterlimit="10" stroke-width="2"/>
    <path id="Path_573" data-name="Path 573" d="M192.885,520.132C183.232,530.74,181.19,544.6,181.19,544.6s13.61-3.34,23.254-13.952,11.695-24.471,11.695-24.471S202.537,509.524,192.885,520.132Z" transform="translate(-124.279 -316.961)" fill="#ffd522"/>
    <path id="Path_574" data-name="Path 574" d="M216.147,506.19s-12.574,10.874-15.77,18.366-19.187,20.053-19.187,20.053" transform="translate(-124.279 -316.967)" fill="none" stroke="#535461" stroke-miterlimit="10" stroke-width="2"/>
    <path id="Path_575" data-name="Path 575" d="M917.362,376.434s-6.98-34.729-4.308-39.049c0,0,.1-4.017-.063-9.137v-.588a13,13,0,0,0,1.467.846,11.872,11.872,0,0,0,7.991,1.032l-2.114-2.355a3.9,3.9,0,0,1-1.146-1.915,4.012,4.012,0,0,1,.457-2.072c2.008-5.074,2.114-11.454-1.755-15.326-3.268-3.256-4.063-7.458-7.61-10.43-2.592-2.177-4.017-5.37-5.361-8.456a47.548,47.548,0,0,1-2.934-8c-.507-2.16-.71-4.4-1.408-6.507a8.282,8.282,0,0,0-4.046-5.1,15.267,15.267,0,0,1-2.2-.968,9.5,9.5,0,0,1-2.025-2.38c-3.2-4.228-13.918-1.738-18.992-.021a10.684,10.684,0,0,0-3.754,2.08l.047-.076c.038-.063.085-.127.127-.19a6.671,6.671,0,0,0-1.42,1.586,38.015,38.015,0,0,0-1.666,3.805c-.744,1.5-4.883,5.691-3.1,7.378a1.5,1.5,0,0,0,.423.271,3.657,3.657,0,0,0,2.114.211l-.076.182a12.357,12.357,0,0,0-.917,4.689,12.69,12.69,0,0,0,12.8,12.578,12.924,12.924,0,0,0,3.919-.6c.03.161.055.321.085.482a1.476,1.476,0,0,0,.03.19h0l-.224.313a.414.414,0,0,0-.038-.055l-6.638,9.276c-1.015.715-6.858,4.943-7.188,8.113-.347,3.471-.693,7.534-.693,7.534l-.047.871a2.613,2.613,0,0,1-2.114.571c-2.072-.338-2.072,7.61-2.072,7.61s-1.378,1.268-2.325.169-3.45,2.626-3.45,2.626l-15.686.677h0l-.359.021-.846-2.617a1.1,1.1,0,0,0-1.383-.706,1.267,1.267,0,0,0-.19.08l-.059.034-.11.076-.055.051a.845.845,0,0,0-.085.089l-.051.059-.025.025h0a1.065,1.065,0,0,0-.152.947l.727,2.245c-3.027.609-6.122,2.325-3.6,7.052l-12.794-2.363,4.139,3.475,21.368,4.41c-.283.507-.1,1.243.786,2.279,3.805,4.469,10.739,5.682,13.529,6a24.018,24.018,0,0,0,2.744,4.651l-.241,4.452s-7.065,33.934-8.359,35.654a20.11,20.11,0,0,0,1.788-2.355c-2.051,6.972-4.917,16.514-5.67,17.943-1.209,2.283-2.33,11.521-.951,12.113a11.6,11.6,0,0,0,3.357-.038v.765l-.076,29s.347,17.787-.6,19.482-1.205,5.251-1.205,5.251-3.805,7.014-6.82,9.834a.459.459,0,0,1-.068.059l-.093-.66s-3.623,4.575-11.64,4.317c0,0-4.824,3.137,2.33,3.306s16.29-.254,16.29-.254,6.38-9.724,11.724-8.456v7.369h1.636v-7.488a6.71,6.71,0,0,0,2.913-4.41,5.361,5.361,0,0,0-1.911-4.959,3.171,3.171,0,0,1-1.044-2.317l-.059.051a4.489,4.489,0,0,0-.055-.457c-.469-3.805-1.057-11.656,1.019-17.466,2.845-7.965,3.708-19.06,1.636-25.664a59,59,0,0,1-1.645-6.431c-.051-.275-.1-.537-.14-.782a33.334,33.334,0,0,1,4.2.846c4.8,1.323,15.3,1.569,24.26,1.5.021.245.047.5.076.761a27.7,27.7,0,0,0,1,5.293c1.125,3.382,1.641,18.294,1.641,18.294s1.45,12.261.66,17.25c-.423,2.774-.846,5.56-1.087,8.359v.055s-2.376,6.765-4.114,10.439c-.042.093-.089.186-.131.275a5.5,5.5,0,0,0-1.357.3s-2.33,4.651-4.651,5.42-1.552,3.3,3.7,2.372,13.191-1.691,13.191-1.691l.342-4.744,1.615-2.021-.423,4.731,1.721-.338-.228-5.754,2.642-3.306s3.192-2.841-1.552-8.431v.123c-.051-.08-.1-.165-.152-.245v-.025c-.786-1.218-1.412-3.488-.266-7.517,2.072-7.281,3.277-13.889,3.277-13.889s4.625-17.7-.934-26.078h.245a14.089,14.089,0,0,1-1.2-3.721q-.042-.228-.076-.469A30.508,30.508,0,0,0,921,425.149C920.986,425.132,919,383.123,917.362,376.434Zm-52.228-29.3v.085l-.846.042Zm-2.9.4a.935.935,0,0,0-.381.182,3.754,3.754,0,0,0-.664,1.738l-1.319-.3s-.926-.2-2.258-.423l-.63-.634C858.716,347.959,860.517,347.747,862.234,347.536Z" transform="translate(-494.428 -176.996)" fill="url(#linear-gradient-2)"/>
    <path id="Path_576" data-name="Path 576" d="M971.823,742.376l-.5,5.991,1.687-.338-.254-6.5Z" transform="translate(-560.372 -428.017)" fill="#1d2366"/>
    <path id="Path_577" data-name="Path 577" d="M897.316,685.916c-2.034,5.792-1.459,13.61-1,17.406.169,1.4.326,2.258.326,2.258s-3.04,6.925-3.294,7.188-8.946,5.568-8.946,5.568l-6.076,3.547s-6.164-2.7-3.209-3.632a4.487,4.487,0,0,0,1.594-1.087c2.96-2.812,6.676-9.8,6.676-9.8a16.854,16.854,0,0,1,1.184-5.234c.93-1.687.592-19.415.592-19.415l.072-28.9V650.05l11.563.085a26.169,26.169,0,0,0,.5,3.805,58.16,58.16,0,0,0,1.611,6.41C900.944,666.941,900.1,677.98,897.316,685.916Z" transform="translate(-524.352 -400.003)" fill="#ffb0b1"/>
    <path id="Path_578" data-name="Path 578" d="M896.64,778.319s-3.04,6.925-3.294,7.188-8.946,5.568-8.946,5.568l-6.076,3.547s-6.164-2.7-3.209-3.632a4.486,4.486,0,0,0,1.594-1.087l.262,1.848,2.025-.085,17.335-15.6C896.483,777.465,896.64,778.319,896.64,778.319Z" transform="translate(-524.352 -472.742)" opacity="0.1"/>
    <path id="Path_579" data-name="Path 579" d="M881.767,777l-17.432,15.7-2.025.085-.423-2.96s-3.543,4.558-11.416,4.3c0,0-4.727,3.124,2.279,3.294s15.952-.254,15.952-.254,6.249-9.724,11.479-8.456v7.344h1.607v-7.412a6.676,6.676,0,0,0,2.85-4.4,5.386,5.386,0,0,0-1.865-4.938A3.184,3.184,0,0,1,881.766,777Z" transform="translate(-509.691 -473.279)" fill="#1d2366"/>
    <path id="Path_580" data-name="Path 580" d="M1002.116,694.517c-1.125,4.016-.512,6.278.258,7.492v.025a13.848,13.848,0,0,1,2.021,4.934l.068.38-7.932,11.563-4.3,1.691s-6.921-2.364-5.657-3.04a6.476,6.476,0,0,0,1.378-2.258c1.691-3.657,4.025-10.405,4.025-10.405v-.055c.245-2.786.634-5.564,1.065-8.329.774-4.976-.647-17.191-.647-17.191s-.507-14.853-1.607-18.231a27.884,27.884,0,0,1-.985-5.26c-.228-2.114-.279-3.856-.279-3.856s4.558-6.342,12.912.507a9.2,9.2,0,0,1,1.746,1.894c5.771,8.211,1.125,26.3,1.125,26.3S1004.141,687.257,1002.116,694.517Z" transform="translate(-589.058 -399.573)" fill="#ffb0b1"/>
    <path id="Path_581" data-name="Path 581" d="M1004.492,779.161l-7.932,11.563-4.3,1.691s-6.921-2.363-5.657-3.04a6.476,6.476,0,0,0,1.378-2.258c2.93-.025,4.448,2.765,4.448,2.765l3.712-.592s4.9-9.623,6-10.211.169-4.393.169-4.393v-.968c.03.034.055.072.089.106v.025a13.845,13.845,0,0,1,2.021,4.934Z" transform="translate(-589.075 -471.386)" opacity="0.1"/>
    <path id="Path_582" data-name="Path 582" d="M984.889,790.468s-2.114-3.881-6.164-2.448c0,0-2.279,4.651-4.558,5.4s-1.518,3.289,3.632,2.363,12.912-1.691,12.912-1.691l.338-4.731,5.234-6.667s3.12-2.829-1.522-8.4v.968s.93,3.805-.169,4.393-5.978,10.215-5.978,10.215Z" transform="translate(-581.286 -471.721)" fill="#1d2366"/>
    <path id="Path_583" data-name="Path 583" d="M911.716,650.115a26.169,26.169,0,0,0,.5,3.805,53.031,53.031,0,0,0-12.075-.123V650.03Z" transform="translate(-539.26 -399.992)" opacity="0.1"/>
    <path id="Path_584" data-name="Path 584" d="M1008.911,655.428s-6.765.33-14.832.4c-.228-2.114-.279-3.856-.279-3.856s4.558-6.342,12.912.507a9.19,9.19,0,0,1,1.746,1.894A10.344,10.344,0,0,0,1008.911,655.428Z" transform="translate(-593.321 -399.568)" opacity="0.1"/>
    <path id="Path_585" data-name="Path 585" d="M949.522,553.561s-29.63,1.433-38.661-1.1-17.982-.338-19.33-.926-.254-9.792.93-12.071,7.678-25.326,7.678-25.326l6.249-32.581,6.583-1.814.465-.131,11.471-3.163,8.405-2.321s16.713,65.25,15.28,70.062a12.321,12.321,0,0,0-.245,5.661A14.133,14.133,0,0,0,949.522,553.561Z" transform="translate(-533.932 -298.462)" fill="#1d2366"/>
    <path id="Path_586" data-name="Path 586" d="M871.748,439s-5.919,6.342-1.437,9.876,7.429.338,7.429.338Z" transform="translate(-521.074 -278.185)" fill="#c7daf5"/>
    <path id="Path_587" data-name="Path 587" d="M871.748,439s-5.919,6.342-1.437,9.876,7.429.338,7.429.338Z" transform="translate(-521.074 -278.185)" opacity="0.1"/>
    <path id="Path_588" data-name="Path 588" d="M971.823,324.6s-.693.66-1.738,1.632c-1.488,1.391-3.691,3.425-5.644,5.129-2.706,2.355-4.938,4.084-4.139,2.609s.647-4.046.249-6.452c-.03-.161-.055-.321-.085-.478a44.318,44.318,0,0,0-1.306-5.226,90.414,90.414,0,0,1,6.79-7.877c.9-.846,1.531-1.192,1.569-.6a19.642,19.642,0,0,0,1.37,4.389c.021.059.042.114.068.173.49,1.268,1.044,2.571,1.53,3.7C971.231,323.313,971.823,324.6,971.823,324.6Z" transform="translate(-573.326 -205.479)" fill="#ffb0b1"/>
    <path id="Path_589" data-name="Path 589" d="M968.956,317.9a12.549,12.549,0,0,1-8.405,9.623,44,44,0,0,0-1.391-5.7s8.232-10.633,8.359-8.481A20.111,20.111,0,0,0,968.956,317.9Z" transform="translate(-573.326 -205.486)" opacity="0.1"/>
    <path id="Path_590" data-name="Path 590" d="M938.9,351.951l1.065-1.5s.706,4.3,3.3,2.406,2.723,14.286,2.723,14.286L943.2,408.8l-20.134-1.2.571-20.129,2.279-10.147,5.636-14.751,3.353-4.875Z" transform="translate(-552.495 -227.073)" opacity="0.1"/>
    <path id="Path_591" data-name="Path 591" d="M946.007,367.723,943.47,405.39l-.266,3.991-11.225-.672-.423-.025-8.456-.507.571-20.134L925.95,377.9l5.636-14.751,3.353-4.875,3.991-5.763,1.065-1.5s.706,4.3,3.3,2.406l.055-.038h0C945.889,351.771,946.007,367.723,946.007,367.723Z" transform="translate(-552.512 -227.396)" fill="#1d2366"/>
    <path id="Path_592" data-name="Path 592" d="M894.891,406.26s-1.01,2.114-3.04,1.772-2.025,7.61-2.025,7.61-1.349,1.268-2.279.169-3.382,2.617-3.382,2.617L868.8,419.1s6.837,3.124,5.5,12.578c0,0,23.212-1.438,23.973-3.632S894.891,406.26,894.891,406.26Z" transform="translate(-521.17 -259.287)" fill="#fff"/>
    <path id="Path_593" data-name="Path 593" d="M894.891,406.26s-1.01,2.114-3.04,1.772-2.025,7.61-2.025,7.61-1.349,1.268-2.279.169-3.382,2.617-3.382,2.617L868.8,419.1s6.837,3.124,5.5,12.578c0,0,23.212-1.438,23.973-3.632S894.891,406.26,894.891,406.26Z" transform="translate(-521.17 -259.287)" opacity="0.03"/>
    <path id="Path_594" data-name="Path 594" d="M777.66,389.76l4.05,3.458,33.342,7.006L810.917,396Z" transform="translate(-448.591 -224.974)" fill="#fff"/>
    <path id="Path_595" data-name="Path 595" d="M927.707,351.753a85.281,85.281,0,0,0-3.463,8.955c-1.1,3.15-2.025,5.919-2.025,5.919s-2.152,14.011-3.251,16.544-.5,12.409-.5,12.409l-4.1,24.391s-1.856,12.578-4.723,20.091c-2.828,7.395-5.978,10.862-6.076,10.972,1.268-1.717,8.181-35.515,8.181-35.515l2.283-42.626s.334-4.05.672-7.513,7.188-8.19,7.188-8.19l6.6-9.39C929.162,348.688,928.718,350.235,927.707,351.753Z" transform="translate(-541.24 -225.544)" fill="#fff"/>
    <path id="Path_596" data-name="Path 596" d="M899.014,473.955s-9.724-.423-14.434-6.08,10.887-2.258,10.887-2.258l4.055.93Z" transform="translate(-529.767 -292.964)" fill="#ffb0b1"/>
    <path id="Path_597" data-name="Path 597" d="M978.711,476.261a12.322,12.322,0,0,0-.245,5.661c-10.608.753-21.956-2.114-21.956-2.114-2.114,1.945-7.682,4.811-7.682,4.811l-3.036-37.629c-1.941-5.074-2.7-31.655-2.7-31.655s.173-1.391.423-3.475a.4.4,0,0,1,.021-.156c.757-5.822,2.258-16.751,2.993-18.227,1.015-2.029-3.12-7.429-3.12-7.429L945.289,370l.228-1.936c3.966-1.771,7.006-7.429,7.006-7.429l2.334-4.088h0c2.537-1.628,2.668,14.324,2.668,14.324l-2.537,37.667,8.405-2.321S980.144,471.45,978.711,476.261Z" transform="translate(-564.051 -230.527)" opacity="0.1"/>
    <path id="Path_598" data-name="Path 598" d="M990.29,465.1c-11.564,5.742-32.581.423-32.581.423-2.114,1.945-7.682,4.811-7.682,4.811l-3.04-37.629c-1.936-5.074-2.7-31.655-2.7-31.655s2.444-19.833,3.458-21.859a3.257,3.257,0,0,0-.2-2.418,30.6,30.6,0,0,1-1.852-14.159l.812-6.9.224-1.932c3.97-1.776,7.01-7.433,7.01-7.433l2.114-3.7,3.89-6.824,1.843-3.23.313.283,2.389,2.165,2.537,2.114c3.31,2.79,9.031,7.7,11.982,10.709,2.6,2.647,3.416,12.942,3.653,20.692.156,5.1.063,9.1.063,9.1-2.617,4.308,4.228,38.9,4.228,38.9C988.35,423.248,990.29,465.1,990.29,465.1Z" transform="translate(-564.743 -216.77)" fill="#fff"/>
    <path id="Path_599" data-name="Path 599" d="M952.014,364.126s-7.936,15.107-7.014,20.848,3.543,12.24,2.279,13.758a4.672,4.672,0,0,1-3.716,1.856c-1.268.085-4.651,2.448-4.651,2.7s-3.124.254-5.919,1.438a36.856,36.856,0,0,1-6.921,1.856s-8.033-.254-8.781.507-1.518,5.315.085,8.946,3.382,6.342,4.727,6.837,9.877-2.363,16.8-3.04,14.434-6.16,14.434-6.16,8.274-2.96,9.724-7.936-1.772-32.327-1.772-32.327S958.851,360.663,952.014,364.126Z" transform="translate(-548.664 -234.623)" opacity="0.03"/>
    <path id="Path_600" data-name="Path 600" d="M949.631,361.127s-7.936,15.111-7.006,20.848,3.543,12.24,2.275,13.762a4.651,4.651,0,0,1-3.712,1.856c-1.268.085-4.651,2.448-4.651,2.7s-3.124.254-5.919,1.433a37.215,37.215,0,0,1-6.921,1.856s-8.033-.254-8.777.507-1.522,5.319.085,8.946,3.382,6.342,4.727,6.837,9.876-2.363,16.8-3.036,14.434-6.164,14.434-6.164,8.27-2.96,9.7-7.932-1.772-32.331-1.772-32.331S956.467,357.669,949.631,361.127Z" transform="translate(-547.295 -232.893)" opacity="0.03"/>
    <path id="Path_601" data-name="Path 601" d="M951.436,362.334s-7.936,15.111-7.006,20.848,3.543,12.24,2.279,13.758a4.651,4.651,0,0,1-3.716,1.86c-1.268.085-4.651,2.448-4.651,2.7s-3.12.254-5.919,1.438a36.941,36.941,0,0,1-6.921,1.856s-8.033-.254-8.781.507-1.518,5.319.084,8.946,3.382,6.342,4.727,6.837,9.877-2.363,16.8-3.04,14.434-6.16,14.434-6.16,8.274-2.96,9.724-7.936-1.75-32.327-1.75-32.327S958.268,358.892,951.436,362.334Z" transform="translate(-548.335 -233.592)" fill="#fff"/>
    <path id="Path_602" data-name="Path 602" d="M993.308,458.485s-6.342-1.268-4.135.846,2.194,3.966,4.9,3.881S993.308,458.485,993.308,458.485Z" transform="translate(-590.381 -289.213)" opacity="0.1"/>
    <path id="Path_603" data-name="Path 603" d="M1023.918,566.58s-2.867,1.941,2.617,6.414S1023.918,566.58,1023.918,566.58Z" transform="translate(-610.272 -351.824)" opacity="0.1"/>
    <path id="Path_604" data-name="Path 604" d="M1011.832,604.31c0,.254-1.015,9.3,2.782,11.563S1011.832,604.31,1011.832,604.31Z" transform="translate(-603.658 -373.602)" opacity="0.1"/>
    <path id="Path_605" data-name="Path 605" d="M859.582,436.59c-3.061.106-9.674,1.04-6.245,7.437,3.031,5.661,8.126,1.877,10.993-.994A10.8,10.8,0,0,0,859.582,436.59Z" transform="translate(-511.69 -276.793)" fill="#ffb0b1"/>
    <path id="Path_606" data-name="Path 606" d="M881.39,451Z" transform="translate(-528.437 -285.111)" fill="#ffb0b1"/>
    <path id="Path_607" data-name="Path 607" d="M880.74,451.531l.127-.131Z" transform="translate(-528.062 -285.342)" fill="#ffb0b1"/>
    <path id="Path_608" data-name="Path 608" d="M969.86,337.76c-3.247,2.22-5.97,4.093-6.5,4.482-1.454,1.078-4.228,7.407-6.016,10.638-1.425,2.6-6.054,3.268-7.8,3.433l.224-1.932c3.97-1.776,7.01-7.433,7.01-7.433l7.847-13.758,2.7,2.456Z" transform="translate(-567.774 -217.111)" opacity="0.1"/>
    <path id="Path_609" data-name="Path 609" d="M969.86,337.16c-3.247,2.22-5.97,4.093-6.5,4.486-1.454,1.074-4.228,7.4-6.016,10.633-1.425,2.6-6.054,3.268-7.8,3.433l.224-1.932c3.97-1.776,7.01-7.433,7.01-7.433l7.847-13.758,2.7,2.448S968.338,335.875,969.86,337.16Z" transform="translate(-567.774 -216.764)" fill="#dce7ff"/>
    <path id="Path_610" data-name="Path 610" d="M948.578,300.8a12.54,12.54,0,1,1-10.661-12.4,12.519,12.519,0,0,1,10.661,12.4Z" transform="translate(-552.741 -191.178)" fill="#ffb0b1"/>
    <path id="Path_611" data-name="Path 611" d="M971.705,342.975a11.146,11.146,0,0,1-4.046-4.346c-.706-1.4-1.175-3.006-2.38-4a10.571,10.571,0,0,0-3.89-1.5c-4.448-1.315-8.177-5.374-8.316-10.008-.068-2.182.613-4.359.3-6.52a7.22,7.22,0,0,0-1.412-3.361,11.585,11.585,0,0,0-1.222-1.315c-.592-.558-1.213-1.1-1.755-1.691a6.564,6.564,0,0,1-.888-1.205,5.8,5.8,0,0,1-.486-1.12c-.846-2.588-.076-5.657-1.006-8.274l-.051-.144a2.692,2.692,0,0,0-2.059-1.932c-.994-.072-1.844.753-2.791,1.12-1.983.77-4.122-.541-5.775-1.877s-3.518-2.862-5.619-2.566c-1.391.2-2.49,1.146-3.771,1.636a5.286,5.286,0,0,1-.892.258,12.538,12.538,0,0,1,23.9,7.289c.021.059.042.114.068.173.49,1.268,1.044,2.571,1.531,3.7l2.389,2.165,2.537,2.114c3.311,2.79,9.031,7.7,11.982,10.709C970.648,324.935,971.46,335.225,971.705,342.975Z" transform="translate(-553.984 -191.178)" opacity="0.1"/>
    <path id="Path_612" data-name="Path 612" d="M922.672,275.015c.6-1.23.9-2.609,1.628-3.776a9,9,0,0,1,4.816-3.429c4.968-1.712,15.466-4.2,18.6,0a9.153,9.153,0,0,0,1.983,2.368,14.728,14.728,0,0,0,2.152.968,8.225,8.225,0,0,1,3.957,5.074c.681,2.089.884,4.329,1.383,6.481a47.67,47.67,0,0,0,2.875,7.978c1.315,3.07,2.71,6.253,5.247,8.422,3.463,2.96,4.228,7.15,7.441,10.4,3.805,3.856,3.683,10.219,1.721,15.271a4.194,4.194,0,0,0-.448,2.063,4.046,4.046,0,0,0,1.12,1.911l2.08,2.346a11.7,11.7,0,0,1-12.781-5.894c-.706-1.4-1.175-3-2.385-4a10.545,10.545,0,0,0-3.886-1.5c-4.448-1.319-8.177-5.382-8.316-10.016-.068-2.177.613-4.355.3-6.511a7.187,7.187,0,0,0-1.416-3.382c-1.163-1.518-2.917-2.537-3.864-4.228-1.6-2.829-.385-6.5-1.539-9.538a2.7,2.7,0,0,0-2.059-1.932c-.994-.072-1.843.753-2.795,1.12-1.979.769-4.118-.537-5.771-1.877s-3.518-2.862-5.623-2.562c-1.391.194-2.486,1.142-3.767,1.636-.947.364-2.867.689-3.7-.11C917.886,280.693,921.941,276.52,922.672,275.015Z" transform="translate(-550.263 -178.041)" fill="#591d4b"/>
    <path id="Path_613" data-name="Path 613" d="M965.5,329.416c-.71-1.4-1.175-3-2.385-3.991a10.542,10.542,0,0,0-3.89-1.5c-4.444-1.315-8.173-5.378-8.317-10.012-.068-2.177.613-4.359.309-6.515a7.23,7.23,0,0,0-1.416-3.361c-1.167-1.518-2.922-2.537-3.864-4.228-1.6-2.824-.385-6.5-1.543-9.538a2.706,2.706,0,0,0-2.055-1.932c-.989-.076-1.848.757-2.795,1.125-1.979.769-4.122-.541-5.771-1.877s-3.522-2.862-5.623-2.566c-1.391.2-2.49,1.146-3.767,1.636-.947.364-2.871.693-3.7-.106-1.742-1.691,2.313-5.856,3.04-7.352a40.465,40.465,0,0,1,1.632-3.776c.038-.063.08-.127.123-.19a6.715,6.715,0,0,0-1.391,1.581,41.1,41.1,0,0,0-1.628,3.776c-.731,1.5-4.786,5.674-3.04,7.352.846.8,2.748.474,3.7.11,1.268-.495,2.376-1.442,3.767-1.636,2.114-.3,3.974,1.226,5.623,2.562s3.805,2.647,5.775,1.877c.947-.368,1.776-1.2,2.79-1.12a2.692,2.692,0,0,1,2.059,1.932c1.154,3.036-.063,6.71,1.539,9.538.947,1.662,2.7,2.7,3.864,4.228a7.188,7.188,0,0,1,1.416,3.382c.309,2.156-.372,4.334-.3,6.511.14,4.651,3.869,8.7,8.316,10.016a10.6,10.6,0,0,1,3.885,1.5c1.213.994,1.691,2.6,2.385,4a11.7,11.7,0,0,0,12.781,5.894l-.981-1.108A11.823,11.823,0,0,1,965.5,329.416Z" transform="translate(-550.138 -183.656)" opacity="0.1"/>
    <path id="Path_614" data-name="Path 614" d="M952.106,352.3a85.3,85.3,0,0,0-3.463,8.955c-1.239-.482-2.363-3.556-2.363-3.556l6.6-9.395C953.56,349.23,953.117,350.773,952.106,352.3Z" transform="translate(-565.892 -225.832)" opacity="0.1"/>
    <path id="Path_615" data-name="Path 615" d="M952.706,351.7a85.291,85.291,0,0,0-3.463,8.955c-1.239-.478-2.363-3.556-2.363-3.556l6.6-9.39C954.16,348.636,953.717,350.183,952.706,351.7Z" transform="translate(-566.238 -225.492)" fill="#dce7ff"/>
    <path id="Path_616" data-name="Path 616" d="M864.771,441.626,861.11,430.08a1.078,1.078,0,0,1,.7-1.357h0a1.082,1.082,0,0,1,1.353.7l3.661,11.534-.364,2.414Z" transform="translate(-516.702 -272.224)" fill="#be8b87"/>
    <path id="Path_617" data-name="Path 617" d="M861.694,429.088h0a1.082,1.082,0,0,1,1.357.7l3.661,11.534-.275,1.81.266.279.364-2.414-3.682-11.534a1.082,1.082,0,0,0-1.353-.7h0a1.082,1.082,0,0,0-.562.423A1.476,1.476,0,0,1,861.694,429.088Z" transform="translate(-516.939 -272.247)" fill="#fff" opacity="0.1"/>
    <path id="Path_618" data-name="Path 618" d="M822.6,399.791l2.055-.651-.3,1.979-.063.435-.6-.626Z" transform="translate(-474.53 -230.389)" fill="#efc8c4"/>
    <path id="Path_619" data-name="Path 619" d="M872.42,461.811a.424.424,0,0,1,.131-.11.186.186,0,0,1,.2,0,.524.524,0,0,1,.072.114.363.363,0,0,0,.262.173l-.063.423Z" transform="translate(-523.26 -291.271)" fill="#727a9c"/>
    <path id="Path_620" data-name="Path 620" d="M861.13,441.7s7.344-.042,5.615,3.082a6.605,6.605,0,0,1-4.431,3.5Z" transform="translate(-516.743 -279.743)" fill="#ffb0b1"/>
    <path id="Path_621" data-name="Path 621" d="M621.2,110.05h-.317a36.163,36.163,0,0,0-30.192,16.527A36.163,36.163,0,0,0,560.5,110.05h-.317a35.938,35.938,0,0,0-35.6,35.917c0,11.758,5.15,28.442,15.191,42.17,19.131,26.158,50.913,49.044,50.913,49.044S622.476,214.3,641.6,188.136c10.046-13.728,15.191-30.412,15.191-42.17A35.938,35.938,0,0,0,621.2,110.05Zm-4.537,80.1a7.124,7.124,0,0,1-6.625-4.575H602.5a2.385,2.385,0,0,1-2.245-1.624l-2.317-6.98-7.331,25.617a2.372,2.372,0,0,1-2.275,1.712h-.148a2.342,2.342,0,0,1-2.2-1.962L578.429,156.9l-5.522,26.89a2.355,2.355,0,0,1-2.287,1.788H559.995a2.363,2.363,0,1,1,0-4.723h8.765l7.822-36.153a2.372,2.372,0,0,1,4.651.195l7.716,46.355,6.57-22.92a2.325,2.325,0,0,1,2.211-1.691h.047a2.359,2.359,0,0,1,2.241,1.624l4.19,12.6h5.742a7.086,7.086,0,1,1,6.731,9.3Z" transform="translate(-322.491 -88.313)" fill="#ffd522"/>
  </g>
</svg>
