<svg xmlns="http://www.w3.org/2000/svg" width="999.382" height="237.09" viewBox="0 0 999.382 237.09">
  <path id="cleveland" d="M978.253,531.492v-11.57H937.537V457.709h.063l5.184-3.161H881.141l4.362,3.161h.759v62.212h-6.006V493.367h-9.231v-3.035H869.7v-2.592H844.724v-1.833h-7.4v-3.794h-4.3v3.794h-3.035v2.845H819.94v4.615H801.479v4.046h-1.2v13.214h-2.845v-11.38h-7.777v-5.88h-2.023V477.562h-3.414v-5.753h-1.77v-4.3h-3.035l1.454-2.4H772.4v-12.9h-.506v12.9h-3.414l1.454,2.4h-5.121V446.266h-1.2V435.707h-.948v-5.121h.253l-1.265-3.54-1.264,3.54h-.569v-5.058h1.454v-1.644h-1.454v-4.805h1.454v-1.454h-1.454V414.97h-.7v-3.288h-1.581V399.543h-1.2v-3.667h-.758l-2.529-9.737V370.207h-.443v15.237L750.331,396h-.7v3.667H748.56V412h-1.833v3.288h-.506v2.655h-1.265V419.4h1.265v4.8h-1.265v1.581h1.265v4.995l-1.265-3.541-1.264,3.541V435.9h-1.012v10.558h-2.023v52.792H717.644v1.012l-5.374,1.9v1.77H699.183v4.868H696.59v-2.023H685.779v3.794h-5.627v-6.575H674.4v4.3h-2.655V512.9H661.691v-2.276H658.53v-3.794h-2.845V467.572H643.04v-3.414h-9.484v-44.51h-2.592v-6.006h-2.782v-6.006H625.59v-6.891H584.558v6.891h-2.276v6.006h-2.592v6.006h-2.845v39.894H556.423v4.615H543.209V406.435h-3.035V382.409h-.759v-6.891h-2.023v-4.046h-2.15v-3.857h-1.012v-3.793h-2.592v-3.288h-1.012v-2.023h-2.339V355.1h-1.9v-2.529h-.948v-2.529h-1.581v-2.782h-1.2V344.6h-.443l-2.339-3.667V328.1h-.063V341l-2.15,3.6h-.506v2.655H515.9v2.782h-1.2v2.592h-1.454v2.529h-2.15v3.414h-2.4V360.6h-.822v3.288h-2.592v3.793h-.822v3.857h-2.339v4.046h-1.9v6.891h-.7V406.5H496.17v71.443L492,481.481H486.56l-1.075-2.339H481.06l-3.035.443-1.328,1.9H475.37l-1.328-2.339s-.316,1.328-.506,2.339H458.742v7.461H442.683V447.657H421.756v-1.517h-3.035v1.517h-2.15v-1.517h-3.035v1.517h-1.644v-1.517h-1.833v-6.386h1.075V437.6H408.1v2.15h1.2v6.2h-.253v1.517h-1.77V445.95h-3.035v1.517h-17.2v41.285H372.378v15.49h-4.046v-3.414h-4.046V488.752h-8.029v-7.461h-7.777v-30.6h-52.16v41.665h-7.9v-3.161h-28.83v3.161h-7.713v-38.5h-8.219v-3.92h-9.61v-1.265h-1.77v1.265h-6.765v-1.265h-.569v1.265h-6.891V435.707H204.581v-2.023h-1.77v2.023h-3.793v-2.023h2.023v-2.4H186.246v2.4h1.833v2.023h-3.92v-2.023H182.9v2.023h-1.264v-2.023H180.3v2.023h-1.77v-2.023h-1.77v2.023h-7.208v86.806H93.181V505.19H90.9v-5.817H87.49v-5.943H84.329v-5.437H51.516v5.437H41.779v6.006H35.52v5.753H29.261v18.272H4.351v8.219H1V565.19h999.382V531.681l-22.128-.19Z" transform="translate(-1 -328.1)" fill="#141414"/>
</svg>
