<svg xmlns="http://www.w3.org/2000/svg" xmlns:xlink="http://www.w3.org/1999/xlink" width="499.875" height="262.297" viewBox="0 0 499.875 262.297">
  <defs>
    <linearGradient id="linear-gradient" x1="0.5" y1="1" x2="0.5" gradientUnits="objectBoundingBox">
      <stop offset="0" stop-color="gray" stop-opacity="0.251"/>
      <stop offset="0.54" stop-color="gray" stop-opacity="0.122"/>
      <stop offset="1" stop-color="gray" stop-opacity="0.102"/>
    </linearGradient>
    <linearGradient id="linear-gradient-2" x1="0.5" y1="1" x2="0.5" y2="-0.001" xlink:href="#linear-gradient"/>
  </defs>
  <g id="contact" transform="translate(0 0.359)">
    <g id="Group_1" data-name="Group 1" transform="translate(193.906 17.885)" opacity="0.1">
      <ellipse id="Ellipse_6" data-name="Ellipse 6" cx="5.19" cy="6.796" rx="5.19" ry="6.796" transform="translate(19.562 140.284)" fill="#3f3d56"/>
      <path id="Path_19" data-name="Path 19" d="M529.317,447.941a8.21,8.21,0,0,0,1.086-4.155c0-3.754-2.326-6.8-5.195-6.8s-5.209,3.051-5.209,6.8a8.211,8.211,0,0,0,1.086,4.155,8.488,8.488,0,0,0,0,8.305,8.488,8.488,0,0,0,0,8.305A8.183,8.183,0,0,0,520,468.716c0,3.749,2.326,6.8,5.19,6.8s5.195-3.047,5.195-6.8a8.182,8.182,0,0,0-1.086-4.155,8.488,8.488,0,0,0,0-8.305,8.488,8.488,0,0,0,0-8.305Z" transform="translate(-500.456 -329.937)" fill="#3f3d56"/>
      <ellipse id="Ellipse_7" data-name="Ellipse 7" cx="5.19" cy="6.796" rx="5.19" ry="6.796" transform="translate(19.562 98.757)" fill="#3f3d56"/>
      <ellipse id="Ellipse_8" data-name="Ellipse 8" cx="5.19" cy="6.796" rx="5.19" ry="6.796" transform="translate(19.562 90.451)" fill="#3f3d56"/>
      <path id="Path_20" data-name="Path 20" d="M482.472,242.676a24.213,24.213,0,0,1-1.934-2.846l13.637-2.239-14.75.109a24.912,24.912,0,0,1-.456-19.7l19.79,10.267-18.244-13.418a24.871,24.871,0,1,1,41.048,27.821A24.871,24.871,0,0,1,524.4,247.2l-17.71,9.222,18.878-6.335a24.871,24.871,0,0,1-4.009,23.352,24.866,24.866,0,1,1-39.087,0,24.866,24.866,0,0,1,0-30.75Z" transform="translate(-477.149 -202.271)" fill="#ffd522"/>
      <path id="Path_21" data-name="Path 21" d="M526.882,324.133a24.752,24.752,0,0,1-5.323,15.375,24.866,24.866,0,1,1-39.087,0C479.138,335.275,526.882,321.342,526.882,324.133Z" transform="translate(-477.149 -268.354)" opacity="0.1"/>
    </g>
    <g id="Group_2" data-name="Group 2" transform="translate(260.756 40.613)" opacity="0.1">
      <ellipse id="Ellipse_9" data-name="Ellipse 9" cx="3.881" cy="5.076" rx="3.881" ry="5.076" transform="translate(14.618 104.744)" fill="#3f3d56"/>
      <path id="Path_22" data-name="Path 22" d="M662.71,435.5a6.125,6.125,0,0,0,.807-3.1c0-2.8-1.738-5.081-3.877-5.081s-3.881,2.28-3.881,5.081a6.08,6.08,0,0,0,.812,3.1,6.34,6.34,0,0,0,0,6.207,6.34,6.34,0,0,0,0,6.207,6.08,6.08,0,0,0-.812,3.1c0,2.8,1.738,5.081,3.881,5.081s3.877-2.28,3.877-5.081a6.125,6.125,0,0,0-.807-3.1,6.385,6.385,0,0,0,0-6.207A6.385,6.385,0,0,0,662.71,435.5Z" transform="translate(-641.147 -347.405)" fill="#3f3d56"/>
      <ellipse id="Ellipse_10" data-name="Ellipse 10" cx="3.881" cy="5.076" rx="3.881" ry="5.076" transform="translate(14.618 73.712)" fill="#3f3d56"/>
      <ellipse id="Ellipse_11" data-name="Ellipse 11" cx="3.881" cy="5.076" rx="3.881" ry="5.076" transform="translate(14.618 67.504)" fill="#3f3d56"/>
      <path id="Path_23" data-name="Path 23" d="M627.7,282.208a17.783,17.783,0,0,1-1.446-2.125l10.194-1.674-11.024.082a18.627,18.627,0,0,1-.356-14.727l14.791,7.676-13.642-10.034a18.586,18.586,0,1,1,30.69,20.8,18.8,18.8,0,0,1,2.121,3.389L645.8,292.466l14.107-4.734a18.59,18.59,0,0,1-3,17.45,18.581,18.581,0,1,1-29.19,0,18.581,18.581,0,0,1,0-22.978Z" transform="translate(-623.72 -252.103)" fill="#ffd522"/>
      <path id="Path_24" data-name="Path 24" d="M660.893,342.974a18.5,18.5,0,0,1-3.977,11.489,18.581,18.581,0,1,1-29.19,0C625.227,351.3,660.893,340.89,660.893,342.974Z" transform="translate(-623.731 -301.38)" opacity="0.1"/>
    </g>
    <g id="Group_3" data-name="Group 3" transform="translate(448.583 -0.359)" opacity="0.1">
      <ellipse id="Ellipse_12" data-name="Ellipse 12" cx="5.19" cy="6.796" rx="5.19" ry="6.796" transform="translate(19.912 140.284)" fill="#3f3d56"/>
      <path id="Path_25" data-name="Path 25" d="M1080.275,407.941a8.21,8.21,0,0,1-1.085-4.155c0-3.754,2.326-6.8,5.195-6.8s5.19,3.042,5.19,6.8a8.21,8.21,0,0,1-1.086,4.155,8.488,8.488,0,0,1,0,8.305,8.488,8.488,0,0,1,0,8.305,8.182,8.182,0,0,1,1.086,4.155c0,3.749-2.326,6.8-5.19,6.8s-5.195-3.047-5.195-6.8a8.181,8.181,0,0,1,1.085-4.155,8.488,8.488,0,0,1,0-8.305A8.488,8.488,0,0,1,1080.275,407.941Z" transform="translate(-1059.282 -289.937)" fill="#3f3d56"/>
      <ellipse id="Ellipse_13" data-name="Ellipse 13" cx="5.19" cy="6.796" rx="5.19" ry="6.796" transform="translate(19.912 98.757)" fill="#3f3d56"/>
      <ellipse id="Ellipse_14" data-name="Ellipse 14" cx="5.19" cy="6.796" rx="5.19" ry="6.796" transform="translate(19.912 90.451)" fill="#3f3d56"/>
      <path id="Path_26" data-name="Path 26" d="M1080.073,202.676a24.18,24.18,0,0,0,1.934-2.846l-13.637-2.239,14.75.109a24.911,24.911,0,0,0,.456-19.7l-19.79,10.267,18.243-13.418a24.871,24.871,0,1,0-41.048,27.821,24.869,24.869,0,0,0-2.837,4.534l17.71,9.222-18.878-6.335a24.87,24.87,0,0,0,4.009,23.352,24.866,24.866,0,1,0,39.087,0,24.866,24.866,0,0,0,0-30.75Z" transform="translate(-1035.541 -162.271)" fill="#ffd522"/>
      <path id="Path_27" data-name="Path 27" d="M1035.81,284.133a24.753,24.753,0,0,0,5.323,15.375,24.866,24.866,0,1,0,39.087,0C1083.553,295.275,1035.81,281.342,1035.81,284.133Z" transform="translate(-1035.687 -228.354)" opacity="0.1"/>
    </g>
    <g id="Group_4" data-name="Group 4" transform="translate(404.897 37.876)" opacity="0.1">
      <ellipse id="Ellipse_15" data-name="Ellipse 15" cx="3.881" cy="5.076" rx="3.881" ry="5.076" transform="translate(14.802 104.744)" fill="#3f3d56"/>
      <path id="Path_28" data-name="Path 28" d="M973.037,429.5a6.126,6.126,0,0,1-.807-3.1c0-2.8,1.738-5.081,3.877-5.081s3.881,2.28,3.881,5.081a6.08,6.08,0,0,1-.812,3.1,6.34,6.34,0,0,1,0,6.207,6.34,6.34,0,0,1,0,6.207,6.08,6.08,0,0,1,.812,3.1c0,2.8-1.738,5.081-3.881,5.081s-3.877-2.28-3.877-5.081a6.126,6.126,0,0,1,.807-3.1,6.385,6.385,0,0,1,0-6.207A6.385,6.385,0,0,1,973.037,429.5Z" transform="translate(-957.419 -341.405)" fill="#3f3d56"/>
      <ellipse id="Ellipse_16" data-name="Ellipse 16" cx="3.881" cy="5.076" rx="3.881" ry="5.076" transform="translate(14.802 73.712)" fill="#3f3d56"/>
      <ellipse id="Ellipse_17" data-name="Ellipse 17" cx="3.881" cy="5.076" rx="3.881" ry="5.076" transform="translate(14.802 67.504)" fill="#3f3d56"/>
      <path id="Path_29" data-name="Path 29" d="M972.961,276.208a17.786,17.786,0,0,0,1.446-2.125l-10.194-1.674,11.024.082a18.626,18.626,0,0,0,.356-14.727L960.8,265.44l13.642-10.034a18.586,18.586,0,1,0-30.69,20.8,18.8,18.8,0,0,0-2.121,3.389l13.227,6.873-14.079-4.73a18.59,18.59,0,0,0,3,17.45,18.581,18.581,0,1,0,29.19,0,18.581,18.581,0,0,0,0-22.978Z" transform="translate(-939.757 -246.103)" fill="#ffd522"/>
      <path id="Path_30" data-name="Path 30" d="M939.789,336.974a18.5,18.5,0,0,0,3.977,11.489,18.581,18.581,0,1,0,29.19,0C975.455,345.3,939.789,334.89,939.789,336.974Z" transform="translate(-939.769 -295.38)" opacity="0.1"/>
    </g>
    <g id="Group_5" data-name="Group 5" transform="translate(3.334 -0.282)" opacity="0.1">
      <ellipse id="Ellipse_18" data-name="Ellipse 18" cx="5.19" cy="6.796" rx="5.19" ry="6.796" transform="translate(19.567 140.207)" fill="#3f3d56"/>
      <path id="Path_31" data-name="Path 31" d="M111.5,407.941a8.21,8.21,0,0,0,1.086-4.155c0-3.754-2.326-6.8-5.19-6.8s-5.19,3.042-5.19,6.8a8.21,8.21,0,0,0,1.081,4.155,8.515,8.515,0,0,0,0,8.305,8.515,8.515,0,0,0,0,8.305,8.178,8.178,0,0,0-1.081,4.155c0,3.749,2.322,6.8,5.19,6.8s5.2-3.038,5.2-6.787a8.182,8.182,0,0,0-1.085-4.155,8.488,8.488,0,0,0,0-8.305,8.488,8.488,0,0,0,0-8.305Z" transform="translate(-82.643 -290.013)" fill="#3f3d56"/>
      <ellipse id="Ellipse_19" data-name="Ellipse 19" cx="5.19" cy="6.796" rx="5.19" ry="6.796" transform="translate(19.567 98.68)" fill="#3f3d56"/>
      <ellipse id="Ellipse_20" data-name="Ellipse 20" cx="5.19" cy="6.796" rx="5.19" ry="6.796" transform="translate(19.567 90.375)" fill="#3f3d56"/>
      <path id="Path_32" data-name="Path 32" d="M64.641,202.767a24.778,24.778,0,0,1-1.934-2.846l13.642-2.239-14.764.132a24.912,24.912,0,0,1-.456-19.7l19.794,10.267L62.68,174.959a24.866,24.866,0,1,1,41.048,27.821,24.875,24.875,0,0,1,2.837,4.534l-17.715,9.2,18.882-6.335a24.9,24.9,0,0,1-4.014,23.352,24.866,24.866,0,1,1-39.087,0,24.866,24.866,0,0,1,0-30.75Z" transform="translate(-59.309 -162.439)" fill="#ffd522"/>
      <path id="Path_33" data-name="Path 33" d="M109.042,284.133a24.752,24.752,0,0,1-5.323,15.375,24.866,24.866,0,1,1-39.087,0C61.3,295.275,109.042,281.342,109.042,284.133Z" transform="translate(-59.309 -228.43)" opacity="0.1"/>
    </g>
    <g id="Group_6" data-name="Group 6" transform="translate(59.693 37.876)" opacity="0.1">
      <ellipse id="Ellipse_21" data-name="Ellipse 21" cx="3.881" cy="5.076" rx="3.881" ry="5.076" transform="translate(14.618 104.744)" fill="#3f3d56"/>
      <path id="Path_34" data-name="Path 34" d="M221.881,429.5a6.125,6.125,0,0,0,.807-3.1c0-2.8-1.733-5.081-3.877-5.081s-3.881,2.28-3.881,5.081a6.125,6.125,0,0,0,.812,3.1,6.34,6.34,0,0,0,0,6.207,6.34,6.34,0,0,0,0,6.207,6.125,6.125,0,0,0-.812,3.1c0,2.8,1.738,5.081,3.881,5.081s3.877-2.28,3.877-5.081a6.125,6.125,0,0,0-.807-3.1,6.385,6.385,0,0,0,0-6.207,6.385,6.385,0,0,0,0-6.207Z" transform="translate(-200.312 -341.405)" fill="#3f3d56"/>
      <ellipse id="Ellipse_22" data-name="Ellipse 22" cx="3.881" cy="5.076" rx="3.881" ry="5.076" transform="translate(14.618 73.712)" fill="#3f3d56"/>
      <ellipse id="Ellipse_23" data-name="Ellipse 23" cx="3.881" cy="5.076" rx="3.881" ry="5.076" transform="translate(14.618 67.505)" fill="#3f3d56"/>
      <path id="Path_35" data-name="Path 35" d="M186.857,276.208a18.339,18.339,0,0,1-1.446-2.125l10.194-1.674-11.024.082a18.627,18.627,0,0,1-.356-14.727l14.791,7.676-13.642-10.034a18.586,18.586,0,1,1,30.69,20.8,18.3,18.3,0,0,1,2.121,3.389l-13.227,6.873,14.107-4.734a18.59,18.59,0,0,1-3,17.45,18.581,18.581,0,1,1-29.19,0,18.581,18.581,0,0,1,0-22.978Z" transform="translate(-182.88 -246.103)" fill="#ffd522"/>
      <path id="Path_36" data-name="Path 36" d="M220.053,336.974a18.5,18.5,0,0,1-3.977,11.489,18.581,18.581,0,1,1-29.19,0C184.377,345.3,220.053,334.89,220.053,336.974Z" transform="translate(-182.891 -295.38)" opacity="0.1"/>
    </g>
    <ellipse id="Ellipse_24" data-name="Ellipse 24" cx="249.937" cy="4.041" rx="249.937" ry="4.041" transform="translate(0 220.676)" fill="#ffd522" opacity="0.1"/>
    <ellipse id="Ellipse_25" data-name="Ellipse 25" cx="249.937" cy="4.041" rx="249.937" ry="4.041" transform="translate(0 253.856)" fill="#ffd522" opacity="0.1"/>
    <ellipse id="Ellipse_26" data-name="Ellipse 26" cx="249.937" cy="4.041" rx="249.937" ry="4.041" transform="translate(0 151.427)" fill="#ffd522" opacity="0.1"/>
    <ellipse id="Ellipse_27" data-name="Ellipse 27" cx="249.937" cy="4.041" rx="249.937" ry="4.041" transform="translate(0 186.049)" fill="#ffd522" opacity="0.1"/>
    <path id="Path_37" data-name="Path 37" d="M830.968,259.75a8.346,8.346,0,0,0-4.835.529,7.138,7.138,0,0,1-5.811,0,8.155,8.155,0,0,0-6.841.132,4.214,4.214,0,0,1-1.966.493c-2.773,0-5.076-2.791-5.555-6.472a5.42,5.42,0,0,0,1.368-1.491,7.784,7.784,0,0,1,13.9-.05,5.327,5.327,0,0,0,4.6,2.527h.073C828.131,255.395,830.042,257.164,830.968,259.75Z" transform="translate(-462.087 -209.607)" fill="#ffd522" opacity="0.1"/>
    <path id="Path_38" data-name="Path 38" d="M839.4,235.907l-4.479,2.837,2.737-4.944a4.424,4.424,0,0,0-2.709-.962h-.073a5.177,5.177,0,0,1-.912-.068l-1.542.962.652-1.186a5.377,5.377,0,0,1-2.659-2.016l-2.737,1.724,1.715-3.12a7.948,7.948,0,0,0-6.084-3.074,8.346,8.346,0,0,0-6.969,4.3,5.2,5.2,0,0,1-4.6,2.481h-.151c-3.12,0-5.646,3.535-5.646,7.895s2.527,7.9,5.646,7.9a4.283,4.283,0,0,0,1.966-.493,8.146,8.146,0,0,1,6.841-.137,7.092,7.092,0,0,0,5.811,0,8.173,8.173,0,0,1,6.778.132,4.242,4.242,0,0,0,1.943.483c3.12,0,5.646-3.539,5.646-7.9A10,10,0,0,0,839.4,235.907Z" transform="translate(-462.076 -197.325)" fill="#ffd522" opacity="0.1"/>
    <path id="Path_39" data-name="Path 39" d="M422.4,258.316a5.856,5.856,0,0,0-3.389.369,4.981,4.981,0,0,1-4.064,0,5.692,5.692,0,0,0-4.784.1,3.019,3.019,0,0,1-1.368.342c-1.938,0-3.553-1.952-3.89-4.529a3.794,3.794,0,0,0,.971-1.044,5.45,5.45,0,0,1,9.728-.036,3.735,3.735,0,0,0,3.225,1.77h.05C420.407,255.274,421.743,256.515,422.4,258.316Z" transform="translate(-243.946 -210.64)" fill="#ffd522" opacity="0.1"/>
    <path id="Path_40" data-name="Path 40" d="M428.291,241.636l-3.133,1.989,1.9-3.462a3.079,3.079,0,0,0-1.893-.675h-.055a3.419,3.419,0,0,1-.648-.05l-1.063.675.456-.83A3.785,3.785,0,0,1,422,237.873l-1.9,1.2,1.2-2.18a5.569,5.569,0,0,0-4.26-2.157,5.834,5.834,0,0,0-4.876,3.01,3.649,3.649,0,0,1-3.225,1.738h-.1c-2.185,0-3.954,2.472-3.954,5.528s1.77,5.528,3.954,5.528a2.964,2.964,0,0,0,1.368-.347,5.7,5.7,0,0,1,4.78-.091,4.9,4.9,0,0,0,4.068.027,5.72,5.72,0,0,1,4.743.091,2.955,2.955,0,0,0,1.368.338c2.18,0,3.95-2.477,3.95-5.528A6.992,6.992,0,0,0,428.291,241.636Z" transform="translate(-243.935 -202.046)" fill="#ffd522" opacity="0.1"/>
    <path id="Path_41" data-name="Path 41" d="M321.59,336.726a5.847,5.847,0,0,1,3.384.369,4.99,4.99,0,0,0,4.068,0,5.71,5.71,0,0,1,4.784.091,2.951,2.951,0,0,0,1.368.347c1.938,0,3.553-1.957,3.886-4.534a3.717,3.717,0,0,1-.967-1.044,5.456,5.456,0,0,0-9.733-.032,3.735,3.735,0,0,1-3.22,1.77h-.05C323.574,333.7,322.233,334.938,321.59,336.726Z" transform="translate(-198.633 -253.288)" fill="#ffd522" opacity="0.1"/>
    <path id="Path_42" data-name="Path 42" d="M307.666,320.082l3.138,1.989-1.906-3.457a3.1,3.1,0,0,1,1.9-.68h.05a3.885,3.885,0,0,0,.652-.046l1.063.67-.456-.826a3.781,3.781,0,0,0,1.856-1.409l1.9,1.2-1.186-2.185a5.564,5.564,0,0,1,4.26-2.153,5.84,5.84,0,0,1,4.876,3.01,3.649,3.649,0,0,0,3.22,1.738h.109c2.18,0,3.95,2.477,3.95,5.528s-1.77,5.528-3.95,5.528a2.96,2.96,0,0,1-1.368-.342,5.692,5.692,0,0,0-4.784-.1,4.953,4.953,0,0,1-2.043.456,5.017,5.017,0,0,1-2.025-.429,5.71,5.71,0,0,0-4.739.091,2.955,2.955,0,0,1-1.368.337c-2.185,0-3.954-2.472-3.954-5.528A7.042,7.042,0,0,1,307.666,320.082Z" transform="translate(-190.62 -244.716)" fill="#ffd522" opacity="0.1"/>
    <path id="Path_43" data-name="Path 43" d="M710.207,594.974c1.19-2.208-.16-4.908-1.71-6.873s-3.448-4.014-3.407-6.517c.059-3.6,3.881-5.729,6.933-7.635a33.889,33.889,0,0,0,6.226-5.017,9.18,9.18,0,0,0,1.911-2.563,10.366,10.366,0,0,0,.575-4.561q-.2-7.7-.762-15.4" transform="translate(-407.221 -371.567)" fill="none" stroke="#3f3d56" stroke-miterlimit="10" stroke-width="4"/>
    <path id="Path_44" data-name="Path 44" d="M737.066,539.463a5.615,5.615,0,0,0-2.8-4.6L733,537.347l.041-3.01a5.614,5.614,0,1,0,4.023,5.126Z" transform="translate(-418.51 -364.876)" fill="#ffd522"/>
    <path id="Path_45" data-name="Path 45" d="M715.84,619.469a5.614,5.614,0,0,1-10.6-2.28,5.473,5.473,0,0,1,.365-2.28,5.619,5.619,0,0,1,10.49.059l-3.507,2.855,3.859-.912A5.583,5.583,0,0,1,715.84,619.469Z" transform="translate(-407.3 -406.88)" fill="#ffd522"/>
    <path id="Path_46" data-name="Path 46" d="M715.4,591.882a5.614,5.614,0,0,1-1.779-11.015l-.032,2.312,1.272-2.518h0a5.616,5.616,0,0,1,.525,11.22Z" transform="translate(-409.632 -390.194)" fill="#ffd522"/>
    <path id="Path_47" data-name="Path 47" d="M745.259,572a5.614,5.614,0,1,1,2.481-10.49l-.99,2.737,2.02-2a5.614,5.614,0,0,1-3.53,9.747Z" transform="translate(-425.859 -379.381)" fill="#ffd522"/>
    <path id="Path_48" data-name="Path 48" d="M736.3,544.632c-1.3.141-2.554.543-3.859.625a4.175,4.175,0,0,1-3.548-1.241,18.018,18.018,0,0,1-1.04-1.824,4,4,0,0,0-1.414-1.332,5.614,5.614,0,1,0,10.49,3.731C736.723,544.6,736.508,544.609,736.3,544.632Z" transform="translate(-418.5 -368.548)" opacity="0.1"/>
    <path id="Path_49" data-name="Path 49" d="M745.288,575.829a5.615,5.615,0,0,1-5.341-8.009,4.156,4.156,0,0,1,1.127,1.131,19.027,19.027,0,0,0,1.113,1.856,4.58,4.58,0,0,0,3.726,1.3c1.355-.068,2.664-.456,4.014-.57.187,0,.374-.027.565-.032a5.614,5.614,0,0,1-5.2,4.324Z" transform="translate(-425.888 -383.212)" opacity="0.1"/>
    <path id="Path_50" data-name="Path 50" d="M715.4,595.844a5.614,5.614,0,0,1-5.386-7.9,4.561,4.561,0,0,1,1.19,1.14,18.806,18.806,0,0,0,1.218,1.893,5.084,5.084,0,0,0,3.973,1.368c1.432-.059,2.737-.369,4.1-.456A5.624,5.624,0,0,1,715.4,595.844Z" transform="translate(-409.634 -394.156)" opacity="0.1"/>
    <path id="Path_51" data-name="Path 51" d="M715.84,623.731a5.614,5.614,0,0,1-10.6-2.28,5.473,5.473,0,0,1,.365-2.28,5.605,5.605,0,0,1,1.232,1.1c.534.648.885,1.368,1.505,1.993a7.016,7.016,0,0,0,4.648,1.633A23.59,23.59,0,0,0,715.84,623.731Z" transform="translate(-407.3 -411.142)" opacity="0.1"/>
    <path id="Path_52" data-name="Path 52" d="M100.207,522.974c1.19-2.207-.16-4.908-1.71-6.873s-3.448-4.023-3.407-6.517c.059-3.6,3.881-5.729,6.933-7.635a33.888,33.888,0,0,0,6.226-5.017,9.182,9.182,0,0,0,1.911-2.563,10.367,10.367,0,0,0,.575-4.561q-.2-7.7-.762-15.4" transform="translate(-75.436 -332.405)" fill="none" stroke="#3f3d56" stroke-miterlimit="10" stroke-width="4"/>
    <path id="Path_53" data-name="Path 53" d="M127.066,467.463a5.614,5.614,0,0,0-2.8-4.6L123,465.347l.041-3.01a5.614,5.614,0,1,0,4.023,5.126Z" transform="translate(-86.725 -325.714)" fill="#ffd522"/>
    <path id="Path_54" data-name="Path 54" d="M105.84,547.469a5.614,5.614,0,0,1-10.6-2.28,5.473,5.473,0,0,1,.365-2.28,5.619,5.619,0,0,1,10.49.059l-3.507,2.855,3.859-.912a5.583,5.583,0,0,1-.607,2.559Z" transform="translate(-75.515 -367.718)" fill="#ffd522"/>
    <path id="Path_55" data-name="Path 55" d="M105.4,519.882a5.614,5.614,0,0,1-1.779-11.015l-.032,2.312,1.272-2.518h0a5.616,5.616,0,1,1,.525,11.22Z" transform="translate(-77.846 -351.032)" fill="#ffd522"/>
    <path id="Path_56" data-name="Path 56" d="M135.259,500a5.614,5.614,0,1,1,2.481-10.49l-.99,2.737,2.02-2a5.614,5.614,0,0,1-3.53,9.747Z" transform="translate(-94.074 -340.219)" fill="#ffd522"/>
    <path id="Path_57" data-name="Path 57" d="M126.3,472.632c-1.3.141-2.554.543-3.859.625a4.175,4.175,0,0,1-3.548-1.241,18.008,18.008,0,0,1-1.04-1.824,4,4,0,0,0-1.414-1.332,5.614,5.614,0,1,0,10.49,3.731C126.723,472.6,126.508,472.609,126.3,472.632Z" transform="translate(-86.715 -329.387)" opacity="0.1"/>
    <path id="Path_58" data-name="Path 58" d="M135.288,503.829a5.614,5.614,0,0,1-5.341-8.009,4.155,4.155,0,0,1,1.127,1.131,19.025,19.025,0,0,0,1.113,1.856,4.58,4.58,0,0,0,3.726,1.3c1.355-.068,2.664-.456,4.014-.57.187,0,.374-.027.566-.032A5.614,5.614,0,0,1,135.288,503.829Z" transform="translate(-94.103 -344.051)" opacity="0.1"/>
    <path id="Path_59" data-name="Path 59" d="M105.4,523.844a5.614,5.614,0,0,1-5.386-7.9,4.561,4.561,0,0,1,1.19,1.14,18.809,18.809,0,0,0,1.218,1.893,5.084,5.084,0,0,0,3.973,1.368c1.432-.059,2.737-.369,4.1-.456A5.624,5.624,0,0,1,105.4,523.844Z" transform="translate(-77.849 -354.994)" opacity="0.1"/>
    <path id="Path_60" data-name="Path 60" d="M105.84,551.731a5.614,5.614,0,0,1-10.6-2.28,5.473,5.473,0,0,1,.365-2.28,5.605,5.605,0,0,1,1.231,1.1c.534.648.885,1.368,1.505,1.993a7.016,7.016,0,0,0,4.648,1.633A23.578,23.578,0,0,0,105.84,551.731Z" transform="translate(-75.515 -371.98)" opacity="0.1"/>
    <path id="Path_61" data-name="Path 61" d="M499.949,440.615c-1.19-2.2.16-4.9,1.715-6.869s3.443-4.014,3.4-6.518c-.055-3.6-3.877-5.728-6.933-7.635a33.753,33.753,0,0,1-6.221-5.017A9.022,9.022,0,0,1,490,412.018a10.51,10.51,0,0,1-.575-4.561q.205-7.7.762-15.4" transform="translate(-289.91 -287.614)" fill="none" stroke="#3f3d56" stroke-miterlimit="10" stroke-width="4"/>
    <path id="Path_62" data-name="Path 62" d="M478.383,385.1a5.61,5.61,0,0,1,2.8-4.6l1.259,2.486-.036-3.01a5.756,5.756,0,0,1,1.847-.223,5.614,5.614,0,1,1-5.87,5.35Z" transform="translate(-283.911 -280.918)" fill="#ffd522"/>
    <path id="Path_63" data-name="Path 63" d="M499.6,465.055a5.615,5.615,0,1,0-.269-4.52l3.507,2.855-3.859-.912A5.583,5.583,0,0,0,499.6,465.055Z" transform="translate(-295.117 -322.868)" fill="#ffd522"/>
    <path id="Path_64" data-name="Path 64" d="M500.037,437.522a5.614,5.614,0,0,0,1.783-11.015l.027,2.312-1.273-2.518h0a5.614,5.614,0,0,0-5.884,5.332,5.546,5.546,0,0,0,.242,1.916,5.61,5.61,0,0,0,5.1,3.973Z" transform="translate(-292.781 -306.235)" fill="#ffd522"/>
    <path id="Path_65" data-name="Path 65" d="M470.14,417.618a5.614,5.614,0,1,0-2.486-10.49l.994,2.737-2.043-1.957a5.569,5.569,0,0,0-1.824,3.877,5.431,5.431,0,0,0,.141,1.546,5.61,5.61,0,0,0,5.218,4.287Z" transform="translate(-276.512 -295.412)" fill="#ffd522"/>
    <path id="Path_66" data-name="Path 66" d="M479.3,390.272c1.3.141,2.554.543,3.854.625a4.194,4.194,0,0,0,3.553-1.241,17.975,17.975,0,0,0,1.035-1.824,4.009,4.009,0,0,1,1.418-1.332,5.614,5.614,0,1,1-10.49,3.726C478.875,390.231,479.085,390.249,479.3,390.272Z" transform="translate(-284.07 -284.59)" opacity="0.1"/>
    <path id="Path_67" data-name="Path 67" d="M470.334,421.449a5.619,5.619,0,0,0,5.341-8.009,4.174,4.174,0,0,0-1.131,1.131,19.022,19.022,0,0,1-1.113,1.856,4.565,4.565,0,0,1-3.722,1.3c-1.355-.068-2.664-.456-4.014-.57-.187,0-.379-.027-.566-.032a5.61,5.61,0,0,0,5.2,4.324Z" transform="translate(-276.706 -299.243)" opacity="0.1"/>
    <path id="Path_68" data-name="Path 68" d="M500.339,441.484a5.61,5.61,0,0,0,5.386-7.9,4.484,4.484,0,0,0-1.186,1.14,18.805,18.805,0,0,1-1.218,1.893,5.094,5.094,0,0,1-3.977,1.368c-1.437-.059-2.737-.369-4.1-.456a5.61,5.61,0,0,0,5.1,3.959Z" transform="translate(-293.083 -310.198)" opacity="0.1"/>
    <path id="Path_69" data-name="Path 69" d="M500.34,469.371a5.614,5.614,0,0,0,10.239-4.561,5.393,5.393,0,0,0-1.232,1.1c-.534.648-.912,1.368-1.505,1.993a7.028,7.028,0,0,1-4.652,1.633A24.607,24.607,0,0,1,500.34,469.371Z" transform="translate(-295.857 -327.184)" opacity="0.1"/>
    <circle id="Ellipse_28" data-name="Ellipse 28" cx="45.591" cy="45.591" r="45.591" transform="translate(310.036 62.846)" fill="#3f3d56"/>
    <path id="Path_70" data-name="Path 70" d="M826.52,387.787a34.541,34.541,0,0,0-7.3-4.876c-2.185-1.049-2.987-1.031-4.534.087-1.286.912-2.121,1.792-3.6,1.469s-4.406-2.531-7.238-5.354-5.031-5.733-5.345-7.234.552-2.317,1.473-3.6c1.113-1.546,1.145-2.349.087-4.534a34.977,34.977,0,0,0-4.88-7.3c-1.6-1.6-1.947-1.245-2.823-.912a16.333,16.333,0,0,0-2.586,1.368,7.8,7.8,0,0,0-3.1,3.279c-.625,1.332-1.332,3.8,2.3,10.276a57.327,57.327,0,0,0,10.08,13.441h0a57.413,57.413,0,0,0,13.487,10.1c6.467,3.649,8.944,2.924,10.276,2.3a7.656,7.656,0,0,0,3.275-3.1,16.106,16.106,0,0,0,1.368-2.586C827.765,389.734,828.121,389.378,826.52,387.787Z" transform="translate(-451.322 -267.592)" fill="#ffd522"/>
    <path id="Path_71" data-name="Path 71" d="M777.312,300.86A45.609,45.609,0,1,0,822.9,346.454,45.609,45.609,0,0,0,777.312,300.86Zm0,85.116a39.529,39.529,0,1,1,39.529-39.529,39.529,39.529,0,0,1-39.529,39.529Z" transform="translate(-421.685 -238.01)" opacity="0.1"/>
    <circle id="Ellipse_29" data-name="Ellipse 29" cx="45.591" cy="45.591" r="45.591" transform="translate(205.295 132.094)" fill="#3f3d56"/>
    <path id="Path_72" data-name="Path 72" d="M596.549,522.325,582.9,536.212a.246.246,0,0,0,0,.356l9.578,10.185a1.648,1.648,0,1,1-2.331,2.331l-9.528-10.148a.26.26,0,0,0-.365,0l-2.322,2.344a10.2,10.2,0,0,1-7.3,3.069,10.426,10.426,0,0,1-7.425-3.156l-2.23-2.281a.26.26,0,0,0-.365,0l-9.5,10.125a1.648,1.648,0,1,1-2.331-2.331l9.541-10.162a.274.274,0,0,0,0-.356L544.669,522.3a.251.251,0,0,0-.429.178v27.79a4.068,4.068,0,0,0,4.055,4.055h44.638a4.068,4.068,0,0,0,4.055-4.055V522.5a.251.251,0,0,0-.438-.178Z" transform="translate(-319.734 -358.414)" fill="#ffd522"/>
    <path id="Path_73" data-name="Path 73" d="M572.475,535.831a6.9,6.9,0,0,0,4.98-2.052l19.881-20.237a3.968,3.968,0,0,0-2.508-.912H550.159a3.941,3.941,0,0,0-2.509.912l19.885,20.237A6.878,6.878,0,0,0,572.475,535.831Z" transform="translate(-321.589 -353.194)" fill="#ffd522"/>
    <path id="Path_74" data-name="Path 74" d="M546.4,452.69a45.609,45.609,0,1,0,45.586,45.594A45.609,45.609,0,0,0,546.4,452.69Zm0,85.116a39.529,39.529,0,1,1,39.529-39.529A39.529,39.529,0,0,1,546.4,537.806Z" transform="translate(-296.091 -320.592)" opacity="0.1"/>
    <circle id="Ellipse_30" data-name="Ellipse 30" cx="45.591" cy="45.591" r="45.591" transform="translate(97.097 98.047)" fill="#3f3d56"/>
    <path id="Path_75" data-name="Path 75" d="M343.175,430.16,325,472.093l1.7,1.7,16.483-7.27,16.483,7.27,1.7-1.7Z" transform="translate(-200.487 -308.337)" fill="#ffd522"/>
    <path id="Path_76" data-name="Path 76" d="M310.432,378a45.582,45.582,0,1,0,.008,0Zm0,85.116a32.541,32.541,0,1,1,0,.018Z" transform="translate(-167.744 -279.967)" opacity="0.1"/>
    <path id="Path_77" data-name="Path 77" d="M814.967,580.263q-.62-1.514-1.272-3.019a8.96,8.96,0,0,0-1.555-2.686,2.844,2.844,0,0,0-.912-.684,3.89,3.89,0,0,0-1.19-.237,9.5,9.5,0,0,0-1.87-.05c-.242-.073-.515-.169-.784-.278a6.513,6.513,0,0,0,4.853-6.043c0-.091,0-.187,0-.278a6.5,6.5,0,0,0-6.472-6.527,6.385,6.385,0,0,0-3.4.971,6.1,6.1,0,0,0-6.841,3.3,7.539,7.539,0,0,0-2.326,5.61c0,.1,0,.2,0,.287.119,3.544,2.408,6.385,5.3,6.673a3.039,3.039,0,0,0-.839.561,5.191,5.191,0,0,0-1.126,3.439l-.068.912-1.532.547a.283.283,0,0,0-.068.5l1.464,1.044v.26a1.141,1.141,0,0,0,.027.3,2.093,2.093,0,0,0-.565.807,3.727,3.727,0,0,0-.132,1.478l.055,1.273a9.992,9.992,0,0,0,.388,2.832c.192.566,1.022,1.929,1.619,1.938a59,59,0,0,0-.7,7.8c-.068.068.123.132.456.187.328,2.518,1.4,9.578,3.3,12.684a26.755,26.755,0,0,1,.716,3.083s.543,6.709,1.259,8.7a44.3,44.3,0,0,1,1.227,7.1.7.7,0,0,0-.506.52c-.36,1.086-2.7,2.737-2.7,2.737a11.287,11.287,0,0,0-2.016,1.291c-.734.661-.707,1.259,2.554.885,6.294-.725,7.37-2.737,7.37-2.737s-.1-.337-.251-.775a8.416,8.416,0,0,0-.826-1.948c-.091-.087-.182.059-.292.287a39.056,39.056,0,0,1-.429-8.807,14.29,14.29,0,0,0-.721-5.259,9.956,9.956,0,0,1,0-3.443c.36-1.45-1.437-8.524-1.437-8.524l-1.031-5.209a1.5,1.5,0,0,1,.287.607l.027.1.027.151a.283.283,0,0,0,.073.141c.7,2.919,2.627,11.005,2.627,12.191,0,1.45,1.8,5.076,1.8,5.076s.716,5.984,1.975,8.337a12.087,12.087,0,0,1,.935,5.578h0a5.167,5.167,0,0,1-.575,1.852,4.4,4.4,0,0,0-.68,1.181l-.041.087s-.538,1.09-.178,1.273a8.834,8.834,0,0,0,4.315.543s.721-.912.721-1.268a5.72,5.72,0,0,0-.082-.648c-.132-.857-.379-2.207-.383-2.221a6.225,6.225,0,0,0-.456-2.207l-.182-5.076A23.432,23.432,0,0,0,812.65,617.3s-.912-3.261-.716-4.169-.36-10.517-.36-10.517l-.055-.137a10.388,10.388,0,0,1,.055-2.039,27.082,27.082,0,0,0-.721-6.887,5.976,5.976,0,0,1-.255-1.5c.041-.379.164-1.487.333-2.864a51.477,51.477,0,0,0,5.3-.456.661.661,0,0,0,.456-.182.638.638,0,0,0,.1-.369C817,585.445,816,582.79,814.967,580.263Zm-3.617,5.751c.187-1.3.388-2.559.588-3.494l.027.082a25.367,25.367,0,0,1,.867,2.873A9.768,9.768,0,0,1,811.35,586.015Z" transform="translate(-455.144 -379.209)" fill="url(#linear-gradient)"/>
    <path id="Path_78" data-name="Path 78" d="M802.37,648.256s1.076,9.683,3.407,13.445a26.086,26.086,0,0,1,.716,3.047s.538,6.631,1.254,8.6A47.457,47.457,0,0,1,809,680.7s2.508,2.864,3.407.538a37.77,37.77,0,0,1-.538-9.322,14.041,14.041,0,0,0-.716-5.2,9.724,9.724,0,0,1,0-3.4c.356-1.437-1.437-8.424-1.437-8.424l-1.432-6.992Z" transform="translate(-460.134 -426.768)" fill="#be6f72"/>
    <path id="Path_79" data-name="Path 79" d="M814.866,721.689s-1.076,1.97-7.348,2.686c-3.256.369-3.279-.219-2.545-.876a11.349,11.349,0,0,1,2.007-1.277s2.331-1.61,2.686-2.686,1.615-.178,1.615-.178c1.792,2.686,2.153-.721,2.508-.36a8.09,8.09,0,0,1,.826,1.92C814.766,721.351,814.866,721.689,814.866,721.689Z" transform="translate(-461.337 -465.424)" fill="#ffe582"/>
    <path id="Path_80" data-name="Path 80" d="M814.866,724.011s-1.076,1.97-7.348,2.686c-3.256.37-3.279-.219-2.545-.876.511.324,1.542.456,3.617-.379,2.987-1.222,5.154-1.929,6.025-2.2C814.766,723.673,814.866,724.011,814.866,724.011Z" transform="translate(-461.337 -467.747)" opacity="0.1"/>
    <path id="Path_81" data-name="Path 81" d="M817.445,671.918a14.042,14.042,0,0,0-.716-5.2,9.719,9.719,0,0,1,0-3.4c.356-1.437-1.437-8.424-1.437-8.424l-1.432-6.992-1.241.073,1.418,6.919s1.792,6.987,1.437,8.424a9.718,9.718,0,0,0,0,3.4,13.631,13.631,0,0,1,.716,5.2,37.764,37.764,0,0,0,.538,9.323,1.57,1.57,0,0,1-.52.739,1.172,1.172,0,0,0,1.774-.739A37.77,37.77,0,0,1,817.445,671.918Z" transform="translate(-465.709 -426.768)" opacity="0.1"/>
    <path id="Path_82" data-name="Path 82" d="M805.675,562.42a6.386,6.386,0,0,0-3.384.962,6.089,6.089,0,0,0-6.841,3.261,7.425,7.425,0,0,0-2.322,5.546c0,3.813,2.568,6.9,5.733,6.9a5.789,5.789,0,0,0,5.195-3.973,6.3,6.3,0,0,0,1.615.21,6.454,6.454,0,0,0,0-12.907Z" transform="translate(-455.106 -380.275)" fill="#3f3d56"/>
    <path id="Path_83" data-name="Path 83" d="M823.657,650.65l.538,1.432s.538,9.5.356,10.4.721,4.1.721,4.1a22.946,22.946,0,0,1,1.254,10.034l.178,5.017s.716,1.97.36,2.331-3.06-.319-3.06-.319.36-3.763-.912-6.093-1.97-8.246-1.97-8.246-1.792-3.585-1.792-5.017-2.869-13.085-2.869-13.085Z" transform="translate(-467.797 -428.264)" fill="#be6f72"/>
    <path id="Path_84" data-name="Path 84" d="M801.564,636.8s.182-6.454.912-8.424a13.374,13.374,0,0,0,.8-2.86s10.85,1.961,11.749,1.245a15.568,15.568,0,0,0,.36,2.686,25.774,25.774,0,0,1,.716,6.814c-.2,2.153,0,2.148,0,2.148s-7.352,1.076-7.53,0-.716-1.072-.716-1.072S801.208,637.141,801.564,636.8Z" transform="translate(-459.688 -414.596)" fill="#3f3d56"/>
    <g id="Group_7" data-name="Group 7" transform="translate(341.876 212.169)" opacity="0.1">
      <path id="Path_85" data-name="Path 85" d="M807.5,649.819s-4.534-.123-5.9-.369v.369c-.356.356,6.276.538,6.276.538a.455.455,0,0,1,.246.1C807.874,649.819,807.5,649.819,807.5,649.819Z" transform="translate(-801.58 -639.781)"/>
      <path id="Path_86" data-name="Path 86" d="M823.659,630.936a15.568,15.568,0,0,1-.36-2.686.771.771,0,0,1-.306.109,9.063,9.063,0,0,0,.306,2.039,28.474,28.474,0,0,1,.716,6.814c-.2,2.153,0,2.148,0,2.148s-5.815.853-7.224.283a2.16,2.16,0,0,0,.055.255c.178,1.076,7.53,0,7.53,0s-.182,0,0-2.148A26.64,26.64,0,0,0,823.659,630.936Z" transform="translate(-809.853 -628.25)"/>
      <path id="Path_87" data-name="Path 87" d="M807.5,649.819s-4.534-.123-5.9-.369v.369c-.356.356,6.276.538,6.276.538a.455.455,0,0,1,.246.1C807.874,649.819,807.5,649.819,807.5,649.819Z" transform="translate(-801.58 -639.781)"/>
      <path id="Path_88" data-name="Path 88" d="M823.659,630.936a15.568,15.568,0,0,1-.36-2.686.771.771,0,0,1-.306.109,9.063,9.063,0,0,0,.306,2.039,28.474,28.474,0,0,1,.716,6.814c-.2,2.153,0,2.148,0,2.148s-5.815.853-7.224.283a2.16,2.16,0,0,0,.055.255c.178,1.076,7.53,0,7.53,0s-.182,0,0-2.148A26.64,26.64,0,0,0,823.659,630.936Z" transform="translate(-809.853 -628.25)"/>
    </g>
    <path id="Path_89" data-name="Path 89" d="M814.3,584.982a2.376,2.376,0,0,0,.684.885,1.532,1.532,0,0,0,.643.278c-.4.233-.839.406-1.241.639a22.081,22.081,0,0,0-1.824,1.368,3.712,3.712,0,0,1-2.094.812,2.563,2.563,0,0,0,.292-2.55,2.381,2.381,0,0,1-.319-.885,1.59,1.59,0,0,1,.88-1.186c.342-.233.693-.456,1.049-.68.278-.173.7-.538,1.049-.524s.392.324.456.643A5.057,5.057,0,0,0,814.3,584.982Z" transform="translate(-464.523 -391.544)" fill="#be6f72"/>
    <path id="Path_90" data-name="Path 90" d="M814.3,584.982a2.376,2.376,0,0,0,.684.885,1.532,1.532,0,0,0,.643.278c-.4.233-.839.406-1.241.639a22.081,22.081,0,0,0-1.824,1.368,3.712,3.712,0,0,1-2.094.812,2.563,2.563,0,0,0,.292-2.55,2.381,2.381,0,0,1-.319-.885,1.59,1.59,0,0,1,.88-1.186c.342-.233.693-.456,1.049-.68.278-.173.7-.538,1.049-.524s.392.324.456.643A5.057,5.057,0,0,0,814.3,584.982Z" transform="translate(-464.523 -391.544)" opacity="0.1"/>
    <circle id="Ellipse_31" data-name="Ellipse 31" cx="4.123" cy="4.123" r="4.123" transform="translate(349.853 195.768)" fill="#be6f72"/>
    <path id="Path_91" data-name="Path 91" d="M834.749,724.555c0,.36-.716,1.254-.716,1.254a8.876,8.876,0,0,1-4.3-.538c-.36-.178.178-1.254.178-1.254l.041-.087a4.352,4.352,0,0,1,.68-1.168,5.1,5.1,0,0,0,.57-1.824c1.113-1.824,3.088.789,3.088.789s.251,1.368.383,2.2A6.244,6.244,0,0,1,834.749,724.555Z" transform="translate(-474.949 -466.143)" fill="#ffe582"/>
    <path id="Path_92" data-name="Path 92" d="M834.749,728.879c0,.36-.716,1.254-.716,1.254a8.875,8.875,0,0,1-4.3-.538c-.36-.178.178-1.254.178-1.254l.041-.087a8.667,8.667,0,0,0,3.9.8l.816-.816C834.717,728.546,834.749,728.787,834.749,728.879Z" transform="translate(-474.949 -470.466)" opacity="0.1"/>
    <circle id="Ellipse_32" data-name="Ellipse 32" cx="4.032" cy="4.032" r="4.032" transform="translate(341.698 187.253)" fill="#be6f72"/>
    <path id="Path_93" data-name="Path 93" d="M801.343,598.854a5.062,5.062,0,0,0-1.122,3.4l-.137,1.783a8.992,8.992,0,0,0-.032,1.446c0,.3.073.6.1.912s.036.712.041,1.072V610.1a3.109,3.109,0,0,0,.292,1.583,1.076,1.076,0,0,0,1.368.493,1.56,1.56,0,0,0,.565-.876,13.612,13.612,0,0,0,.912-3.339c.036-.4.041-.794.078-1.19s.1-.812.164-1.213c.255-1.678.369-3.375.484-5.067.032-.5.483-2.477-.173-2.7-.319-.1-.981.224-1.286.333A3.621,3.621,0,0,0,801.343,598.854Z" transform="translate(-458.865 -399.505)" fill="#be6f72"/>
    <path id="Path_94" data-name="Path 94" d="M801.343,598.854a5.062,5.062,0,0,0-1.122,3.4l-.137,1.783a8.992,8.992,0,0,0-.032,1.446c0,.3.073.6.1.912s.036.712.041,1.072V610.1a3.109,3.109,0,0,0,.292,1.583,1.076,1.076,0,0,0,1.368.493,1.56,1.56,0,0,0,.565-.876,13.612,13.612,0,0,0,.912-3.339c.036-.4.041-.794.078-1.19s.1-.812.164-1.213c.255-1.678.369-3.375.484-5.067.032-.5.483-2.477-.173-2.7-.319-.1-.981.224-1.286.333A3.621,3.621,0,0,0,801.343,598.854Z" transform="translate(-458.865 -399.505)" opacity="0.1"/>
    <path id="Path_95" data-name="Path 95" d="M812.114,588.16a22.107,22.107,0,0,1-4.839,2.869s-1.063,1.213-1.245,1.505-.547,3.512-.912,4.233a3.425,3.425,0,0,0,0,3.941,6.833,6.833,0,0,1,.178,2.153c-.178.538-.83,2.508-.237,2.6s2.39,1.341,4,.985,7.621,1.368,7.621,1.368.994-9.236,1.715-10.869l-1.615-.538s-4.479-2.686-1.792-6.809C814.983,589.6,812.465,589.058,812.114,588.16Z" transform="translate(-461.276 -394.275)" fill="#ffe582"/>
    <path id="Path_96" data-name="Path 96" d="M796.7,610.445l3.7,2.623a.274.274,0,0,0,.324,0l1-.753a.283.283,0,0,0,0-.429l-2.851-2.531a.274.274,0,0,0-.278-.055l-1.829.657a.278.278,0,0,0-.073.488Z" transform="translate(-456.989 -405.764)" fill="#3f3d56"/>
    <path id="Path_97" data-name="Path 97" d="M799.015,620.734a9.927,9.927,0,0,1-.388-2.8l-.055-1.263a3.648,3.648,0,0,1,.132-1.46,2.385,2.385,0,0,1,1.537-1.345,5.307,5.307,0,0,1,2.093-.151.538.538,0,0,1,.269.073.5.5,0,0,1,.146.246,1.651,1.651,0,0,1,.082,1.318,1.367,1.367,0,0,1-.42.433c-.5.356-1.076.593-1.546.981a.56.56,0,0,0-.21.265.616.616,0,0,0,0,.287,4.6,4.6,0,0,0,.237.734.725.725,0,0,0,.205.31c.087.073.2.1.292.169.2.16.607.369.584.62a20.448,20.448,0,0,1-.83,2.837C800.735,623.757,799.28,621.5,799.015,620.734Z" transform="translate(-458.056 -408.154)" fill="#be6f72"/>
    <g id="Group_8" data-name="Group 8" transform="translate(346.619 202.4)" opacity="0.1">
      <path id="Path_98" data-name="Path 98" d="M812.08,628.2h-.1a3.07,3.07,0,0,0,1.172,0h.114a4.1,4.1,0,0,0-1.186,0Z" transform="translate(-811.98 -618.429)"/>
      <path id="Path_99" data-name="Path 99" d="M830.731,606.83c-.643,1.446-1.592,9.277-1.76,10.832.629.164,1.044.283,1.044.283s.985-9.213,1.706-10.846Z" transform="translate(-821.221 -606.83)"/>
    </g>
    <path id="Path_100" data-name="Path 100" d="M819.439,595.746a1.368,1.368,0,0,0,.588.889,7.9,7.9,0,0,1,1.044,1.058,7.494,7.494,0,0,1,1.035,2.075,25.43,25.43,0,0,1,.862,2.837c-2.28,1.058-4.871,1.008-7.3,1.706a5.824,5.824,0,0,0-2.737,1.619,3.772,3.772,0,0,0-1.008,2.969.388.388,0,0,0,.055.178.383.383,0,0,0,.319.128,2.736,2.736,0,0,0,1.674-.575,7.968,7.968,0,0,0,1.282-1.259,2.062,2.062,0,0,1,.912-.675,14.93,14.93,0,0,1,4.1-.4,51.718,51.718,0,0,0,6.116-.483.493.493,0,0,0,.547-.547c.2-2.691-.8-5.318-1.824-7.813q-.616-1.5-1.268-2.987a8.849,8.849,0,0,0-1.551-2.654,2.737,2.737,0,0,0-.912-.675,3.859,3.859,0,0,0-1.222-.228,8.667,8.667,0,0,0-2-.036,4.266,4.266,0,0,0-.192,1.035,8.971,8.971,0,0,0,1.1,3.5C819.138,595.573,819.334,595.582,819.439,595.746Z" transform="translate(-465.321 -395.727)" fill="#be6f72"/>
    <path id="Path_101" data-name="Path 101" d="M811.866,606.67a3.343,3.343,0,0,0-.456,1.742,2.348,2.348,0,0,0,.114.712,2.308,2.308,0,0,0,1.455,1.368" transform="translate(-465.05 -404.343)" fill="none" stroke="#000" stroke-miterlimit="10" stroke-width="1" opacity="0.1"/>
    <path id="Path_102" data-name="Path 102" d="M807.655,572.107a2.1,2.1,0,0,0-.661.1,4.373,4.373,0,0,0-3.649-1.542c-2.18,0-3.945,1.127-3.945,2.513s1.765,2.508,3.945,2.508a5.55,5.55,0,0,0,2.367-.5,2.148,2.148,0,1,0,1.934-3.083Z" transform="translate(-458.518 -384.762)" fill="#3f3d56"/>
    <path id="Path_103" data-name="Path 103" d="M807.822,577.925a2.144,2.144,0,0,1-1.934-1.218,5.551,5.551,0,0,1-2.367.5c-2.176,0-3.941-1.122-3.941-2.508a1.51,1.51,0,0,1,0-.251,1.7,1.7,0,0,0-.2.789c0,1.368,1.765,2.508,3.945,2.508a5.551,5.551,0,0,0,2.367-.5,2.148,2.148,0,0,0,4.045-.534,2.139,2.139,0,0,1-1.916,1.213Z" transform="translate(-458.508 -386.818)" opacity="0.1"/>
    <path id="Path_104" data-name="Path 104" d="M795.432,567.7a6.089,6.089,0,0,1,6.841-3.261,6.449,6.449,0,0,1,9.815,4.953v-.538a6.449,6.449,0,0,0-9.838-5.473,6.089,6.089,0,0,0-6.841,3.261,7.425,7.425,0,0,0-2.322,5.546v.538A7.3,7.3,0,0,1,795.432,567.7Z" transform="translate(-455.085 -380.275)" opacity="0.1"/>
    <path id="Path_105" data-name="Path 105" d="M882.287,519.09c1.19-2.2-.16-4.908-1.715-6.873s-3.443-4.009-3.4-6.518c.055-3.6,3.877-5.724,6.932-7.635a33.708,33.708,0,0,0,6.221-5.017,9.09,9.09,0,0,0,1.916-2.559,10.51,10.51,0,0,0,.575-4.561q-.2-7.708-.762-15.4" transform="translate(-500.818 -330.295)" fill="none" stroke="#3f3d56" stroke-miterlimit="10" stroke-width="4"/>
    <path id="Path_106" data-name="Path 106" d="M909.136,463.547a5.605,5.605,0,0,0-2.8-4.6l-1.259,2.486.036-3.01a5.509,5.509,0,0,0-1.847-.224,5.614,5.614,0,1,0,5.87,5.345Z" transform="translate(-512.101 -323.586)" fill="#ffd522"/>
    <path id="Path_107" data-name="Path 107" d="M887.92,543.5a5.614,5.614,0,1,1,.269-4.524l-3.507,2.855,3.859-.912A5.583,5.583,0,0,1,887.92,543.5Z" transform="translate(-500.896 -365.535)" fill="#ffd522"/>
    <path id="Path_108" data-name="Path 108" d="M887.472,515.968a5.614,5.614,0,0,1-1.783-11.015l-.027,2.312,1.272-2.513h0a5.616,5.616,0,1,1,.525,11.22Z" transform="translate(-503.221 -348.906)" fill="#ffd522"/>
    <path id="Path_109" data-name="Path 109" d="M917.334,496.088a5.614,5.614,0,1,1,2.486-10.49l-.994,2.737,2.043-1.961a5.583,5.583,0,0,1,1.824,3.877,5.414,5.414,0,0,1-.141,1.546A5.614,5.614,0,0,1,917.334,496.088Z" transform="translate(-519.455 -338.092)" fill="#ffd522"/>
    <path id="Path_110" data-name="Path 110" d="M908.376,468.712c-1.3.146-2.559.547-3.859.629a4.183,4.183,0,0,1-3.553-1.245,17.427,17.427,0,0,1-1.035-1.824,4.037,4.037,0,0,0-1.414-1.332,5.614,5.614,0,1,0,10.49,3.726C908.8,468.675,908.586,468.689,908.376,468.712Z" transform="translate(-512.094 -327.255)" opacity="0.1"/>
    <path id="Path_111" data-name="Path 111" d="M917.361,499.919a5.619,5.619,0,0,1-5.341-8.009,4.155,4.155,0,0,1,1.131,1.127,17.976,17.976,0,0,0,1.113,1.856,4.568,4.568,0,0,0,3.722,1.3c1.354-.064,2.664-.456,4.014-.57.187,0,.379-.032.566-.036A5.615,5.615,0,0,1,917.361,499.919Z" transform="translate(-519.482 -341.924)" opacity="0.1"/>
    <path id="Path_112" data-name="Path 112" d="M887.473,519.913A5.61,5.61,0,0,1,882.086,512a4.628,4.628,0,0,1,1.186,1.14c.456.616.707,1.327,1.218,1.893a5.2,5.2,0,0,0,3.977,1.4c1.437-.032,2.737-.374,4.1-.479A5.614,5.614,0,0,1,887.473,519.913Z" transform="translate(-503.222 -352.851)" opacity="0.1"/>
    <path id="Path_113" data-name="Path 113" d="M887.958,547.821a5.619,5.619,0,0,1-10.239-4.561,5.5,5.5,0,0,1,1.231,1.1c.538.652.889,1.368,1.505,2a7.052,7.052,0,0,0,4.652,1.633A24.607,24.607,0,0,0,887.958,547.821Z" transform="translate(-500.934 -369.854)" opacity="0.1"/>
    <path id="Path_114" data-name="Path 114" d="M1041.287,671.09c1.19-2.2-.16-4.908-1.715-6.873s-3.444-4.009-3.4-6.518c.055-3.6,3.877-5.724,6.933-7.635a33.7,33.7,0,0,0,6.221-5.017,9.092,9.092,0,0,0,1.916-2.559,10.509,10.509,0,0,0,.574-4.561q-.2-7.708-.761-15.4" transform="translate(-587.299 -412.969)" fill="none" stroke="#3f3d56" stroke-miterlimit="10" stroke-width="4"/>
    <path id="Path_115" data-name="Path 115" d="M1068.163,615.549a5.605,5.605,0,0,0-2.8-4.6l-1.259,2.486.036-3.01a5.509,5.509,0,0,0-1.824-.224,5.614,5.614,0,1,0,5.87,5.345Z" transform="translate(-598.61 -406.262)" fill="#ffd522"/>
    <path id="Path_116" data-name="Path 116" d="M1046.92,695.5a5.614,5.614,0,1,1,.269-4.524l-3.507,2.855,3.859-.912a5.583,5.583,0,0,1-.62,2.581Z" transform="translate(-587.377 -448.21)" fill="#ffd522"/>
    <path id="Path_117" data-name="Path 117" d="M1046.472,667.968a5.614,5.614,0,0,1-1.783-11.015l-.027,2.312,1.273-2.513h0a5.616,5.616,0,1,1,.525,11.22Z" transform="translate(-589.703 -431.58)" fill="#ffd522"/>
    <path id="Path_118" data-name="Path 118" d="M1076.334,648.087a5.614,5.614,0,1,1,2.486-10.49l-.994,2.737,2.043-1.961a5.583,5.583,0,0,1,1.824,3.877,5.418,5.418,0,0,1-.141,1.546A5.614,5.614,0,0,1,1076.334,648.087Z" transform="translate(-605.936 -420.767)" fill="#ffd522"/>
    <path id="Path_119" data-name="Path 119" d="M1067.377,620.712c-1.3.146-2.559.547-3.859.629a4.183,4.183,0,0,1-3.553-1.245,17.4,17.4,0,0,1-1.035-1.824,4.037,4.037,0,0,0-1.414-1.332,5.614,5.614,0,1,0,10.49,3.726C1067.8,620.675,1067.586,620.689,1067.377,620.712Z" transform="translate(-598.575 -409.929)" opacity="0.1"/>
    <path id="Path_120" data-name="Path 120" d="M1076.361,651.919a5.619,5.619,0,0,1-5.341-8.009,4.157,4.157,0,0,1,1.131,1.127,18.011,18.011,0,0,0,1.113,1.856,4.568,4.568,0,0,0,3.722,1.3c1.355-.064,2.663-.456,4.014-.57.187,0,.379-.032.566-.036A5.614,5.614,0,0,1,1076.361,651.919Z" transform="translate(-605.964 -424.598)" opacity="0.1"/>
    <path id="Path_121" data-name="Path 121" d="M1046.473,671.913a5.61,5.61,0,0,1-5.386-7.913,4.631,4.631,0,0,1,1.186,1.14c.456.616.707,1.327,1.218,1.893a5.2,5.2,0,0,0,3.977,1.4c1.437-.032,2.736-.374,4.1-.479A5.614,5.614,0,0,1,1046.473,671.913Z" transform="translate(-589.703 -435.525)" opacity="0.1"/>
    <path id="Path_122" data-name="Path 122" d="M1046.958,699.821a5.619,5.619,0,0,1-10.239-4.561,5.5,5.5,0,0,1,1.231,1.1c.538.652.912,1.368,1.505,2a7.052,7.052,0,0,0,4.652,1.633A24.61,24.61,0,0,0,1046.958,699.821Z" transform="translate(-587.415 -452.528)" opacity="0.1"/>
    <path id="Path_123" data-name="Path 123" d="M457.075,572.637a4.474,4.474,0,0,0-1.783-3.612,247,247,0,0,0-7.872-9.044h0a4.454,4.454,0,0,0-.648-.151H446a5.136,5.136,0,0,0-4.962,4.388c-1.6-.369-3.065.109-3.334,1.122a1.368,1.368,0,0,0,.046.812,3.53,3.53,0,0,0,2.353,1.906l.155.046.233.059h.05a4.033,4.033,0,0,0-.383,1.729,3.986,3.986,0,0,0,2.148,3.557l-.1.064a1.423,1.423,0,0,0-.347.483,7.235,7.235,0,0,0-.67,1.615c-.114.483-.132.985-.274,1.464-.265.88-.94,1.624-1.017,2.54-.036.41.032.912-.26,1.177a1.416,1.416,0,0,1-.233.164,1.883,1.883,0,0,0-.506.534,1.772,1.772,0,0,1-.356.511c-.265.2-.7.178-.826.483s.205.666.128,1-.36.4-.566.584a2.03,2.03,0,0,0-.488.912,2.992,2.992,0,0,1-2.463-.629,4.6,4.6,0,0,1,.255.912,4,4,0,0,0-1.327-.666,4.19,4.19,0,0,1-1.414-1.049l.757-.1-3.343-5.1-.99-.205.885,1.7a.543.543,0,0,0-.3.36,1.546,1.546,0,0,0-.032.579,10.358,10.358,0,0,0,.228,1.368l.255,1.195c.023.109.05.224.082.333a3.142,3.142,0,0,0-.99.109,8.61,8.61,0,0,0-2.057-.488,1.14,1.14,0,0,0-.456,0,1.181,1.181,0,0,0-.433.351,14.029,14.029,0,0,0-1.528,2.153,75.15,75.15,0,0,1-6.449,8.688c-1.551.629-3.115,1.227-4.68,1.824l-3.366,1.286a5.105,5.105,0,0,1-2.089.456c-.319,0-.716-.068-.912.205a1.921,1.921,0,0,0-.205.456l-.347.036h0a3.987,3.987,0,0,0-.807-1.487.511.511,0,0,0-.379.292c-.082.151-.132.315-.228.456-.178.265-.493.392-.716.616s-.365.57-.611.8a2.417,2.417,0,0,1-1.145.456,7.226,7.226,0,0,0-1.792.68,2.89,2.89,0,0,1-.661.306,2.485,2.485,0,0,1-.78.027l-1.779-.132a1.408,1.408,0,0,0-.479.023.912.912,0,0,0-.566.912,1.437,1.437,0,0,0,.566.981,3.622,3.622,0,0,0,1.013.525,29.724,29.724,0,0,0,4.743,1.4v.36a8.1,8.1,0,0,0,3.649.867.565.565,0,0,0,.274-.05.6.6,0,0,0,.228-.356,14.67,14.67,0,0,0,.711-3.494h0a1.824,1.824,0,0,0,.643-.164c.611-.169,1.222.251,1.856.319a5.071,5.071,0,0,0,2.239-.648l.319-.1a3.5,3.5,0,0,1-.739.707c-.306.219-.648.383-.944.611a6.509,6.509,0,0,1-.8.62,5.026,5.026,0,0,1-.616.237,4.065,4.065,0,0,0-.88.456,1.783,1.783,0,0,0-.6.584.876.876,0,0,0-.05.821.866.866,0,0,0,.588.411,2.415,2.415,0,0,0,.725,0c.967-.073,1.929-.16,2.892-.246a7.7,7.7,0,0,0,1.209-.173c.21-.05.42-.119.629-.178a5.621,5.621,0,0,1,1.1-.164.912.912,0,0,1,.319.032c.224.073.383.3.611.347a.913.913,0,0,0,.456-.059,10.17,10.17,0,0,1,2.139-.228.883.883,0,0,0,.83-.369c.146-.292-.119-.762-.237-1.149a3.514,3.514,0,0,1-.1-.757,4.741,4.741,0,0,0-.529-1.8,4.692,4.692,0,0,1-.4-.821,20.737,20.737,0,0,0,3.936-2,7.036,7.036,0,0,1,2.244-1.081,6.1,6.1,0,0,1,2.819.328,64.135,64.135,0,0,1,6.463,2.253c1.008.415,2.011.853,3.051,1.168a4.758,4.758,0,0,0,1.085,1.053,5.018,5.018,0,0,0,2.349.643,30.776,30.776,0,0,0,3.307.123,5.575,5.575,0,0,0,2.463-.456,2.528,2.528,0,0,0,.515-.342,2.043,2.043,0,0,0,1.624-.6,3.936,3.936,0,0,0,1.236-1.952c.269-1.04.064-2.28.7-3.111.169-.228.392-.411.561-.639a1.8,1.8,0,0,0,.292-1.054.214.214,0,0,1,.027-.041,3.865,3.865,0,0,0,.274-1.049,6.01,6.01,0,0,1,.3-.83,25.6,25.6,0,0,0,.848-2.458,14.35,14.35,0,0,0,.392-1.688c.068-.456.109-.912.146-1.368a8.5,8.5,0,0,1,.415-2.112,17.182,17.182,0,0,0,.958-5.053v-.1a3.389,3.389,0,0,0,3-3.448,3.6,3.6,0,0,0-.315-1.473A4.56,4.56,0,0,0,457.075,572.637Zm-16.319,19.826c.05.178.109.351.169.525-.269-.26-.529-.529-.8-.794.1.036.214.068.315.109a1.7,1.7,0,0,1,.3.16Zm-1.291-.876c-1.578-1.368-3.4-2.431-5.017-3.758.88.433,1.738.94,2.586,1.423q1.51.862,3.06,1.656a2.5,2.5,0,0,1-.643.68Zm.67-3.448.078-.078v.543l-.424-.146a3.788,3.788,0,0,0,.333-.319Zm-13.879,3.694a13.06,13.06,0,0,0,1.678-2.394,16.119,16.119,0,0,0,2.5,2.8C429.048,592.057,427.653,591.907,426.257,591.834Z" transform="translate(-239.064 -378.866)" fill="url(#linear-gradient-2)"/>
    <path id="Path_124" data-name="Path 124" d="M415.35,438.25l.994.2,3.389,5.012-1.491.2Z" transform="translate(-225.913 -238.564)" fill="#2f2e41"/>
    <path id="Path_125" data-name="Path 125" d="M414.49,645.4a19.5,19.5,0,0,0,.994,2.586,24.626,24.626,0,0,0,3.307-.944,10.416,10.416,0,0,0-.689-.912,3.4,3.4,0,0,0-.935-.716,2.573,2.573,0,0,0-1.136,0C415.521,645.4,415.005,645.41,414.49,645.4Z" transform="translate(-249.162 -425.382)" fill="#fbbebe"/>
    <path id="Path_126" data-name="Path 126" d="M407.011,645.023a2.061,2.061,0,0,1-1.131-1.286,4.142,4.142,0,0,0-.862-1.537.493.493,0,0,0-.383.287c-.082.146-.132.31-.223.456-.182.26-.5.388-.73.607s-.365.561-.611.784a2.427,2.427,0,0,1-1.154.456,7.482,7.482,0,0,0-1.824.67,3.149,3.149,0,0,1-.67.3,2.653,2.653,0,0,1-.784,0l-1.8-.128a1.4,1.4,0,0,0-.456,0,.871.871,0,0,0-.57.912,1.368,1.368,0,0,0,.57.967,3.786,3.786,0,0,0,1.022.52,30.052,30.052,0,0,0,4.816,1.368v.356a8.338,8.338,0,0,0,3.672.853.62.62,0,0,0,.274-.046.6.6,0,0,0,.228-.356,14.229,14.229,0,0,0,.753-3.9,3.11,3.11,0,0,0-.078-1.008c-.1-.324.237-.187-.073-.315" transform="translate(-239.001 -423.668)" fill="#2f2e41"/>
    <path id="Path_127" data-name="Path 127" d="M453.746,631.845c-5.327.319-10.59-1.241-15.927-1.4a7.777,7.777,0,0,0-1.979.123,9.974,9.974,0,0,0-1.961.762c-2.86,1.332-5.82,2.436-8.775,3.535l-3.4,1.263a5.145,5.145,0,0,1-2.1.456c-.324,0-.721-.068-.912.2a3.327,3.327,0,0,0,.073,2.942c.119.3.319.62.639.652a1.855,1.855,0,0,0,.648-.164c.616-.164,1.231.251,1.87.319a5.255,5.255,0,0,0,2.258-.639,19.6,19.6,0,0,1,3.868-.657,17.328,17.328,0,0,0,6.057-2.513,7.07,7.07,0,0,1,2.258-1.067,6.249,6.249,0,0,1,2.841.324,65.2,65.2,0,0,1,6.518,2.217,30.379,30.379,0,0,0,3.4,1.245,12.315,12.315,0,0,0,7.63-.456c.853-.337,1.779-.912,1.824-1.852.032-.525-.379-.985-.648-1.437-.173-.287-.351-.575-.538-.853C456.478,633.519,455.365,631.749,453.746,631.845Z" transform="translate(-251.274 -417.263)" fill="#2f2e41"/>
    <path id="Path_128" data-name="Path 128" d="M453.746,631.845c-5.327.319-10.59-1.241-15.927-1.4a7.777,7.777,0,0,0-1.979.123,9.974,9.974,0,0,0-1.961.762c-2.86,1.332-5.82,2.436-8.775,3.535l-3.4,1.263a5.145,5.145,0,0,1-2.1.456c-.324,0-.721-.068-.912.2a3.327,3.327,0,0,0,.073,2.942c.119.3.319.62.639.652a1.855,1.855,0,0,0,.648-.164c.616-.164,1.231.251,1.87.319a5.255,5.255,0,0,0,2.258-.639,19.6,19.6,0,0,1,3.868-.657,17.328,17.328,0,0,0,6.057-2.513,7.07,7.07,0,0,1,2.258-1.067,6.249,6.249,0,0,1,2.841.324,65.2,65.2,0,0,1,6.518,2.217,30.379,30.379,0,0,0,3.4,1.245,12.315,12.315,0,0,0,7.63-.456c.853-.337,1.779-.912,1.824-1.852.032-.525-.379-.985-.648-1.437-.173-.287-.351-.575-.538-.853C456.478,633.519,455.365,631.749,453.746,631.845Z" transform="translate(-251.274 -417.263)" opacity="0.1"/>
    <path id="Path_129" data-name="Path 129" d="M436.92,643.355q1.25.424,2.522.784c.456-.78,1.368-1.323,1.564-2.217a.21.21,0,0,0,0-.119.219.219,0,0,0-.1-.087,4.779,4.779,0,0,0-1.979-.579c-.547-.032-.8.538-1.044.94C437.791,642.256,437.143,643.442,436.92,643.355Z" transform="translate(-261.362 -423.09)" fill="#fbbebe"/>
    <path id="Path_130" data-name="Path 130" d="M429.656,643.271a1.824,1.824,0,0,1-1.227-.807c-.114-.205-.242-.483-.479-.456s-.315.274-.365.488a13.677,13.677,0,0,1-.689,2.367,4.442,4.442,0,0,1-1.473,1.938c-.31.214-.652.374-.958.6a6.582,6.582,0,0,1-.807.611,4.816,4.816,0,0,1-.62.228,4.3,4.3,0,0,0-.885.456,1.757,1.757,0,0,0-.607.579.835.835,0,0,0-.046.807.862.862,0,0,0,.588.4,2.48,2.48,0,0,0,.734,0c.971-.068,1.943-.155,2.914-.242a8.422,8.422,0,0,0,1.218-.169l.634-.173a5.046,5.046,0,0,1,1.108-.164.862.862,0,0,1,.324.032c.223.073.383.3.616.342a1.031,1.031,0,0,0,.456-.059,10.074,10.074,0,0,1,2.157-.223.91.91,0,0,0,.839-.365c.182-.356-.119-.753-.242-1.136a3.648,3.648,0,0,1-.1-.743,4.534,4.534,0,0,0-.534-1.77c-.246-.456-.584-.958-.41-1.441a1.368,1.368,0,0,0,.164-.5C431.9,643.093,430.1,643.371,429.656,643.271Z" transform="translate(-252.93 -423.562)" fill="#2f2e41"/>
    <path id="Path_131" data-name="Path 131" d="M473.068,609.214a4.159,4.159,0,0,1-2.125-2.107c-.087-.2-.16-.415-.246-.616a4.68,4.68,0,0,0-1.268-1.765.625.625,0,0,0-.456-.2.5.5,0,0,0-.342.369,1.41,1.41,0,0,0-.036.57,10.158,10.158,0,0,0,.228,1.332l.26,1.177a2.581,2.581,0,0,0,.16.524,1.824,1.824,0,0,0,.433.515c.237.219.479.429.721.639a2.478,2.478,0,0,0,.456.315,2.652,2.652,0,0,0,.807.237,6.869,6.869,0,0,1,3.028,1.168V610.5a1.158,1.158,0,0,0-.228-.634,4.046,4.046,0,0,0-1.391-.652Z" transform="translate(-278.582 -403.179)" fill="#fbbebe"/>
    <path id="Path_132" data-name="Path 132" d="M473.068,609.214a4.159,4.159,0,0,1-2.125-2.107c-.087-.2-.16-.415-.246-.616a4.68,4.68,0,0,0-1.268-1.765.625.625,0,0,0-.456-.2.5.5,0,0,0-.342.369,1.41,1.41,0,0,0-.036.57,10.158,10.158,0,0,0,.228,1.332l.26,1.177a2.581,2.581,0,0,0,.16.524,1.824,1.824,0,0,0,.433.515c.237.219.479.429.721.639a2.478,2.478,0,0,0,.456.315,2.652,2.652,0,0,0,.807.237,6.869,6.869,0,0,1,3.028,1.168V610.5a1.158,1.158,0,0,0-.228-.634,4.046,4.046,0,0,0-1.391-.652Z" transform="translate(-278.582 -403.179)" opacity="0.1"/>
    <ellipse id="Ellipse_33" data-name="Ellipse 33" cx="1.295" cy="1.304" rx="1.295" ry="1.304" transform="translate(204.036 194.423)" fill="#2f2e41"/>
    <path id="Path_133" data-name="Path 133" d="M489.752,590.434a1.4,1.4,0,0,0-1.022.146,1.42,1.42,0,0,0-.351.479,6.956,6.956,0,0,0-.675,1.587c-.114.456-.132.971-.278,1.441-.265.867-.944,1.6-1.022,2.5-.036.406.032.88-.265,1.154a1.678,1.678,0,0,1-.233.169,1.752,1.752,0,0,0-.511.525,1.72,1.72,0,0,1-.36.5c-.265.2-.7.178-.83.456s.205.657.128.985-.365.392-.57.575a1.993,1.993,0,0,0-.493.912,3.042,3.042,0,0,1-2.481-.616,7.9,7.9,0,0,1,.388,2.837,1.158,1.158,0,0,1-.228.876,15.8,15.8,0,0,1,3.042.529,2.1,2.1,0,0,0,1.327,0,2.216,2.216,0,0,0,.611-.483,3.9,3.9,0,0,0,1.254-1.934,11.353,11.353,0,0,0,.023-1.309,7.382,7.382,0,0,1,.333-1.592,18.934,18.934,0,0,0,.579-3.275c.059-.684.652-1.231.962-1.824a8.932,8.932,0,0,0,1.227-3.649C490.327,591,490.181,590.48,489.752,590.434Z" transform="translate(-285.223 -395.491)" fill="#2f2e41"/>
    <path id="Path_134" data-name="Path 134" d="M489.752,590.434a1.4,1.4,0,0,0-1.022.146,1.42,1.42,0,0,0-.351.479,6.956,6.956,0,0,0-.675,1.587c-.114.456-.132.971-.278,1.441-.265.867-.944,1.6-1.022,2.5-.036.406.032.88-.265,1.154a1.678,1.678,0,0,1-.233.169,1.752,1.752,0,0,0-.511.525,1.72,1.72,0,0,1-.36.5c-.265.2-.7.178-.83.456s.205.657.128.985-.365.392-.57.575a1.993,1.993,0,0,0-.493.912,3.042,3.042,0,0,1-2.481-.616,7.9,7.9,0,0,1,.388,2.837,1.158,1.158,0,0,1-.228.876,15.8,15.8,0,0,1,3.042.529,2.1,2.1,0,0,0,1.327,0,2.216,2.216,0,0,0,.611-.483,3.9,3.9,0,0,0,1.254-1.934,11.353,11.353,0,0,0,.023-1.309,7.382,7.382,0,0,1,.333-1.592,18.934,18.934,0,0,0,.579-3.275c.059-.684.652-1.231.962-1.824a8.932,8.932,0,0,0,1.227-3.649C490.327,591,490.181,590.48,489.752,590.434Z" transform="translate(-285.223 -395.491)" opacity="0.1"/>
    <path id="Path_135" data-name="Path 135" d="M466.057,622.915a12.022,12.022,0,0,1-2.819-2.353c-1.71-1.61-3.8-2.737-5.605-4.255a39.5,39.5,0,0,0-3.571-3,8.926,8.926,0,0,0-3.827-1.336,1.018,1.018,0,0,0-.456,0,1.049,1.049,0,0,0-.433.342,13.783,13.783,0,0,0-1.546,2.121c-2.28,3.877-5.523,7.133-8.21,10.736a.684.684,0,0,0-.132.255.634.634,0,0,0,.1.4l.547,1.067c.306.6.8,1.3,1.455,1.181a1.591,1.591,0,0,0,.762-.488l2.454-2.349,2.572-2.458a19.73,19.73,0,0,0,4.023-4.752c.766,1.332,2.13,2.2,3.06,3.421.356.456.648.971.967,1.464.506.784,1.086,1.523,1.66,2.28l2.951,3.763a5.646,5.646,0,0,0,1.368,1.368,5.223,5.223,0,0,0,2.367.634,31.286,31.286,0,0,0,3.334.119,5.748,5.748,0,0,0,2.486-.456,2.253,2.253,0,0,0,1.345-2,2.937,2.937,0,0,0-.424-1.245A10.165,10.165,0,0,0,466.057,622.915Z" transform="translate(-262.741 -407.211)" fill="#2f2e41"/>
    <ellipse id="Ellipse_34" data-name="Ellipse 34" cx="0.999" cy="1.003" rx="0.999" ry="1.003" transform="translate(205.131 195.627)" fill="#e8e8f0"/>
    <path id="Path_136" data-name="Path 136" d="M501.838,588.793a1.92,1.92,0,0,1,.109,1.441,5.848,5.848,0,0,1-.643,1.327,6.317,6.317,0,0,1-.835,1.186,8.591,8.591,0,0,0,4.388-1.259,6.372,6.372,0,0,0,2.768-2.413,1.277,1.277,0,0,1-1.022-.192,3.651,3.651,0,0,1-.78-.725l-.771-.867a3.465,3.465,0,0,1-.456-.625,1.725,1.725,0,0,1-.205-1.008,5.866,5.866,0,0,1-1.022.848c-.552.36-1.158.62-1.715.976-.192.128-.629.328-.515.584S501.683,588.52,501.838,588.793Z" transform="translate(-295.927 -392.915)" fill="#fbbebe"/>
    <path id="Path_137" data-name="Path 137" d="M501.838,588.793a1.92,1.92,0,0,1,.109,1.441,5.848,5.848,0,0,1-.643,1.327,6.317,6.317,0,0,1-.835,1.186,8.591,8.591,0,0,0,4.388-1.259,6.372,6.372,0,0,0,2.768-2.413,1.277,1.277,0,0,1-1.022-.192,3.651,3.651,0,0,1-.78-.725l-.771-.867a3.465,3.465,0,0,1-.456-.625,1.725,1.725,0,0,1-.205-1.008,5.866,5.866,0,0,1-1.022.848c-.552.36-1.158.62-1.715.976-.192.128-.629.328-.515.584S501.683,588.52,501.838,588.793Z" transform="translate(-295.927 -392.915)" opacity="0.1"/>
    <path id="Path_138" data-name="Path 138" d="M496.271,592.667a1.3,1.3,0,0,0,0,1.505c.046.055.21.4.278.4a.251.251,0,0,0,.173-.091,11.45,11.45,0,0,0,.976-1.163,2.171,2.171,0,0,1,1.241-.812,2.682,2.682,0,0,1,1.71.534,1.623,1.623,0,0,1,.588.456,1.591,1.591,0,0,1,.192.652,31.42,31.42,0,0,1,.173,4.146,16.341,16.341,0,0,1-.2,2.987c-.1.506-.246,1-.315,1.519a9.685,9.685,0,0,0-.064,1.368v1.906a5.015,5.015,0,0,0,.073,1.044c.091.415.287.8.42,1.209a7.9,7.9,0,0,1,.278,1.428l.26,1.97a2.491,2.491,0,0,1-.233,1.824c-.169.223-.392.406-.566.629-.643.839-.456,2.039-.707,3.065a3.822,3.822,0,0,1-1.25,1.916,2.066,2.066,0,0,1-1.646.588,2.256,2.256,0,0,1-1.5-1.774,7.094,7.094,0,0,0-.771-2.312,6.133,6.133,0,0,0-1.523-1.273,2.631,2.631,0,0,1-1.19-1.546c-.05-.287,0-.584-.05-.876a2.066,2.066,0,0,0-1.272-1.674c-.411-.16-.912-.219-1.149-.593a2.768,2.768,0,0,0,1.2-1.61,8.27,8.27,0,0,0,.292-2.034l.137-2.28a7.618,7.618,0,0,1,.543-2.96c.2-.41.456-.8.661-1.2a13.073,13.073,0,0,0,.707-1.765c.328-.94.657-1.879.949-2.828a5.332,5.332,0,0,1,.52-1.318C495.454,593.274,495.81,592.759,496.271,592.667Z" transform="translate(-290.341 -396.639)" fill="#e8e8f0"/>
    <path id="Path_139" data-name="Path 139" d="M492.282,607.061h.607l.128-.912a1.9,1.9,0,0,1,.128-.534,3.19,3.19,0,0,1,.351-.511,6.669,6.669,0,0,0,.7-2.987,15.2,15.2,0,0,1,1.332-3.9l1.177-2.623a3.619,3.619,0,0,0,.255-.67,4.021,4.021,0,0,0,.073-.775c0-.406.128-1.884.141-2.28,0-.151-.333-.068-.4-.2-.146-.292-.347.5-.625.67a1.532,1.532,0,0,0-.543.794c-.255.657-.411,1.368-.648,2.021a4.127,4.127,0,0,1-1.1,1.788c-.242.21-.52.379-.748.607a4.093,4.093,0,0,0-.825,2.9C492.264,601.068,492.146,607.061,492.282,607.061Z" transform="translate(-291.439 -396.146)" fill="#2f2e41"/>
    <path id="Path_140" data-name="Path 140" d="M504.9,590.4a2.071,2.071,0,0,0-1.081,1.482,7.5,7.5,0,0,1-.547,1.824c-.739,1.286-2.623,1.66-3.147,3.051a5.609,5.609,0,0,0-.21,1.437c-.091,1-.42,1.961-.52,2.955a13.167,13.167,0,0,0,.055,2.322l.661,7.854a10.491,10.491,0,0,1-.2,3.457,3.33,3.33,0,0,0,1.979-.328c.616-.283,1.181-.67,1.779-1a18.318,18.318,0,0,0,3.051-1.715,1.865,1.865,0,0,0,.41-.456,3.943,3.943,0,0,0,.274-1.031,5.568,5.568,0,0,1,.3-.812,23.937,23.937,0,0,0,.858-2.426,13.932,13.932,0,0,0,.392-1.66c.073-.456.114-.912.151-1.368a8.028,8.028,0,0,1,.42-2.075,16.716,16.716,0,0,0,.962-4.981,2.6,2.6,0,0,0-.05-.73,3.9,3.9,0,0,0-.4-.835c-.274-.515-.456-1.081-.693-1.605a7.9,7.9,0,0,0-2.7-2.832A2.053,2.053,0,0,0,504.9,590.4Z" transform="translate(-295.329 -395.458)" fill="#2f2e41"/>
    <path id="Path_141" data-name="Path 141" d="M472.774,615.412a4.757,4.757,0,0,1-1.254-.953c-.164-.192-.3-.406-.456-.6a3.106,3.106,0,0,0-1.578-.912,7.707,7.707,0,0,0-1.824-.178,3.31,3.31,0,0,0-1.218.146,1.24,1.24,0,0,0-.807.867,1.437,1.437,0,0,0,.616,1.277,2.9,2.9,0,0,0,1.227.593,9.815,9.815,0,0,0,1.108.132c2.18.228,4.128,1.414,6.039,2.495q2.518,1.432,5.136,2.664a10.673,10.673,0,0,0,.087-1.573c0-.392-.032-.994-.4-1.227a8.05,8.05,0,0,0-1.633-.488,25.692,25.692,0,0,1-3.288-1.332A16.355,16.355,0,0,1,472.774,615.412Z" transform="translate(-276.979 -407.657)" fill="#fbbebe"/>
    <ellipse id="Ellipse_35" data-name="Ellipse 35" cx="3.886" cy="3.909" rx="3.886" ry="3.909" transform="translate(201.446 187.614)" fill="#fbbebe"/>
    <path id="Path_142" data-name="Path 142" d="M502.5,599.589a6.23,6.23,0,0,0-.753,1.409c-.456.985-1.231,1.824-1.61,2.869s-.383,2.385-1.163,3.238a1.136,1.136,0,0,0-.342.493,2.347,2.347,0,0,1-.036.356c-.114.31-.62.324-.716.643-.027.091,0,.192-.046.283-.078.205-.351.237-.529.36-.379.255-.3.848-.57,1.218a1.026,1.026,0,0,1-.971.342,3.422,3.422,0,0,1-1.008-.379.971.971,0,0,0-.365-.114.752.752,0,0,0-.42.146,2.586,2.586,0,0,0-1.049,2.212,7.224,7.224,0,0,0,.6,2.477.994.994,0,0,0,.2.369.871.871,0,0,0,.967.073,4.56,4.56,0,0,1,.944-.424c.6-.109,1.19.306,1.8.269a2.5,2.5,0,0,0,1.213-.534,6.707,6.707,0,0,0,1.633-1.368c.265-.351.456-.748.693-1.122a14.388,14.388,0,0,1,.981-1.309l2.244-2.737a6.312,6.312,0,0,0,.6-.83,5.853,5.853,0,0,0,.456-1.254,9.608,9.608,0,0,0,.456-2.23,8.57,8.57,0,0,0-.164-1.87,6.608,6.608,0,0,0-.456-1.783C504.607,599.361,503.421,598.522,502.5,599.589Z" transform="translate(-291.822 -400.222)" fill="#2f2e41"/>
    <path id="Path_143" data-name="Path 143" d="M507.718,573.877a4.378,4.378,0,0,0-1.8-3.557,5.2,5.2,0,0,0-4.419-5.067,5.049,5.049,0,0,0-9.947.269c-1.615-.365-3.092.109-3.361,1.1s.871,2.28,2.572,2.737a4.8,4.8,0,0,0,1.651.164,5.054,5.054,0,0,0,3.475,2.166,5.186,5.186,0,0,0,3.795,3.913,4.356,4.356,0,0,0,1.172,1.619v.378a3.288,3.288,0,1,0,6.577,0,3.511,3.511,0,0,0-.315-1.455A4.4,4.4,0,0,0,507.718,573.877Z" transform="translate(-289.228 -379.609)" fill="#ffe582"/>
    <path id="Path_144" data-name="Path 144" d="M489.282,566.832c.269-.994,1.747-1.469,3.361-1.1a5.136,5.136,0,0,1,5.017-4.324h.333a4.942,4.942,0,0,0-1.432-.214,5.136,5.136,0,0,0-5.017,4.324c-1.615-.365-3.092.109-3.361,1.1s.871,2.28,2.572,2.737a5.018,5.018,0,0,0,.976.169C490.1,569.035,489.013,567.849,489.282,566.832Z" transform="translate(-289.223 -379.606)" opacity="0.1"/>
    <path id="Path_145" data-name="Path 145" d="M507.138,587.93a3.427,3.427,0,0,1,0-.374,4.259,4.259,0,0,1-1.172-1.619,5.172,5.172,0,0,1-3.795-3.918,5.04,5.04,0,0,1-3.48-2.162,4.376,4.376,0,0,1-.971-.027,5.067,5.067,0,0,0,3.352,1.993,5.186,5.186,0,0,0,3.795,3.913,4.357,4.357,0,0,0,1.172,1.619v.379a3.348,3.348,0,0,0,3.27,3.4A3.4,3.4,0,0,1,507.138,587.93Z" transform="translate(-294.432 -389.744)" opacity="0.1"/>
    <ellipse id="Ellipse_36" data-name="Ellipse 36" cx="0.597" cy="0.798" rx="0.597" ry="0.798" transform="translate(205.673 192.047) rotate(-37.22)" fill="#fbbebe"/>
  </g>
</svg>
