<svg xmlns="http://www.w3.org/2000/svg" width="525.156" height="449.601" viewBox="0 0 525.156 449.601">
  <g id="Group_27" data-name="Group 27" transform="translate(0)">
    <ellipse id="Ellipse_101" data-name="Ellipse 101" cx="55.122" cy="112.472" rx="55.122" ry="112.472" transform="translate(16.298 78.575)" fill="#ffd522"/>
    <path id="Path_622" data-name="Path 622" d="M266.384,333.332c2.75-48.958,8.29-82.028,8.345-82.356l-1.2-.2c-.056.329-5.606,33.451-8.36,82.473-2.542,45.244-3.155,113.678,8.359,182.762l1.2-.2C263.235,446.84,263.846,378.51,266.384,333.332Z" transform="translate(-195.47 -141.119)" fill="#3f3d56"/>
    <rect id="Rectangle_120" data-name="Rectangle 120" width="56.529" height="1.219" transform="translate(70.848 194.913) rotate(-28.157)" fill="#3f3d56"/>
    <rect id="Rectangle_121" data-name="Rectangle 121" width="1.219" height="56.529" transform="translate(18.232 182.682) rotate(-61.858)" fill="#3f3d56"/>
    <ellipse id="Ellipse_102" data-name="Ellipse 102" cx="71.512" cy="145.913" rx="71.512" ry="145.913" transform="translate(382.132 0)" fill="#ffd522"/>
    <path id="Path_623" data-name="Path 623" d="M926.794,237.925c3.568-63.525,10.757-106.434,10.829-106.86l-1.139-.193c-.072.426-7.27,43.385-10.842,106.97-3.3,58.686-4.092,147.45,10.842,237.055l1.14-.19C922.707,385.213,923.5,296.547,926.794,237.925Z" transform="translate(-474.019 -90.517)" fill="#3f3d56"/>
    <rect id="Rectangle_122" data-name="Rectangle 122" width="73.337" height="1.156" transform="translate(453.003 151.118) rotate(-28.157)" fill="#3f3d56"/>
    <rect id="Rectangle_123" data-name="Rectangle 123" width="1.156" height="73.337" transform="translate(384.742 134.876) rotate(-61.858)" fill="#3f3d56"/>
    <ellipse id="Ellipse_103" data-name="Ellipse 103" cx="26.719" cy="54.517" rx="26.719" ry="54.517" transform="translate(340.765 222.311)" fill="#e6e6e6"/>
    <path id="Path_624" data-name="Path 624" d="M762.564,513.524l.158.3,24.158-12.93-.545-1.019-23.72,12.7a406.806,406.806,0,0,1,4.051-40.7l-1.14-.193a422.237,422.237,0,0,0-4.381,47.477l-23.924-12.805-.545,1.019,24.158,12.93.288-.539c-.906,23-.4,51.763,4.4,80.575l1.14-.19C761.43,568.729,761.315,537.374,762.564,513.524Z" transform="translate(-395.104 -234.347)" fill="#3f3d56"/>
    <path id="Path_625" data-name="Path 625" d="M648.556,717.671C506.242,672.62,377.2,675.019,294,684.966c-90.135,10.776-147.329,32.476-147.9,32.693l-.415-1.079c.569-.218,57.9-21.969,148.171-32.762a859.384,859.384,0,0,1,160.034-4.094A834.755,834.755,0,0,1,648.9,716.569Z" transform="translate(-145.688 -321.32)" fill="#3f3d56"/>
    <path id="Path_626" data-name="Path 626" d="M462.2,719.333s.4-8.363,8.581-7.391" transform="translate(-279.266 -335.714)" fill="#3f3d56"/>
    <circle id="Ellipse_104" data-name="Ellipse 104" cx="4.095" cy="4.095" r="4.095" transform="translate(176.527 367.47)" fill="#ffd522"/>
    <rect id="Rectangle_124" data-name="Rectangle 124" width="1.156" height="8.092" transform="translate(179.956 378.461)" fill="#3f3d56"/>
    <path id="Path_627" data-name="Path 627" d="M720.2,722.333s.4-8.363,8.581-7.391" transform="translate(-388.15 -336.98)" fill="#3f3d56"/>
    <circle id="Ellipse_105" data-name="Ellipse 105" cx="4.095" cy="4.095" r="4.095" transform="translate(325.643 369.204)" fill="#ffd522"/>
    <rect id="Rectangle_125" data-name="Rectangle 125" width="1.156" height="8.092" transform="translate(329.071 380.195)" fill="#3f3d56"/>
    <path id="Path_628" data-name="Path 628" d="M295.2,697.333s.4-8.363,8.581-7.391" transform="translate(-208.787 -326.429)" fill="#3f3d56"/>
    <circle id="Ellipse_106" data-name="Ellipse 106" cx="4.095" cy="4.095" r="4.095" transform="translate(80.006 354.755)" fill="#ffd522"/>
    <rect id="Rectangle_126" data-name="Rectangle 126" width="1.156" height="8.092" transform="translate(83.435 365.746)" fill="#3f3d56"/>
    <path id="Path_629" data-name="Path 629" d="M404.2,678.333s.4-8.363,8.581-7.391" transform="translate(-254.789 -318.41)" fill="#3f3d56"/>
    <circle id="Ellipse_107" data-name="Ellipse 107" cx="4.095" cy="4.095" r="4.095" transform="translate(143.005 343.773)" fill="#ffd522"/>
    <rect id="Rectangle_127" data-name="Rectangle 127" width="1.156" height="8.092" transform="translate(146.433 354.765)" fill="#3f3d56"/>
    <path id="Path_630" data-name="Path 630" d="M677.2,705.333s.4-8.363,8.581-7.391" transform="translate(-370.003 -329.805)" fill="#3f3d56"/>
    <circle id="Ellipse_108" data-name="Ellipse 108" cx="4.095" cy="4.095" r="4.095" transform="translate(300.79 359.378)" fill="#ffd522"/>
    <rect id="Rectangle_128" data-name="Rectangle 128" width="1.156" height="8.092" transform="translate(304.219 370.37)" fill="#3f3d56"/>
    <path id="Path_631" data-name="Path 631" d="M973.322,681.78l23.788,35.272L974.963,739.2l-2.871-5.742,4.922-11.484s-.82-10.664-3.691-13.535-15.586-20.1-15.586-20.1Z" transform="translate(-488.398 -323.018)" fill="#ffb8b8"/>
    <path id="Path_632" data-name="Path 632" d="M903.439,484.5s4.511,7.139-4.922,37.9c0,0,44,74.262,37.028,79.183S909.7,617.4,904.783,614.12s-40.717-114.441-40.717-114.441Z" transform="translate(-448.867 -239.761)" fill="#2f2e41"/>
    <path id="Path_633" data-name="Path 633" d="M992.74,731.808l7.178,7.178c3.691,3.691,6.152,9.023-.82,13.535s-31.171,21.328-39.374,16,9.843-10.254,9.843-10.254,2.984-11.064,4.568-8.608,1.584,7.378,1.584,7.378Z" transform="translate(-488.334 -344.131)" fill="#2f2e41"/>
    <path id="Path_634" data-name="Path 634" d="M834.781,712.437s-13.124,24.2-13.124,27.069.82,11.074.82,11.074l-25.018,6.152-8.613-4.1,2.871-7.383s15.585-5.332,18.867-15.585,6.972-20.917,6.972-20.917Z" transform="translate(-417.121 -334.398)" fill="#ffb8b8"/>
    <circle id="Ellipse_109" data-name="Ellipse 109" cx="17.226" cy="17.226" r="17.226" transform="translate(415.609 102.834)" fill="#ffb8b8"/>
    <path id="Path_635" data-name="Path 635" d="M886.774,290.131,895,313.761l18.025-8.045s-12.3-18.867-12.3-21.328Z" transform="translate(-458.45 -155.306)" fill="#ffb8b8"/>
    <path id="Path_636" data-name="Path 636" d="M860.784,439.8h21.738s15.585,23.788,6.562,48.807a129.736,129.736,0,0,0-4.122,15.543c-3.148,14.592-6.283,34.358-9.5,52.521-4.512,25.513-9.178,47.863-14.251,48.269-10.253.82-30.192.683-30.192-3.418S844.379,478.76,844.379,478.76l2.871-4.922.543-21.438A12.931,12.931,0,0,1,860.784,439.8Z" transform="translate(-434.921 -220.893)" fill="#2f2e41"/>
    <path id="Path_637" data-name="Path 637" d="M809.772,761.613s4.717,8,3.486,13.74-3.281,4.922-12.3,5.742-39.784.82-39.784-4.922,24-13.2,24.1-10.906.922,6.8-1.539,7.625-.205.205-.205.205Z" transform="translate(-405.441 -356.71)" fill="#2f2e41"/>
    <path id="Path_638" data-name="Path 638" d="M873.643,525.537S871.859,554.672,859.96,546s4.637-24.341,4.637-24.341Z" transform="translate(-445.316 -255.441)" fill="#fff"/>
    <path id="Path_639" data-name="Path 639" d="M896.9,394.334a3.454,3.454,0,0,0,3.536-.419,3.623,3.623,0,0,0,1.342-2.285c1.72-9.918,3.815-37.414,5.021-51.318a58.608,58.608,0,0,0-6.112-31.042l-4.456-6.128a3.5,3.5,0,0,0-4.189-1.176s-13.912,14.435-13.964,14.992c-.218,2.393-1.874,7.7-10.5,16.327-9.443,9.443-9.5,17.685-9.287,19.986q.021.227.021.453a10.121,10.121,0,0,0,.416,3.052c3.955,12.47.858,27.4-4.116,42.983a3.515,3.515,0,0,0,1.417,3.814c1.453.988-.289-.478.229.157,3.428,4.2,8.361-1.654,14-8.042,1.966-2.225,4.194-4.748,6.82-7.374,3.61-3.611,10.509,4.628,13.716,4.628A14.894,14.894,0,0,1,896.9,394.334Z" transform="translate(-444.826 -162.61)" fill="#575a89"/>
    <path id="Path_640" data-name="Path 640" d="M903.2,325.732s9.01,7.6,3.891,17.452-4.438,17.122-4.438,17.122S901.293,428,885.3,424.711L878.023,444.8l-13.139-4.742,7.6-17.716s-6.085-.378-4.307-4.525c1.249-2.912,7.978-34.516,11.872-53.07,1.651-7.863,2.792-13.382,2.792-13.382S888.016,323.682,903.2,325.732Z" transform="translate(-449.212 -172.708)" fill="#575a89"/>
    <path id="Path_641" data-name="Path 641" d="M785.064,322.6,780,355.838l2.733-35.541Z" transform="translate(-329.184 -135.175)" opacity="0.2"/>
    <path id="Path_642" data-name="Path 642" d="M861.98,243.425s-2.9-22.538,20.734-15.147c0,0,16.876-3.1,22.411,18.013l5.6,22.128L908,266.932l-1.273,2.783-4.426,1.121-1.894-3.759-.916,4.565-36.248,3.614s16.235-9.6,16.492-26.809l-3.092,3.268Z" transform="translate(-447.939 -130.997)" fill="#2f2e41"/>
    <path id="Path_643" data-name="Path 643" d="M763.014,543.872l8.083-53.859-6.574,58.143Z" transform="translate(-322.016 -206.801)" opacity="0.2"/>
    <circle id="Ellipse_110" data-name="Ellipse 110" cx="9.115" cy="9.115" r="9.115" transform="translate(445.093 88.386)" fill="#2f2e41"/>
    <path id="Path_644" data-name="Path 644" d="M914.464,219.6a9.108,9.108,0,0,1,9.11-8.519c-.188-.024-.375-.053-.567-.065a9.115,9.115,0,1,0-1.17,18.192c.192.012.381.007.57.008A9.108,9.108,0,0,1,914.464,219.6Z" transform="translate(-469.648 -124.334)" fill="#2f2e41"/>
    <path id="Path_645" data-name="Path 645" d="M735.009,338.922,726.99,381.9l10.394-47.473Z" transform="translate(-306.813 -141.14)" opacity="0.2"/>
    <path id="Path_646" data-name="Path 646" d="M876.9,281.185l-4.674,3.524c-4.814-2.422-8.424-8.027-9.736-13.376l5.093-2.57C867.98,274.219,871.853,277.846,876.9,281.185Z" transform="translate(-448.2 -148.712)" fill="#fff"/>
    <path id="Path_647" data-name="Path 647" d="M881.99,269.539H870.344a.388.388,0,1,1,0-.776h11.646a.388.388,0,1,1,0,.776Z" transform="translate(-451.352 -148.711)" fill="#fff"/>
    <path id="Path_648" data-name="Path 648" d="M886.464,284.02a.388.388,0,0,1-.36-.532l3.106-7.764a.388.388,0,1,1,.72.288l-3.105,7.764A.388.388,0,0,1,886.464,284.02Z" transform="translate(-458.155 -151.546)" fill="#fff"/>
    <ellipse id="Ellipse_111" data-name="Ellipse 111" cx="2.848" cy="3.988" rx="2.848" ry="3.988" transform="translate(428.573 117.439)" fill="#ffb8b8"/>
    <path id="Path_649" data-name="Path 649" d="M399.191,210.9l30.335,6.942,12.817-24.174L416.4,183.54Z" transform="translate(-168.471 -77.46)" fill="#2f2e41"/>
    <path id="Path_650" data-name="Path 650" d="M556.152,512.33s-9.751,22.346-9.751,28.847c0,0,3.86,17.674,2.641,22.55l-4.266,9.142-8.939-3.657L533.4,544.834l.406-39Z" transform="translate(-309.314 -248.761)" fill="#ffb9b9"/>
    <path id="Path_651" data-name="Path 651" d="M581.5,283.126s.813,13.408-.813,17.471,6.095,11.783,6.095,11.783l12.189-15.845s-8.126-8.126-6.095-17.065Z" transform="translate(-329.176 -153.23)" fill="#ffb9b9"/>
    <path id="Path_652" data-name="Path 652" d="M534.406,445.982S522.623,467.922,534,466.3s7.517-20.924,7.517-20.924" transform="translate(-307.478 -223.247)" fill="#e6e6e6"/>
    <path id="Path_653" data-name="Path 653" d="M399.741,339.228l3.86-38.4-.2-23.362-8.939,1.625v21.534l-1.828,39.208" transform="translate(-165.703 -117.101)" fill="#ffb9b9"/>
    <path id="Path_654" data-name="Path 654" d="M526.62,605.53l17.471-6.907,2.031,34.536s3.657,10.564,2.438,14.627c0,0,.813,6.907-1.219,7.313s-7.72,1.219-8.126.813-.406-1.625-.406-1.625-4.063,2.844-4.469,6.094c0,0-17.065,5.282-17.471.406s8.532-8.939,8.532-8.939l6.907-10.564Z" transform="translate(-302.333 -287.923)" fill="#2f2e41"/>
    <path id="Path_655" data-name="Path 655" d="M619.068,512.33s-9.751,22.347-9.751,28.847c0,0,3.86,17.674,2.641,22.55l-4.266,9.142-8.939-3.657-2.438-24.378.406-39Z" transform="translate(-335.867 -248.761)" fill="#ffb9b9"/>
    <path id="Path_656" data-name="Path 656" d="M590.591,605.53l17.471-6.907,2.032,34.536s3.657,10.564,2.438,14.627c0,0,.813,6.907-1.219,7.314s-7.72,1.219-8.126.813-.406-1.625-.406-1.625-4.063,2.844-4.469,6.094c0,0-17.065,5.282-17.471.406s8.532-8.939,8.532-8.939l6.907-10.564Z" transform="translate(-329.331 -287.923)" fill="#2f2e41"/>
    <path id="Path_657" data-name="Path 657" d="M592.8,260.136a13,13,0,0,1-25.688,2.845,12.592,12.592,0,0,1-.318-2.845,13,13,0,1,1,26.007,0Z" transform="translate(-323.406 -139.583)" fill="#ffb9b9"/>
    <path id="Path_658" data-name="Path 658" d="M569.549,310.792l10.089-5.239,4.537,3.614s10.97-.406,15.033,4.469,6.3,17.268,6.3,17.268-13.408-2.844-11.783,8.532l-2.438-6.5-2.235,5.485-27.222,9.345-12.189-20.721s-8.126-2.438-10.97,3.25c0,0,.609-20.518,8.532-21.128,5.328-.41,9.345-.406,9.345-.406l4.469-.813,2.862-1.016Z" transform="translate(-311.539 -164.238)" fill="#575a89"/>
    <path id="Path_659" data-name="Path 659" d="M583.257,388.615s21.331,63.993,15.236,72.931c0,0-22.753,11.376-68.259-4.063l18.487-71.712A62.843,62.843,0,0,1,583.257,388.615Z" transform="translate(-307.979 -197.571)" fill="#2f2e41"/>
    <path id="Path_660" data-name="Path 660" d="M594.828,356.438l6-20.63c-7.2-7.832-.986-25.2-.986-25.2l-8.689-1.862s-8.72,23.515-17.659,20.671-4.063-21.128-4.063-21.128l-8.126.813-3.657,14.221,2.641,30.269A113.554,113.554,0,0,1,594.828,356.438Z" transform="translate(-319.55 -165.394)" fill="#575a89"/>
    <path id="Path_661" data-name="Path 661" d="M489.371,339.228l2.844-38.6.813-23.159-8.938,1.625v21.534l-1.829,39.208" transform="translate(-203.529 -117.101)" fill="#ffb9b9"/>
    <path id="Path_662" data-name="Path 662" d="M624.037,445.982s-11.783,21.94-.406,20.315,7.517-20.924,7.517-20.924" transform="translate(-345.305 -223.247)" fill="#fff"/>
    <path id="Path_663" data-name="Path 663" d="M644.438,334.232s-1.444-20.866-13.521-20.794v24.13S639.969,332.2,644.438,334.232Z" transform="translate(-350.471 -167.566)" fill="#575a89"/>
    <path id="Path_664" data-name="Path 664" d="M596.239,271.078a.332.332,0,0,1-.207-.591l6.631-5.3a.332.332,0,1,1,.414.518l-6.631,5.3A.332.332,0,0,1,596.239,271.078Z" transform="translate(-335.695 -147.17)" fill="#fff"/>
    <path id="Path_665" data-name="Path 665" d="M583.84,282.177c-.146.179-.292.358-.444.524a13,13,0,0,1-18.056-8.992l6.283-1.156,12.217,1.156C581.042,277.117,581.38,278.3,583.84,282.177Z" transform="translate(-322.794 -150.311)" fill="#fff"/>
    <path id="Path_666" data-name="Path 666" d="M563.18,236.815s-6.72,1.264-8.274,9.645a15.387,15.387,0,0,0-.132,4.279c.155,1.613-.07,5.021-3.573,9.033a87.825,87.825,0,0,0-6.378,8.191h0l7.022,1.869,3.137-11.634a59.516,59.516,0,0,1,6.954-15.984l.064-.1s2.332,6.231,8.583,7.086l-1.927-2.538s7.307,4.224,11.447,5.515a2.72,2.72,0,0,1,.878,4.73l-.09.069c-3.045,2.313-9.257,7.831-6.8,13.17s-.408,6.312-.408,6.312l5.277-2.008,2.416-1.034-.244,1.786,11.792.247s3.186-.019-2.474-8.525c0,0-1.366-3.189-.244-5.626a12.941,12.941,0,0,0,1.307-5.93C591.155,246.791,587.542,229.345,563.18,236.815Z" transform="translate(-314.136 -134.462)" fill="#2f2e41"/>
    <path id="Path_667" data-name="Path 667" d="M257.361,594.057s0,55.174-12.663,69.646c0,0-2.713,7.236-3.618,9.949a38.035,38.035,0,0,1-1.809,4.522v3.618s-24.421-2.714-27.135-9.045l4.522-5.427s.9-.9,0-3.618a1.858,1.858,0,0,1,1.809-2.714l6.331-14.472-.9-59.7,4.523-82.309,38.893-1.809Z" transform="translate(-173.732 -247.442)" fill="#2f2e41"/>
    <path id="Path_668" data-name="Path 668" d="M211.7,800.532s6.331,18.994,0,19.9-61.506,1.809-60.6-5.427,18.994-6.332,18.994-6.332l18.994-11.758Z" transform="translate(-147.966 -371.608)" fill="#2f2e41"/>
    <path id="Path_669" data-name="Path 669" d="M305.429,505.833A41.042,41.042,0,0,1,300,530.254c-7.236,12.663-2.714,55.174-2.714,55.174l64.219,56.078s-12.663,21.708-17.185,20.8-75.977-58.792-75.977-58.792l-28.039-94.067Z" transform="translate(-185.62 -248.763)" fill="#2f2e41"/>
    <path id="Path_670" data-name="Path 670" d="M432.5,736.429s19.433,4.821,16.807,10.653-31.4,52.918-37.026,48.28,4.821-19.433,4.821-19.433l.237-22.338Z" transform="translate(-257.498 -346.081)" fill="#2f2e41"/>
    <path id="Path_671" data-name="Path 671" d="M297.561,199.564a20.811,20.811,0,0,1-24.828,20.407,20.184,20.184,0,0,1-5.346-1.839,20.79,20.79,0,0,1-10.829-13.593,20.488,20.488,0,0,1-.6-4.974,20.8,20.8,0,0,1,41.608,0Z" transform="translate(-192.224 -110.728)" fill="#a0616a"/>
    <path id="Path_672" data-name="Path 672" d="M303.673,227.453l-.92,26.77-17.5,6.916s-1.717-27.411-4.14-28.93S303.673,227.453,303.673,227.453Z" transform="translate(-202.77 -131.277)" fill="#a0616a"/>
    <path id="Path_673" data-name="Path 673" d="M258.939,274.245s24.421-24.421,30.753-23.517,6.331,3.618,6.331,5.427-1.809,2.714,0,3.618,3.618,0,3.618,2.714,16.281,29.848,10.854,59.7-11.758,44.32-9.045,60.6.9,19.9.9,19.9-67.837,5.427-68.742-.9,2.714-2.713-1.809-7.236-2.713-4.522-2.713-7.236S248.989,274.245,258.939,274.245Z" transform="translate(-180.736 -141.09)" fill="#575a89"/>
    <path id="Path_674" data-name="Path 674" d="M286.938,498.324s-10.854,26.23-18.994,19.9,3.618-28.039,3.618-28.039Z" transform="translate(-196.073 -242.158)" fill="#fff"/>
    <path id="Path_675" data-name="Path 675" d="M314.6,294.444s21.251,2.433,13.339,41.466-38.664,84.258-38.664,84.258l-20.8-9.949,27.135-53.365-6.331-33.466S285.66,291.731,314.6,294.444Z" transform="translate(-197.508 -159.48)" fill="#575a89"/>
    <path id="Path_676" data-name="Path 676" d="M148.723,342.279l-29.849,49.747,2.714,2.714Z" transform="translate(-50.169 -144.452)" opacity="0.2"/>
    <path id="Path_677" data-name="Path 677" d="M180.372,382.389l-23.939,39.227h8.141Z" transform="translate(-66.02 -161.38)" opacity="0.2"/>
    <rect id="Rectangle_129" data-name="Rectangle 129" width="1.287" height="66.791" transform="translate(59.074 292.755) rotate(-20.877)" opacity="0.2"/>
    <circle id="Ellipse_112" data-name="Ellipse 112" cx="1.287" cy="1.287" r="1.287" transform="translate(77.044 135.548)" fill="#d0cde1"/>
    <line id="Line_1" data-name="Line 1" x1="10.937" y2="35.384" transform="translate(67.394 136.835)" fill="none"/>
    <path id="Path_678" data-name="Path 678" d="M261.824,333.359a.643.643,0,0,0,.614-.454l10.937-35.384a.643.643,0,0,0-1.229-.38l-10.937,35.385a.644.644,0,0,0,.614.833Z" transform="translate(-194.43 -160.497)" fill="#d0cde1"/>
    <path id="Path_679" data-name="Path 679" d="M272.183,232.234l-5.2,4.946c-5.354-2.694-10.526-9.955-11.985-15.9l6.821-2.859C262.266,224.485,266.573,228.52,272.183,232.234Z" transform="translate(-191.821 -127.464)" fill="#fff"/>
    <path id="Path_680" data-name="Path 680" d="M277.83,221.007a.428.428,0,0,1-.062,0l-12.09-1.727a.432.432,0,0,1,.121-.855l12.09,1.727a.432.432,0,0,1-.06.859Z" transform="translate(-196.171 -127.464)" fill="#fff"/>
    <path id="Path_681" data-name="Path 681" d="M283.669,236.485a.431.431,0,0,1-.376-.643l4.006-7.131a.432.432,0,0,1,.752.423l-4.006,7.131A.431.431,0,0,1,283.669,236.485Z" transform="translate(-203.738 -131.715)" fill="#fff"/>
    <path id="Path_682" data-name="Path 682" d="M286.372,204.99c-1.684-.89-3.641-1.074-5.463-1.628a14.293,14.293,0,0,1-9.5-16.024,8.177,8.177,0,0,0,.343-2.641c-.244-1.976-2.266-3.251-4.2-3.7s-4-.387-5.855-1.115a8.867,8.867,0,0,1-5.174-7.111,14.688,14.688,0,0,1,1.962-8.853l.7,2.015a7.475,7.475,0,0,0,2.288-3.422,4.714,4.714,0,0,1,3.592,2.888c1.124.663,1.286-2.059,2.528-2.461a2.23,2.23,0,0,1,1.55.382c2.5,1.167,5.409.169,8.093-.478a30.464,30.464,0,0,1,14.142-.017,16.928,16.928,0,0,1,8.358,4.3,20.054,20.054,0,0,1,3.91,6.718c2.371,5.967,3.937,12.424,3.155,18.8a26.606,26.606,0,0,1-6.27,14.1c-1.79,2.063-7.631,9.258-10.834,8.031C285.672,213.225,291.113,207.5,286.372,204.99Z" transform="translate(-192.422 -103.654)" fill="#2f2e41"/>
  </g>
</svg>
