<svg xmlns="http://www.w3.org/2000/svg" xmlns:xlink="http://www.w3.org/1999/xlink" width="461.565" height="321.837" viewBox="0 0 461.565 321.837">
  <defs>
    <linearGradient id="linear-gradient" x1="0.5" y1="1" x2="0.5" gradientUnits="objectBoundingBox">
      <stop offset="0" stop-color="gray" stop-opacity="0.251"/>
      <stop offset="0.54" stop-color="gray" stop-opacity="0.122"/>
      <stop offset="1" stop-color="gray" stop-opacity="0.102"/>
    </linearGradient>
  </defs>
  <g id="schedule" transform="translate(0 0.005)">
    <path id="Path_212" data-name="Path 212" d="M304.261,107.544c-29.58-1.027-57.752-10.579-84.657-21.026s-53.551-22.024-82.428-27.559c-18.568-3.563-39.807-4.066-54.77,5.891-14.4,9.58-19.05,26.119-21.554,41.467-1.882,11.548-2.986,23.7,2.168,34.509,3.579,7.5,9.936,13.81,14.317,21,15.3,25.015,4.5,55.854-12.092,80.28-7.772,11.454-16.8,22.384-22.793,34.579s-8.762,26.168-3.489,38.628C44.166,327.64,56.552,336.9,70,343.418c27.26,13.209,59.409,17,90.756,19.14,69.395,4.745,139.162,2.692,208.74.634,25.747-.765,51.612-1.534,76.942-5.518,14.068-2.209,28.59-5.727,38.8-14.191,12.963-10.754,16.179-28.966,7.49-42.453-14.571-22.622-54.86-28.226-65.042-52.516-5.608-13.36.151-28.246,8.3-40.637,17.475-26.59,46.769-49.907,48.311-80.3,1.064-20.863-13.021-41.774-34.8-51.649-22.826-10.349-54.472-9.049-71.313,8.087C360.851,101.661,330.38,108.448,304.261,107.544Z" transform="translate(-36.033 -56.63)" fill="#141414"/>
    <path id="Path_213" data-name="Path 213" d="M928.954,737.656a12.606,12.606,0,0,0-5.15-.548,1.657,1.657,0,0,0,.307,3.3,15.2,15.2,0,0,0,3.133-.577Z" transform="translate(-559.711 -458.71)" fill="#ffd522"/>
    <path id="Path_214" data-name="Path 214" d="M937.049,738.61a12.586,12.586,0,0,1,1.26,5.027,1.658,1.658,0,0,1-3.309.155,15.388,15.388,0,0,1,.139-3.183Z" transform="translate(-567.164 -459.635)" fill="#ffd522"/>
    <path id="Path_215" data-name="Path 215" d="M938.127,718.479s-1.035-3.248-7.363-1.988a2.593,2.593,0,0,0,.082,5.109h.123C935.145,722.181,936.6,720.524,938.127,718.479Z" transform="translate(-563.431 -446.393)" fill="#ffd522"/>
    <path id="Path_216" data-name="Path 216" d="M950.4,721.3s3.4.266,3.612,6.709a2.593,2.593,0,0,1-4.991,1.088.356.356,0,0,0-.045-.119C947.476,725.047,948.757,723.255,950.4,721.3Z" transform="translate(-575.047 -449.406)" fill="#ffd522"/>
    <path id="Path_217" data-name="Path 217" d="M951.306,693.369a6.762,6.762,0,0,0-4.565-5.1c-4.283-1.35-6.545,5.056-2.36,6.684a13.368,13.368,0,0,0,5.416.785Z" transform="translate(-571.411 -429.78)" fill="#ffd522"/>
    <path id="Path_218" data-name="Path 218" d="M961.981,667.653a8.889,8.889,0,0,0-6.218-4.909c-4.757-.871-6.2,6.275-1.5,7.416a15.687,15.687,0,0,0,6.406.053Z" transform="translate(-576.862 -414.761)" fill="#ffd522"/>
    <path id="Path_219" data-name="Path 219" d="M969.973,642.5a10.153,10.153,0,0,0-6.545-4.5c-4.091-.769-5.469,5.355-1.452,6.4a15.275,15.275,0,0,0,7.666-.106Z" transform="translate(-581.7 -400.145)" fill="#ffd522"/>
    <path id="Path_220" data-name="Path 220" d="M977.837,617.182a10.557,10.557,0,0,0-5.727-4.553c-4.091-1.256-6.112,4.946-2.045,6.3a11.646,11.646,0,0,0,7.421-.029Z" transform="translate(-586.59 -385.091)" fill="#ffd522"/>
    <path id="Path_221" data-name="Path 221" d="M980.69,591.888a14.2,14.2,0,0,0-4.97-5.866c-3.714-2.262-7.253,3.272-3.682,5.764a10.364,10.364,0,0,0,8.312,1.894Z" transform="translate(-588.192 -369.152)" fill="#ffd522"/>
    <path id="Path_222" data-name="Path 222" d="M981.788,565.095a13.915,13.915,0,0,0-5.265-5.727c-3.87-2.045-7.236,3.608-3.592,6.046,2.385,1.591,5.363,2.622,8.525,1.378Z" transform="translate(-588.672 -353.457)" fill="#ffd522"/>
    <path id="Path_223" data-name="Path 223" d="M982.343,540.259a25.091,25.091,0,0,0-4.909-5.584c-2.708-2.213-6.136,1.771-3.571,4.136,2.369,2.172,5.318,4,8.366,3.849Z" transform="translate(-589.611 -338.742)" fill="#ffd522"/>
    <path id="Path_224" data-name="Path 224" d="M979.74,514.2a36.781,36.781,0,0,0-5.547-7.167c-2.119-2.045-5.253,1.072-3.273,3.228A21.285,21.285,0,0,0,980,516.376Z" transform="translate(-588.035 -322.398)" fill="#ffd522"/>
    <path id="Path_225" data-name="Path 225" d="M976.418,488.683a32.787,32.787,0,0,0-4.43-5.486,2.311,2.311,0,0,0-3.305,3.228,16.909,16.909,0,0,0,8.292,5.212Z" transform="translate(-586.698 -308.299)" fill="#ffd522"/>
    <path id="Path_226" data-name="Path 226" d="M973.351,463.368a52.283,52.283,0,0,0-4.258-5.06,1.914,1.914,0,0,0-2.831,2.573c1.894,2.184,4.324,4.119,7.118,4.43Z" transform="translate(-585.364 -293.64)" fill="#ffd522"/>
    <path id="Path_227" data-name="Path 227" d="M969.59,436.659a53.31,53.31,0,0,0-4.091-6.729,1.675,1.675,0,0,0-2.741,1.923,14.91,14.91,0,0,0,6.651,5.821Z" transform="translate(-583.403 -276.814)" fill="#ffd522"/>
    <path id="Path_228" data-name="Path 228" d="M968.075,408.847s-1.01-1.714-2.454-3.706a1.757,1.757,0,0,0-2.913,1.964c1.391,2.131,3.134,3.948,5.162,4.307Z" transform="translate(-583.373 -262.138)" fill="#ffd522"/>
    <path id="Path_229" data-name="Path 229" d="M968.832,383.184l-1.28-6.4a1.346,1.346,0,0,0-2.659.409c.458,3.42,1.636,6.86,4.2,9.118Z" transform="translate(-584.838 -245.179)" fill="#ffd522"/>
    <path id="Path_230" data-name="Path 230" d="M972.914,348.41h0a1.256,1.256,0,0,0-2.4.687,32.414,32.414,0,0,0,1.293,5.236Z" transform="translate(-588.159 -228.601)" fill="#ffd522"/>
    <path id="Path_231" data-name="Path 231" d="M963.317,700.2a6.762,6.762,0,0,1,6.692,1.44c3.273,3.056-1.154,8.181-4.643,5.363A13.441,13.441,0,0,1,962,702.685Z" transform="translate(-583.136 -436.735)" fill="#ffd522"/>
    <path id="Path_232" data-name="Path 232" d="M976.133,673.66a8.882,8.882,0,0,1,7.633,2.078c3.53,3.305-1.35,8.717-5.068,5.621a15.664,15.664,0,0,1-3.858-5.117Z" transform="translate(-590.723 -421.156)" fill="#ffd522"/>
    <path id="Path_233" data-name="Path 233" d="M985.193,648.118a10.157,10.157,0,0,1,7.772-1.726c4.091.818,3.072,7.007-1.047,6.48a15.3,15.3,0,0,1-7.069-2.966Z" transform="translate(-596.638 -405.04)" fill="#ffd522"/>
    <path id="Path_234" data-name="Path 234" d="M992.291,621.089a10.547,10.547,0,0,1,7-2.09c4.279.372,3.821,6.872-.462,6.6a11.622,11.622,0,0,1-6.872-2.8Z" transform="translate(-600.84 -388.941)" fill="#ffd522"/>
    <path id="Path_235" data-name="Path 235" d="M995.2,594.271a14.246,14.246,0,0,1,5.895-4.933c4.021-1.591,6.6,4.434,2.7,6.287a10.369,10.369,0,0,1-8.554.47Z" transform="translate(-602.754 -371.27)" fill="#ffd522"/>
    <path id="Path_236" data-name="Path 236" d="M995.55,566.048a13.861,13.861,0,0,1,5.964-4.974c4.091-1.534,6.7,4.52,2.773,6.463-2.573,1.268-5.661,1.9-8.631.254Z" transform="translate(-602.961 -354.579)" fill="#ffd522"/>
    <path id="Path_237" data-name="Path 237" d="M993.67,538.08a25.083,25.083,0,0,1,3.6-6.5c2.168-2.745,6.385.409,4.373,3.273-1.849,2.63-4.32,5.04-7.363,5.551Z" transform="translate(-601.85 -336.669)" fill="#ffd522"/>
    <path id="Path_238" data-name="Path 238" d="M992.9,511.611a36.626,36.626,0,0,1,3.322-8.451,2.293,2.293,0,0,1,4.025,2.189,21.2,21.2,0,0,1-7.011,8.406Z" transform="translate(-601.395 -319.822)" fill="#ffd522"/>
    <path id="Path_239" data-name="Path 239" d="M987.1,485.5a32.811,32.811,0,0,1,3.379-6.451,2.3,2.3,0,0,1,3.878,2.487,16.988,16.988,0,0,1-7.212,6.954Z" transform="translate(-597.968 -305.648)" fill="#ffd522"/>
    <path id="Path_240" data-name="Path 240" d="M982.48,460.368A52.553,52.553,0,0,1,984.251,454a1.914,1.914,0,0,1,3.645,1.162c-.818,2.773-2.221,5.543-4.631,6.987Z" transform="translate(-595.238 -290.697)" fill="#ffd522"/>
    <path id="Path_241" data-name="Path 241" d="M979.27,434.628a53.118,53.118,0,0,1,2.454-7.49,1.676,1.676,0,0,1,3.109,1.248,14.906,14.906,0,0,1-5.146,7.183Z" transform="translate(-593.341 -274.975)" fill="#ffd522"/>
    <path id="Path_242" data-name="Path 242" d="M974.46,409.425s.385-1.951,1.084-4.312a1.757,1.757,0,0,1,3.4.884c-.6,2.454-1.636,4.766-3.436,5.78Z" transform="translate(-590.499 -261.815)" fill="#ffd522"/>
    <path id="Path_243" data-name="Path 243" d="M974.534,382.778l2.225-6.136a1.347,1.347,0,0,1,2.565.818c-.961,3.313-2.63,6.545-5.514,8.386Z" transform="translate(-590.115 -245.207)" fill="#ffd522"/>
    <path id="Path_244" data-name="Path 244" d="M977.024,349.668s.348-.278.879-.716a1.1,1.1,0,0,1,1.477,1.636,20.864,20.864,0,0,1-6.05,3.837Z" transform="translate(-589.831 -229.216)" fill="#ffd522"/>
    <path id="Path_245" data-name="Path 245" d="M981.344,329.247a80.543,80.543,0,0,1,4.438-7.9.818.818,0,0,0-1.325-.937,23.73,23.73,0,0,0-3.567,8.267Z" transform="translate(-594.298 -212.351)" fill="#ffd522"/>
    <path id="Path_246" data-name="Path 246" d="M974.223,373.32l.474-.049c-2.045-19.067-1.182-30.823,2.393-33.1l-.258-.409C973.045,342.186,972.145,353.787,974.223,373.32Z" transform="translate(-589.714 -223.943)" fill="#444053"/>
    <path id="Path_247" data-name="Path 247" d="M982.629,464.859l.708-.106c-.266-1.763-.573-3.555-.916-5.318-2.978-15.475-5.293-29.78-6.451-40.645l-.52-.409c1.162,10.885,3.273,25.685,6.271,41.181C982.056,461.312,982.363,463.1,982.629,464.859Z" transform="translate(-591.084 -270.402)" fill="#444053"/>
    <path id="Path_248" data-name="Path 248" d="M911.167,626.17c.106-.086,11-8.423,20.572-24.413a103.081,103.081,0,0,0,12.108-30.185c3.023-13.3,3.109-28.786.929-43.292l-.638.511c4.909,32.554-4.455,57.83-13.192,72.442-9.474,15.843-20.245,24.094-20.355,24.176Z" transform="translate(-552.756 -335.345)" fill="#444053"/>
    <ellipse id="Ellipse_56" data-name="Ellipse 56" cx="27.224" cy="5.236" rx="27.224" ry="5.236" transform="translate(52.144 280.279)" fill="#ffd522"/>
    <ellipse id="Ellipse_57" data-name="Ellipse 57" cx="3.17" cy="4.148" rx="3.17" ry="4.148" transform="translate(75.739 279.142)" fill="#3f3d56"/>
    <ellipse id="Ellipse_58" data-name="Ellipse 58" cx="3.17" cy="4.148" rx="3.17" ry="4.148" transform="translate(75.739 274.07)" fill="#3f3d56"/>
    <ellipse id="Ellipse_59" data-name="Ellipse 59" cx="3.17" cy="4.148" rx="3.17" ry="4.148" transform="translate(75.739 269.001)" fill="#3f3d56"/>
    <ellipse id="Ellipse_60" data-name="Ellipse 60" cx="3.17" cy="4.148" rx="3.17" ry="4.148" transform="translate(75.739 263.929)" fill="#3f3d56"/>
    <ellipse id="Ellipse_61" data-name="Ellipse 61" cx="3.17" cy="4.148" rx="3.17" ry="4.148" transform="translate(75.739 258.856)" fill="#3f3d56"/>
    <ellipse id="Ellipse_62" data-name="Ellipse 62" cx="3.17" cy="4.148" rx="3.17" ry="4.148" transform="translate(75.739 253.788)" fill="#3f3d56"/>
    <ellipse id="Ellipse_63" data-name="Ellipse 63" cx="3.17" cy="4.148" rx="3.17" ry="4.148" transform="translate(75.739 248.716)" fill="#3f3d56"/>
    <path id="Path_249" data-name="Path 249" d="M218.535,554.425a14.939,14.939,0,0,0,1.182-1.738l-8.329-1.366,9,.065a15.193,15.193,0,0,0,.29-12.027l-12.084,6.267,11.143-8.181a15.185,15.185,0,1,0-25.076,16.989,15.336,15.336,0,0,0-1.73,2.769l10.812,5.616-11.519-3.87a15.189,15.189,0,0,0,2.454,14.256,15.185,15.185,0,1,0,23.865,0,15.172,15.172,0,0,0,0-18.772Z" transform="translate(-127.763 -336.267)" fill="#ffd522"/>
    <path id="Path_250" data-name="Path 250" d="M191.454,612.566a15.136,15.136,0,0,0,3.248,9.384,15.185,15.185,0,1,0,23.865,0C220.6,619.369,191.454,610.86,191.454,612.566Z" transform="translate(-127.794 -385.02)" opacity="0.1"/>
    <path id="Path_251" data-name="Path 251" d="M267.81,317.87V498.56a6.308,6.308,0,0,0,6.308,6.308h259.3a6.308,6.308,0,0,0,6.308-6.308V317.87Z" transform="translate(-172.918 -211.008)" fill="#fff"/>
    <rect id="Rectangle_37" data-name="Rectangle 37" width="65.001" height="38.154" rx="8.65" transform="translate(116.409 123.037)" opacity="0.1"/>
    <rect id="Rectangle_38" data-name="Rectangle 38" width="65.001" height="38.154" rx="8.65" transform="translate(198.35 123.037)" opacity="0.1"/>
    <rect id="Rectangle_39" data-name="Rectangle 39" width="63.173" height="37.078" rx="8.65" transform="translate(117.321 123.573)" fill="#ffd522"/>
    <rect id="Rectangle_40" data-name="Rectangle 40" width="63.173" height="37.078" rx="8.65" transform="translate(344.376 160.651) rotate(180)" fill="#444053" opacity="0.1"/>
    <rect id="Rectangle_41" data-name="Rectangle 41" width="63.173" height="37.078" rx="8.65" transform="translate(262.435 160.651) rotate(180)" fill="#ffd522"/>
    <rect id="Rectangle_42" data-name="Rectangle 42" width="63.173" height="37.078" rx="8.65" transform="translate(117.321 177.132)" fill="#444053" opacity="0.1"/>
    <rect id="Rectangle_43" data-name="Rectangle 43" width="63.173" height="37.078" rx="8.65" transform="translate(344.376 214.211) rotate(180)" fill="#444053" opacity="0.1"/>
    <rect id="Rectangle_44" data-name="Rectangle 44" width="63.173" height="37.078" rx="8.65" transform="translate(262.435 214.211) rotate(180)" fill="#444053" opacity="0.1"/>
    <rect id="Rectangle_45" data-name="Rectangle 45" width="63.173" height="37.078" rx="8.65" transform="translate(117.321 230.692)" fill="#444053" opacity="0.1"/>
    <rect id="Rectangle_46" data-name="Rectangle 46" width="63.173" height="37.078" rx="8.65" transform="translate(344.376 267.774) rotate(180)" fill="#444053" opacity="0.1"/>
    <rect id="Rectangle_47" data-name="Rectangle 47" width="63.173" height="37.078" rx="8.65" transform="translate(262.435 267.774) rotate(180)" fill="#444053" opacity="0.1"/>
    <path id="Path_252" data-name="Path 252" d="M267.81,230.742V263.57H539.723V230.742a6.308,6.308,0,0,0-6.308-6.312h-259.3a6.308,6.308,0,0,0-6.308,6.312Zm67.292,9.711a5.036,5.036,0,1,1,5.036-5.036,5.036,5.036,0,0,1-5.036,5.036Zm137.329,0a5.046,5.046,0,1,0-.008,0Z" transform="translate(-172.918 -155.791)" fill="#ffd522"/>
    <path id="Path_253" data-name="Path 253" d="M423.706,236.74a5.952,5.952,0,1,0,5.948,5.951,5.952,5.952,0,0,0-5.948-5.951Zm0,10.988a5.036,5.036,0,1,1,5.036-5.036,5.036,5.036,0,0,1-5.036,5.036Z" transform="translate(-261.522 -163.066)" opacity="0.1"/>
    <path id="Path_254" data-name="Path 254" d="M759.4,236.74a5.952,5.952,0,1,0,5.952,5.952A5.952,5.952,0,0,0,759.4,236.74Zm0,10.988a5.036,5.036,0,1,1,5.036-5.036A5.036,5.036,0,0,1,759.4,247.728Z" transform="translate(-459.897 -163.065)" opacity="0.1"/>
    <circle id="Ellipse_64" data-name="Ellipse 64" cx="6.247" cy="6.247" r="6.247" transform="translate(416.364 165.535)" fill="#ffd522" opacity="0.1"/>
    <circle id="Ellipse_65" data-name="Ellipse 65" cx="10.472" cy="10.472" r="10.472" transform="translate(434.486 133.452)" fill="#ffd522" opacity="0.1"/>
    <circle id="Ellipse_66" data-name="Ellipse 66" cx="10.472" cy="10.472" r="10.472" transform="translate(420.622 184.267)" fill="#ffd522" opacity="0.1"/>
    <circle id="Ellipse_67" data-name="Ellipse 67" cx="14.829" cy="14.829" r="14.829" transform="translate(0 126.526)" fill="#ffd522" opacity="0.1"/>
    <path id="Path_255" data-name="Path 255" d="M855.658,561.751a13.085,13.085,0,0,0-3.035-1.706.625.625,0,0,0-.266-.07,46.7,46.7,0,0,1-6.259-5.391c.409-.327.785-.646,1.186-.961-2.454-1.17-3.817-3.849-5.142-6.267A61.825,61.825,0,0,0,828.5,530.363c-.135-.52-.924-.409-1.346-.745a1.08,1.08,0,0,1-.3-1.043c.065-.376.237-.724.331-1.092a7.377,7.377,0,0,0-.07-2.659,3.257,3.257,0,0,1,.532-2.54c.188-.217.43-.385.614-.605a2.307,2.307,0,0,0,.409-1.837,6.518,6.518,0,0,0-.409-1.861q3.007-8.181,6.009-16.391c1.4-3.821,2.818-7.723,2.962-11.8a14.1,14.1,0,0,0-2.708-9.171c.36-.086.72-.176,1.076-.278-2.34-3.1-2.593-7.208-2.655-11.114q-.049-2.921-.2-5.846c.679.3,1.366.565,2.07.794l.655.2a22.556,22.556,0,0,0,3.244.7c.483.07.974.123,1.46.155h0q-1.055-2.643-2.107-5.293a7.235,7.235,0,0,1-.654-2.483h0v-.164a1.424,1.424,0,0,1,.021-.295,3.235,3.235,0,0,1,.16-.687,3.112,3.112,0,0,1,.127-.323,5.739,5.739,0,0,1,.524-.92c.147-.225.311-.442.475-.663a9.046,9.046,0,0,0,1.469-2.377,4.5,4.5,0,0,0,.225-1.354,6.664,6.664,0,0,0-.123-1.391c-.057-.3-.131-.61-.213-.9h0c-.053-.184-.11-.368-.168-.548l-.049-.147c-.045-.139-.09-.274-.139-.409l-.049-.139c-.053-.147-.106-.29-.164-.438l-.033-.086c-.781-2.009-1.82-3.923-2.454-5.989a15.791,15.791,0,0,1-.409-1.673c-.029-.143-.049-.29-.074-.434s-.037-.245-.053-.368-.037-.286-.053-.43l-.037-.409c0-.131-.02-.262-.029-.409,0-.25-.025-.5-.029-.749v-1.137c0-.188.029-.376.045-.56a.832.832,0,0,1,.029-.266q.041-.409.11-.818h0c.041-.241.086-.487.135-.732a9.769,9.769,0,0,0,.229-2.045,2.036,2.036,0,0,0-.029-.409c-.029-.143-.033-.221-.053-.327a.8.8,0,0,1,0-.1,1.085,1.085,0,0,0-.053-.221.414.414,0,0,0-.033-.1c-.012-.033-.045-.143-.07-.213s-.02-.061-.033-.094-.057-.147-.09-.217l-.029-.074c-.041-.09-.086-.176-.131-.262h0a6.021,6.021,0,0,0-.548-.851h0c-1.346-1.767-3.583-3.113-4.815-5.06a11.265,11.265,0,0,1-1.379-4.091c-.061-.327-.115-.655-.172-.978s-.106-.642-.164-.961c-.037-.2-.074-.409-.115-.589l-.025-.127c-.033-.155-.065-.315-.1-.47l-.024-.11c-.037-.164-.074-.327-.115-.491l-.025-.086c-.041-.172-.086-.344-.131-.515a.337.337,0,0,1,0-.061c-.049-.18-.1-.36-.155-.54V413.6c-.057-.188-.115-.372-.176-.556h0c-.061-.188-.127-.38-.2-.569h0c-.074-.192-.143-.385-.221-.573h0a15.129,15.129,0,0,0-2.07-3.682,9.77,9.77,0,0,0-7.772-4.017,15.4,15.4,0,0,0-4.676,1.186l-3.939,1.452,1.1-.507a9.413,9.413,0,0,0-3.35.716,3.254,3.254,0,0,0-1.943,2.663c-.02.675.245,1.346.16,2.017-.143,1.109-1.162,1.861-1.69,2.843a3.657,3.657,0,0,0-.409,1.923v.262a.345.345,0,0,0,0,.065v.131c-1.636-.712-3.273-1.452-4.909-2.246-2.7-1.33-5.441-2.892-7.126-5.412-.54-.818-.957-1.7-1.493-2.512a19.887,19.887,0,0,0-2.045-2.454l-5.019-5.432c-.385.724.11,1.579.5,2.3a9.867,9.867,0,0,1,.929,2.4,1.138,1.138,0,0,1-.025.839,1.636,1.636,0,0,1-.687.487,2.454,2.454,0,0,0-1.035,2.81,3.109,3.109,0,0,0,2.319,2.021,4.212,4.212,0,0,1,1.035.254c.605.3.892.994,1.325,1.514a5.949,5.949,0,0,0,3.244,1.616c1.857,2.143,3.788,4.2,5.645,6.341,2.81,3.244,5.686,6.545,9.351,8.738.38.229.769.442,1.162.638a.641.641,0,0,1-.021.2,2.217,2.217,0,0,0,.176,1.432,2.249,2.249,0,0,0,1.6.781l2.773.495a9.444,9.444,0,0,1-.135,1.072c-.037.217-.082.43-.123.646h0l-.049.278v.041a.81.81,0,0,1-.029.225c-.029.078,0,.053,0,.078v.544a5.213,5.213,0,0,0,1.542,2.818l.389.47a6.545,6.545,0,0,0-1.264,2.651,9,9,0,0,0-.18,1.845,3.2,3.2,0,0,0-.818,1.276,5.832,5.832,0,0,0-.213,2.066v.818a6.871,6.871,0,0,0,.474,2.864c.037.074.078.139.115.209a39.76,39.76,0,0,1-2.369,3.273,7.1,7.1,0,0,0,.65,8.132c.56.646,1.28,1.268,1.346,2.127a7.967,7.967,0,0,1-.114,1.162,8.691,8.691,0,0,0,.589,2.7,2.785,2.785,0,0,1-.225,2.233,3.272,3.272,0,0,0-.56,2.144c.209,1.158-.27,2.315-.352,3.489-.037.5,0,1.014-.045,1.518a8.55,8.55,0,0,1-.3,1.424.581.581,0,0,1-.041.155c-1.01.446-2.013.908-2.978,1.444a2.614,2.614,0,0,0-1.227,1.129,2.9,2.9,0,0,0-.065,1.555l.871,6.062-.151-.065q.1,1.489.213,2.99a4.033,4.033,0,0,0,.573,2.164,5.635,5.635,0,0,1,.618.789c.344.7-.065,1.505-.368,2.217s-.409,1.722.258,2.107a5.435,5.435,0,0,0,1.117.6c-.818,3.412-.066,6.987.7,10.411q.871,3.927,1.747,7.846a19.039,19.039,0,0,1,.385,3.371v.491a18.884,18.884,0,0,0,.818,4.59c.908,3.06.037,6.733.323,10.067a29.86,29.86,0,0,0,.957,4.741,146.087,146.087,0,0,1,4.418,23.579,5.923,5.923,0,0,0,2.831,1.976c-.082.99.029,2.123,0,2.7a4.664,4.664,0,0,1-.221,1.407,3.381,3.381,0,0,1-2.139,1.82c-.286.1-.577.176-.871.245l.327-.278a7.306,7.306,0,0,0-5.445.957,2.156,2.156,0,0,0-1.076,1.268,2.045,2.045,0,0,0,.376,1.468,6.7,6.7,0,0,0,3.784,2.688,19.849,19.849,0,0,0,4.663.65l2.888.168a.794.794,0,0,0,.188,1.027,2.019,2.019,0,0,0,1.059.385,13.5,13.5,0,0,0,3.563.053,1.4,1.4,0,0,0,.818-.295.528.528,0,0,0,0-.781.863.863,0,0,0,.785-.573,2.325,2.325,0,0,0,.106-1.035,11.106,11.106,0,0,0-.9-4.5,1.141,1.141,0,0,0-1.264-.556,49.092,49.092,0,0,1-.818-7.257,17.738,17.738,0,0,0,2.1-.949c-2.009-3.244-2.045-7.363-1.432-11.135a33.706,33.706,0,0,0,.536-3.6,11.95,11.95,0,0,0-1.567-7.142,25.551,25.551,0,0,1,6.382,5.776c2.827,3.682,4.549,8.14,8.014,11.208q.683-.667,1.383-1.325,1.1,1.857,2.074,3.792a14.418,14.418,0,0,1,1.2,2.99,13.83,13.83,0,0,1,.11,4.823q-.143,1.276-.348,2.54a6.914,6.914,0,0,1-.25,1.064.736.736,0,0,0-.078-.319c-.217-.38-.818-.209-1.145.053a5.057,5.057,0,0,0-1.411,1.636,1.764,1.764,0,0,0-.254,1.043,1.542,1.542,0,0,0,.818,1.023c1.518.888,3.424.245,5.052-.409a5.925,5.925,0,0,0,1.276-.642c.818-.589,1.264-1.559,2.078-2.131a12.032,12.032,0,0,0,1.256-.794c.757-.691.818-1.857,1.37-2.733.916-1.509,2.966-1.9,3.768-3.5C858.141,565.134,857.057,562.9,855.658,561.751Z" transform="translate(-477.002 -258.891)" fill="url(#linear-gradient)"/>
    <path id="Path_256" data-name="Path 256" d="M865.652,808.041a4.558,4.558,0,0,1-.225,1.391,3.362,3.362,0,0,1-2.135,1.8c-.908.315-1.873.409-2.8.683a2.456,2.456,0,0,0-1.092.565c-.818.818-.327,2.291.63,2.9a5.434,5.434,0,0,0,3.313.511,43.643,43.643,0,0,0,7.167-1.019c.851-.2,1.845-.593,1.98-1.456a2.388,2.388,0,0,0-.065-.818,48.362,48.362,0,0,1-.92-8.889,18.483,18.483,0,0,0-5.187-.037C865.329,804.318,865.706,807.034,865.652,808.041Z" transform="translate(-522.263 -497.981)" fill="#a1616a"/>
    <path id="Path_257" data-name="Path 257" d="M925.688,783.1q1.178,1.951,2.213,3.98a14.084,14.084,0,0,1,1.2,2.949,13.556,13.556,0,0,1,.11,4.757q-.143,1.256-.352,2.508a3.167,3.167,0,0,1-1.051,2.217,2.421,2.421,0,0,0,2.086.184,6.008,6.008,0,0,0,1.837-1.125c3.506-2.892,6.136-7.093,6.267-11.638a1.846,1.846,0,0,0-.192-1.031,2.044,2.044,0,0,0-.614-.548,47.144,47.144,0,0,1-7.253-6.091.887.887,0,0,0-.532-.34.919.919,0,0,0-.474.135c-1.346.675-3.6,1.636-4.156,3.17a2.143,2.143,0,0,1,.908.871Z" transform="translate(-561.141 -483.456)" fill="#a1616a"/>
    <path id="Path_258" data-name="Path 258" d="M866.517,823.674a36.413,36.413,0,0,1-9.323,2.09,1.274,1.274,0,0,1-1.117-.2A.851.851,0,0,1,856,824.6a2.5,2.5,0,0,1,.683-.753l2.115-1.771a7.363,7.363,0,0,0-5.375.924,2.14,2.14,0,0,0-1.072,1.227,2,2,0,0,0,.376,1.452,6.685,6.685,0,0,0,3.78,2.651,20.211,20.211,0,0,0,4.659.642l2.864.164a.773.773,0,0,0,.192,1.015,2.045,2.045,0,0,0,1.064.389,13.639,13.639,0,0,0,3.559.049,1.362,1.362,0,0,0,.818-.291.515.515,0,0,0,0-.769.863.863,0,0,0,.785-.569,2.369,2.369,0,0,0,.106-1.019,10.715,10.715,0,0,0-.9-4.43C868.963,822.356,867.507,823.265,866.517,823.674Z" transform="translate(-518.333 -508.865)" fill="#3f3d56"/>
    <path id="Path_259" data-name="Path 259" d="M941.074,795.084a13.157,13.157,0,0,0-3.035-1.681.36.36,0,0,0-.548.139,31.146,31.146,0,0,0-4.471,8.619,14.98,14.98,0,0,1-2.234,5.056c-.155.188-.409.38-.622.27-.307-.156-.119-.651-.29-.949-.213-.376-.794-.2-1.141.053a4.909,4.909,0,0,0-1.407,1.636,1.637,1.637,0,0,0-.254,1.027,1.513,1.513,0,0,0,.8,1.006c1.518.88,3.424.245,5.048-.409a5.775,5.775,0,0,0,1.272-.634c.818-.577,1.264-1.538,2.078-2.1a11.937,11.937,0,0,0,1.256-.785c.753-.683.818-1.833,1.366-2.7.916-1.485,2.966-1.869,3.768-3.448C943.552,798.422,942.473,796.221,941.074,795.084Z" transform="translate(-562.492 -491.97)" fill="#3f3d56"/>
    <path id="Path_260" data-name="Path 260" d="M866.593,594.849c3.215,2.414,4.565,6.7,4.422,10.722s-1.554,7.87-2.953,11.638q-3.007,8.087-6.005,16.171a6.668,6.668,0,0,1,.409,1.841,2.263,2.263,0,0,1-.409,1.808c-.188.217-.409.385-.614.6a3.2,3.2,0,0,0-.532,2.508,7.264,7.264,0,0,1,.07,2.622c-.094.364-.266.708-.331,1.076a1.068,1.068,0,0,0,.3,1.031c.409.327,1.227.221,1.346.736a61.142,61.142,0,0,1,13.622,16.772c1.325,2.385,2.663,5.028,5.138,6.181a89.69,89.69,0,0,0-6.925,6.091c-3.457-3.027-5.179-7.433-8-11.045a25.361,25.361,0,0,0-6.373-5.7,11.657,11.657,0,0,1,1.567,7.044,32.686,32.686,0,0,1-.536,3.555c-.634,3.722-.577,7.772,1.432,10.988a12.023,12.023,0,0,1-7,1.608,5.956,5.956,0,0,1-3.813-2.176,143.846,143.846,0,0,0-4.414-23.264,28.606,28.606,0,0,1-.953-4.708c-.286-3.273.585-6.913-.327-9.932a18.517,18.517,0,0,1-.818-4.524V636a18.549,18.549,0,0,0-.385-3.322l-1.743-7.74c-.761-3.383-1.522-6.909-.7-10.276a5.463,5.463,0,0,1-1.113-.585c-.667-.38-.56-1.375-.258-2.078s.708-1.5.368-2.189a5.355,5.355,0,0,0-.618-.781,3.93,3.93,0,0,1-.573-2.131l-.213-2.953a5.779,5.779,0,0,1,2.913,2.549c-1.612-2.5-.818-6.054.372-8.779a4,4,0,0,1,3.755-2.974C853.258,593.622,861.267,590.844,866.593,594.849Z" transform="translate(-510.841 -373.447)" fill="#3f3d56"/>
    <path id="Path_261" data-name="Path 261" d="M892.008,638.93s-3.223,2.152-3.223,3.763-.818,16.117-.818,16.117v10.227s.536,5.375,0,6.717,0,7.523,0,8.329.818-8.329.818-8.329v-9.687l.818-22.032Z" transform="translate(-539.246 -400.732)" opacity="0.1"/>
    <path id="Path_262" data-name="Path 262" d="M811.81,426.133l-1.878-.732c-3.837-1.538-7.678-3.08-11.393-4.884-2.7-1.313-5.437-2.863-7.118-5.338-.54-.818-.957-1.677-1.493-2.483a19.828,19.828,0,0,0-2.045-2.426l-5.015-5.359c-.385.716.106,1.559.5,2.266a9.82,9.82,0,0,1,.929,2.369,1.1,1.1,0,0,1-.029.818,1.591,1.591,0,0,1-.683.483,2.4,2.4,0,0,0-1.035,2.769,3.089,3.089,0,0,0,2.315,2,4.4,4.4,0,0,1,1.035.25c.605.3.892.982,1.325,1.493a5.952,5.952,0,0,0,3.24,1.6c1.857,2.115,3.784,4.14,5.641,6.255,2.806,3.2,5.678,6.455,9.343,8.623a13.682,13.682,0,0,0,4.218,1.694A68.347,68.347,0,0,1,811.81,426.133Z" transform="translate(-477.027 -262.442)" fill="#a1616a"/>
    <path id="Path_263" data-name="Path 263" d="M811.81,426.133l-1.878-.732c-3.837-1.538-7.678-3.08-11.393-4.884-2.7-1.313-5.437-2.863-7.118-5.338-.54-.818-.957-1.677-1.493-2.483a19.828,19.828,0,0,0-2.045-2.426l-5.015-5.359c-.385.716.106,1.559.5,2.266a9.82,9.82,0,0,1,.929,2.369,1.1,1.1,0,0,1-.029.818,1.591,1.591,0,0,1-.683.483,2.4,2.4,0,0,0-1.035,2.769,3.089,3.089,0,0,0,2.315,2,4.4,4.4,0,0,1,1.035.25c.605.3.892.982,1.325,1.493a5.952,5.952,0,0,0,3.24,1.6c1.857,2.115,3.784,4.14,5.641,6.255,2.806,3.2,5.678,6.455,9.343,8.623a13.682,13.682,0,0,0,4.218,1.694A68.347,68.347,0,0,1,811.81,426.133Z" transform="translate(-477.027 -262.442)" opacity="0.15"/>
    <path id="Path_264" data-name="Path 264" d="M843.2,466.691a2.253,2.253,0,0,1-1.6-.769,2.156,2.156,0,0,1-.176-1.411,39.578,39.578,0,0,1,2.045-9.04c.912,1.689,2.708,2.675,4.41,3.563a32.723,32.723,0,0,0,4.737,2.16c-.409-.131-1.411,6.161-1.976,6.545-.712.5-2.43-.176-3.219-.311Z" transform="translate(-511.853 -292.32)" fill="#ffd522"/>
    <circle id="Ellipse_68" data-name="Ellipse 68" cx="8.599" cy="8.599" r="8.599" transform="translate(327.105 155.317)" fill="#a1616a"/>
    <path id="Path_265" data-name="Path 265" d="M852.22,466.148s5.641,4.835,3.223,8.059-3.763,5.375-.54,5.645,13.97-5.375,13.97-5.375-9.94-8.059-8.329-12.894S852.22,466.148,852.22,466.148Z" transform="translate(-518.263 -295.115)" fill="#fbbebe"/>
    <path id="Path_266" data-name="Path 266" d="M852.556,484.5a6.672,6.672,0,0,0-4.937,4.966c-.634,2.9.712,6.136-.556,8.8a34.987,34.987,0,0,1-2.454,3.408,6.954,6.954,0,0,0,.646,8.022c.56.638,1.28,1.256,1.346,2.1a7.71,7.71,0,0,1-.115,1.145,8.5,8.5,0,0,0,.589,2.663,2.71,2.71,0,0,1-.225,2.2,3.186,3.186,0,0,0-.556,2.115c.2,1.145-.274,2.287-.356,3.444-.037.5,0,1-.045,1.5a8.736,8.736,0,0,1-.295,1.4l-.72,2.655a29.51,29.51,0,0,0,12.272,2.193,60.158,60.158,0,0,0,11.2-1.636c1.125-.237,2.25-.474,3.358-.781-2.34-3.06-2.589-7.114-2.655-10.963a163.633,163.633,0,0,0-1.436-19.185,24.674,24.674,0,0,0,2.1-6.9,11.671,11.671,0,0,0,.262-2.917,15.519,15.519,0,0,0-1.976-5.842c-.843-1.694-1.755-3.477-3.633-4.209a2.888,2.888,0,0,0-2.794.307c-1.42,1.072-1,2.921-1.362,4.5a6.04,6.04,0,0,1-4.373,4.091,14.218,14.218,0,0,1-4.6.43.818.818,0,0,1-.581-1.342C851.329,485.939,851.992,485.2,852.556,484.5Z" transform="translate(-513.187 -305.903)" fill="#ffd522"/>
    <path id="Path_267" data-name="Path 267" d="M855.739,574.49a55.98,55.98,0,0,1-10.075,7.069c-2.156,1.08-4.447,1.878-6.545,3.039a2.615,2.615,0,0,0-1.227,1.113,2.749,2.749,0,0,0-.065,1.534l.933,6.431c.258,1.743,1.931,2.864,3.273,3.976a2.354,2.354,0,0,1,.086-1.559,5.222,5.222,0,0,1,.315-.47,4.414,4.414,0,0,0,.454-3.023,16.78,16.78,0,0,1-.356-3.1,1.014,1.014,0,0,1,.434-.9c4.569-2.2,9.49-3.882,14.109-5.968a14.954,14.954,0,0,0,3.424-1.943,5.268,5.268,0,0,0,1.988-3.3.646.646,0,0,0-.082-.5.683.683,0,0,0-.348-.2C859.985,575.926,857.8,575.234,855.739,574.49Z" transform="translate(-509.711 -362.652)" fill="#a1616a"/>
    <path id="Path_268" data-name="Path 268" d="M854.335,508.5c-1.579.266-3.24,1.084-3.776,2.6a5.769,5.769,0,0,0-.213,2.045,6.651,6.651,0,0,0,.479,2.835,7.994,7.994,0,0,0,.957,1.391c3.78,4.843,5.678,10.926,9.36,15.847.327.434.924,1,.74,1.509a3.633,3.633,0,0,0-.176.409.818.818,0,0,0,.27.716,1.749,1.749,0,0,1,.446.65c.069.258-.1.593-.368.573.442,1.366,1.8,2.164,3.08,2.81a12.826,12.826,0,0,0,6.876,1.69c.446-1.788,1.068-3.808.818-5.629a14.609,14.609,0,0,0-1.37-3.992l-1.6-3.493a52.027,52.027,0,0,0-4.635-8.656,13.088,13.088,0,0,1-1.714-2.761c-.487-1.264-1.824-2.152-2.634-3.236a20.046,20.046,0,0,0-4.066-4.455A3.673,3.673,0,0,0,854.335,508.5Z" transform="translate(-517.146 -323.643)" opacity="0.1"/>
    <path id="Path_269" data-name="Path 269" d="M854.335,506.529c-1.579.266-3.24,1.084-3.776,2.594a5.8,5.8,0,0,0-.213,2.045,6.653,6.653,0,0,0,.479,2.835,8,8,0,0,0,.957,1.391c3.78,4.843,5.678,10.926,9.36,15.847.327.434.924,1,.74,1.509a3.661,3.661,0,0,0-.176.409.818.818,0,0,0,.27.716,1.748,1.748,0,0,1,.446.65c.07.258-.1.593-.368.573.442,1.366,1.8,2.164,3.08,2.81a12.825,12.825,0,0,0,6.876,1.689c.446-1.788,1.068-3.808.818-5.629a14.615,14.615,0,0,0-1.37-3.993l-1.6-3.493a52.009,52.009,0,0,0-4.635-8.656,13.026,13.026,0,0,1-1.714-2.765c-.487-1.26-1.824-2.148-2.634-3.232a20.051,20.051,0,0,0-4.066-4.455A3.691,3.691,0,0,0,854.335,506.529Z" transform="translate(-517.147 -322.479)" fill="#ffd522"/>
    <path id="Path_270" data-name="Path 270" d="M840.862,419.739a9.469,9.469,0,0,0-3.346.7,3.219,3.219,0,0,0-1.943,2.626,15.625,15.625,0,0,1,.16,1.988c-.143,1.1-1.162,1.837-1.685,2.806-.916,1.685-.2,3.829.982,5.318s2.794,2.634,4.013,4.115a10.636,10.636,0,0,1,2.217,8.558,6.789,6.789,0,0,0-.217,1.788,5.136,5.136,0,0,0,1.538,2.778,128.315,128.315,0,0,1,9.7,12.91,34.875,34.875,0,0,1,2.389,4.091,24.807,24.807,0,0,0,2.193,4.324,11.418,11.418,0,0,0,3.219,2.761,22.736,22.736,0,0,0,10.309,3.326l-2.107-5.224a6,6,0,0,1-.634-2.9c.233-1.882,2.131-3.117,2.749-4.909a5.953,5.953,0,0,0-.11-3.6c-.745-2.647-2.234-5.027-3.035-7.658a15.544,15.544,0,0,1-.458-7.122,11,11,0,0,0,.331-3.15c-.389-3.2-4.14-4.729-5.874-7.441-1.121-1.743-1.338-3.89-1.714-5.927a18.708,18.708,0,0,0-3.387-8.316,9.763,9.763,0,0,0-7.772-3.964,15.708,15.708,0,0,0-4.672,1.17l-3.943,1.436" transform="translate(-507.278 -269.949)" fill="#3f3d56"/>
    <g id="Group_9" data-name="Group 9" transform="translate(326.363 155.276)" opacity="0.1">
      <path id="Path_271" data-name="Path 271" d="M893.991,437.414a18.929,18.929,0,0,0,1.411,5.4c-.119-.638-.217-1.28-.335-1.91a23.826,23.826,0,0,0-1.317-4.688C893.852,436.617,893.922,437.014,893.991,437.414Z" transform="translate(-869.168 -436.22)"/>
      <path id="Path_272" data-name="Path 272" d="M911.768,476.471a15.621,15.621,0,0,0,.458,7.126,18.4,18.4,0,0,0,.671,1.841,15.571,15.571,0,0,1-.053-5.473,11,11,0,0,0,.331-3.15,4.91,4.91,0,0,0-1.064-2.454C912.051,475.072,911.887,475.771,911.768,476.471Z" transform="translate(-879.688 -458.758)"/>
      <path id="Path_273" data-name="Path 273" d="M917.839,520.928a19.734,19.734,0,0,0-.818-2.258,5.018,5.018,0,0,1-.155,2.364c-.618,1.788-2.52,3.027-2.749,4.909a5.951,5.951,0,0,0,.634,2.9c.139.348.278.7.409,1.047a3.376,3.376,0,0,1,0-.454c.233-1.882,2.131-3.117,2.749-4.909A5.708,5.708,0,0,0,917.839,520.928Z" transform="translate(-881.189 -484.942)"/>
      <path id="Path_274" data-name="Path 274" d="M869.711,512.742a11.454,11.454,0,0,1-3.219-2.765,24.681,24.681,0,0,1-2.2-4.324,34.5,34.5,0,0,0-2.389-4.091,128.491,128.491,0,0,0-9.7-12.914c-.127-.143-.25-.29-.372-.438a4.211,4.211,0,0,0-.094,1.154,5.137,5.137,0,0,0,1.538,2.778,128.317,128.317,0,0,1,9.7,12.91,34.882,34.882,0,0,1,2.389,4.091,24.8,24.8,0,0,0,2.193,4.324,11.418,11.418,0,0,0,3.219,2.761,22.736,22.736,0,0,0,10.309,3.326l-1.432-3.518A22.761,22.761,0,0,1,869.711,512.742Z" transform="translate(-844.339 -466.942)"/>
      <path id="Path_275" data-name="Path 275" d="M837.983,450.665c-1.227-1.481-2.827-2.606-4.013-4.111-.106-.139-.209-.282-.311-.434a5.956,5.956,0,0,0,1.387,3.923c1.186,1.509,2.794,2.634,4.013,4.115a10.223,10.223,0,0,1,1.227,1.865,10.636,10.636,0,0,0-2.3-5.359Z" transform="translate(-833.658 -442.07)"/>
    </g>
    <path id="Path_276" data-name="Path 276" d="M399.873,349.6l-2.966-2.982a1.575,1.575,0,0,0-2.238,0l-18.625,18.453-7.879-7.936a1.571,1.571,0,0,0-2.221,0l-3,2.966a1.591,1.591,0,0,0,0,2.238l11.965,12.055a1.587,1.587,0,0,0,2.234,0l22.728-22.556a1.575,1.575,0,0,0,0-2.238Z" transform="translate(-228.865 -227.719)" fill="#3acc6c"/>
    <path id="Path_277" data-name="Path 277" d="M600.873,349.6l-2.966-2.982a1.575,1.575,0,0,0-2.238,0l-18.625,18.453-7.879-7.936a1.571,1.571,0,0,0-2.221,0l-3,2.966a1.591,1.591,0,0,0,0,2.238l11.965,12.055a1.587,1.587,0,0,0,2.234,0l22.728-22.556a1.575,1.575,0,0,0,0-2.238Z" transform="translate(-347.642 -227.719)" fill="#3acc6c"/>
  </g>
</svg>
