<svg xmlns="http://www.w3.org/2000/svg" width="76.817" height="95.027" viewBox="0 0 76.817 95.027">
  <g id="noun_Family_3349350" transform="translate(-5.086 -1.998)">
    <path id="Path_324" data-name="Path 324" d="M60.646,6.417a15.11,15.11,0,0,0-21.339,0L36.47,9.255,33.633,6.417a15.089,15.089,0,1,0-21.339,21.34L35.352,50.812a1.581,1.581,0,0,0,2.236,0L60.646,27.757a15.109,15.109,0,0,0,0-21.34Z" transform="translate(7.024 0)" fill="#f22"/>
    <circle id="Ellipse_74" data-name="Ellipse 74" cx="8.295" cy="8.295" r="8.295" transform="translate(35.199 63.592)" fill="#ffc107"/>
    <path id="Path_325" data-name="Path 325" d="M26.958,24.857a15.632,15.632,0,0,0-15.273,12.47,1.761,1.761,0,0,0,1.725,2.11h27.1a1.763,1.763,0,0,0,1.725-2.11A15.629,15.629,0,0,0,26.958,24.857Z" transform="translate(16.536 57.588)" fill="#ffc107"/>
    <circle id="Ellipse_75" data-name="Ellipse 75" cx="10.139" cy="10.139" r="10.139" transform="translate(53.447 53.035)" fill="#ffc107"/>
    <path id="Path_326" data-name="Path 326" d="M30.261,23.159a18.622,18.622,0,0,0-11.947,4.366A19.069,19.069,0,0,1,28.683,40.2H46.819a1.762,1.762,0,0,0,1.725-2.108A18.708,18.708,0,0,0,30.261,23.159Z" transform="translate(33.324 53.309)" fill="#ffc107"/>
    <circle id="Ellipse_76" data-name="Ellipse 76" cx="10.139" cy="10.139" r="10.139" transform="translate(13.265 53.035)" fill="#ffc107"/>
    <path id="Path_327" data-name="Path 327" d="M23.4,23.159A18.622,18.622,0,0,1,35.35,27.525,19.069,19.069,0,0,0,24.982,40.2H6.846A1.762,1.762,0,0,1,5.12,38.088,18.708,18.708,0,0,1,23.4,23.159Z" transform="translate(0 53.309)" fill="#ffc107"/>
  </g>
</svg>
