<svg xmlns="http://www.w3.org/2000/svg" width="475.97" height="353.038" viewBox="0 0 475.97 353.038">
  <g id="Group_24" data-name="Group 24" transform="translate(-45.357 -118)">
    <path id="Path_492" data-name="Path 492" d="M304.261,107.544c-29.58-1.027-91.863,88.923-105.868,58.137s-30.7-85.191-87.884-52.623C96.109,122.638.291,123,25.981,165.681c15.3,25.015,55.856,52,39.264,76.423-7.772,11.454-16.8,22.384-22.793,34.579s-8.762,26.168-3.489,38.628C44.166,327.64,56.552,336.9,70,343.418c27.26,13.209,59.409,17,90.756,19.14,69.395,4.745,139.162,2.692,208.74.634,25.747-.765,51.612-1.534,76.942-5.518,14.068-2.209,28.59-5.727,38.8-14.191,12.963-10.754,16.179-28.966,7.49-42.453-14.571-22.622-114.59-96.865-77.477-118.572C554.606-26.919,330.38,108.448,304.261,107.544Z" transform="translate(23.729 83.875)" fill="#ffd522"/>
    <g id="Group_23" data-name="Group 23" transform="translate(60.39 118.329)">
      <path id="Path_457" data-name="Path 457" d="M972.9,450.536a10.725,10.725,0,1,1,8.416-18.822l-2.834,4.745,4.53-2.946a10.684,10.684,0,0,1,2.016,7.92,10.521,10.521,0,0,1-.82,2.85A10.723,10.723,0,0,1,972.9,450.536Z" transform="translate(-567.137 -263.31)" fill="#57b894"/>
      <path id="Path_458" data-name="Path 458" d="M896.284,486.1c3.022-3.709,1.455-9.261-.755-13.5s-5.028-8.758-4.056-13.442c1.4-6.732,9.325-9.353,15.735-11.841a64.569,64.569,0,0,0,13.467-7.161,17.423,17.423,0,0,0,4.5-4.12c1.688-2.414,2.228-5.424,2.7-8.332q2.383-14.526,4.079-29.154" transform="translate(-532.041 -248.455)" fill="none" stroke="#3f3d56" stroke-miterlimit="10" stroke-width="1"/>
      <path id="Path_459" data-name="Path 459" d="M973.441,447.7a10.725,10.725,0,1,1,8.415-18.822l-2.834,4.745,4.53-2.946a10.684,10.684,0,0,1,2.016,7.92,10.517,10.517,0,0,1-.82,2.85A10.723,10.723,0,0,1,973.441,447.7Z" transform="translate(-567.399 -261.935)" fill="none" stroke="#3f3d56" stroke-miterlimit="10" stroke-width="1"/>
      <path id="Path_460" data-name="Path 460" d="M970.761,393.823a10.712,10.712,0,0,0-3.613-9.633l-3.248,4.215,1.148-5.634a10.723,10.723,0,1,0,5.712,11.051Z" transform="translate(-560.224 -240.235)" fill="#57b894"/>
      <path id="Path_461" data-name="Path 461" d="M971.482,390.04a10.712,10.712,0,0,0-3.613-9.633l-3.248,4.215,1.148-5.634a10.723,10.723,0,1,0,5.712,11.051Z" transform="translate(-560.574 -238.401)" fill="none" stroke="#3f3d56" stroke-miterlimit="10" stroke-width="1"/>
      <path id="Path_462" data-name="Path 462" d="M916.658,475.047a10.723,10.723,0,0,1,.6-21.3l-.882,4.329,3.285-4.266.029,0a10.724,10.724,0,1,1-3.03,21.233Z" transform="translate(-539.881 -275.212)" fill="#57b894"/>
      <path id="Path_463" data-name="Path 463" d="M917.536,471.294a10.723,10.723,0,0,1,.6-21.3l-.882,4.329,3.285-4.266.029,0a10.724,10.724,0,1,1-3.03,21.233Z" transform="translate(-540.307 -273.393)" fill="none" stroke="#3f3d56" stroke-miterlimit="10" stroke-width="1"/>
      <path id="Path_464" data-name="Path 464" d="M910.155,519.48a10.719,10.719,0,1,1,2.127-8.383l-7.6,4.1,7.557-.3A10.624,10.624,0,0,1,910.155,519.48Z" transform="translate(-531.903 -298.676)" fill="#57b894"/>
      <path id="Path_465" data-name="Path 465" d="M910.7,516.643a10.719,10.719,0,1,1,2.127-8.383l-7.6,4.1,7.557-.3A10.624,10.624,0,0,1,910.7,516.643Z" transform="translate(-532.166 -297.301)" fill="none" stroke="#3f3d56" stroke-miterlimit="10" stroke-width="1"/>
      <rect id="Rectangle_86" data-name="Rectangle 86" width="35" height="38" transform="translate(82.61 5.171)" fill="#ffd522"/>
      <rect id="Rectangle_87" data-name="Rectangle 87" width="35" height="40" transform="translate(88.61 0.171)" fill="none" stroke="#3f3d56" stroke-miterlimit="10" stroke-width="1"/>
      <rect id="Rectangle_88" data-name="Rectangle 88" width="36" height="38" transform="translate(-0.39 50.171)" fill="#f2f2f2"/>
      <rect id="Rectangle_89" data-name="Rectangle 89" width="35" height="40" transform="translate(6.61 45.171)" fill="none" stroke="#3f3d56" stroke-miterlimit="10" stroke-width="1"/>
      <rect id="Rectangle_90" data-name="Rectangle 90" width="35" height="39" transform="translate(160.61 67.171)" fill="#ffd522"/>
      <rect id="Rectangle_91" data-name="Rectangle 91" width="35" height="40" transform="translate(166.61 63.171)" fill="none" stroke="#3f3d56" stroke-miterlimit="10" stroke-width="1"/>
      <ellipse id="Ellipse_86" data-name="Ellipse 86" cx="44.574" cy="50.551" rx="44.574" ry="50.551" transform="translate(207.666 193.171)" fill="#36334a"/>
      <path id="Path_466" data-name="Path 466" d="M762.647,237.228a72.727,72.727,0,0,1-34.05,5.9,15.1,15.1,0,0,0,5.692-9.163,25.683,25.683,0,0,0-.321-10.946,1.787,1.787,0,0,1,.024-1.263,1.743,1.743,0,0,1,1.361-.648c4.515-.629,17.448-3.358,20.886.508,1.629,1.832,1.005,5.389,1.6,7.627C758.084,230.164,761.227,237.849,762.647,237.228Z" transform="translate(-453.191 -161.714)" fill="#89525a"/>
      <path id="Path_467" data-name="Path 467" d="M762.647,237.228a72.727,72.727,0,0,1-34.05,5.9,15.1,15.1,0,0,0,5.692-9.163,25.683,25.683,0,0,0-.321-10.946,1.787,1.787,0,0,1,.024-1.263,1.743,1.743,0,0,1,1.361-.648c4.515-.629,17.448-3.358,20.886.508,1.629,1.832,1.005,5.389,1.6,7.627C758.084,230.164,761.227,237.849,762.647,237.228Z" transform="translate(-453.191 -161.714)" fill="#89525a" opacity="0.1"/>
      <path id="Path_468" data-name="Path 468" d="M630.715,402.75l-66.989,2.061s-59.26,57.714-10.306,75.234c0,0,60.29,9.791,74.719-1.546C628.138,478.5,646.174,407.388,630.715,402.75Zm-3.092,19.066L556,426.454s5.153-17.52,25.765-17.52,43.8-4.638,45.862,6.184S627.623,421.816,627.623,421.816Z" transform="translate(-358.893 -250.494)" fill="#3f3d56"/>
      <path id="Path_469" data-name="Path 469" d="M602.129,384.434c-3.342-.511-6.974-.807-9.9.885a15.765,15.765,0,0,0-2.7,2.129q-1.765,1.621-3.5,3.27a5.673,5.673,0,0,0-1.951,2.839c-.447,2.362,2.281,4.264,4.683,4.172s4.557-1.412,6.826-2.207c4.569-1.6,21.372,1.136,22.29-3.784C619.043,385.481,605.845,385.025,602.129,384.434Z" transform="translate(-383.118 -241.422)" fill="#89525a"/>
      <path id="Path_470" data-name="Path 470" d="M660.822,375.005a37.909,37.909,0,0,1-14.01,3.978,5.907,5.907,0,0,0-2.216.472,2.24,2.24,0,0,0-.924,1.124,33.442,33.442,0,0,0-3.132,11.433,1.02,1.02,0,0,0,.362,1.044,3.216,3.216,0,0,0,1.514.34q12.026.763,24.131.82a2.517,2.517,0,0,0,1.051-.143.984.984,0,0,0,.483-.6,36.563,36.563,0,0,0,2.621-14.83C670.49,372.672,668.741,370.8,660.822,375.005Z" transform="translate(-410.496 -235.945)" fill="#d7e5f2"/>
      <path id="Path_471" data-name="Path 471" d="M660.822,375.005a37.909,37.909,0,0,1-14.01,3.978,5.907,5.907,0,0,0-2.216.472,2.24,2.24,0,0,0-.924,1.124,33.442,33.442,0,0,0-3.132,11.433,1.02,1.02,0,0,0,.362,1.044,3.216,3.216,0,0,0,1.514.34q12.026.763,24.131.82a2.517,2.517,0,0,0,1.051-.143.984.984,0,0,0,.483-.6,36.563,36.563,0,0,0,2.621-14.83C670.49,372.672,668.741,370.8,660.822,375.005Z" transform="translate(-410.496 -235.945)" opacity="0.1"/>
      <path id="Path_472" data-name="Path 472" d="M771.759,396.135l-88.117-3.092,20.612-87.086s82.448-6.184,80.387,14.944S771.759,396.135,771.759,396.135Z" transform="translate(-431.402 -203.17)" fill="#36334a"/>
      <path id="Path_473" data-name="Path 473" d="M619.277,529.3s-53.034,9.386-72.1-18.441,72.142-12.883,72.142-12.883l7.73,21.127Z" transform="translate(-363.987 -294.709)" fill="#36334a"/>
      <circle id="Ellipse_87" data-name="Ellipse 87" cx="24.219" cy="24.219" r="24.219" transform="translate(215.138 304.27)" fill="#36334a"/>
      <ellipse id="Ellipse_88" data-name="Ellipse 88" cx="15.201" cy="17.52" rx="15.201" ry="17.52" transform="translate(226.475 310.969)" fill="#3f3d56"/>
      <path id="Path_474" data-name="Path 474" d="M879.774,299.51s-20.1-11.337-21.127,15.459l-17,124.7h7.214l19.581-133.463s9.791,1.546,11.337,1.546S879.774,299.51,879.774,299.51Z" transform="translate(-507.984 -199.299)" fill="#3f3d56"/>
      <path id="Path_475" data-name="Path 475" d="M926.424,313.27h0a4.82,4.82,0,0,1-6.538,3.142l-23.313-9.967,4.229-9.315,22.976,10.465A4.82,4.82,0,0,1,926.424,313.27Z" transform="translate(-534.609 -199.299)" fill="#36334a"/>
      <path id="Path_476" data-name="Path 476" d="M592.4,556.613s-37.1-4.122-47.408,31.433-9.275,62.867-18.036,60.806-27.311-9.275-27.311-9.275l1.546,10.821s32.464,16.49,37.617-1.031,8.245-81.933,37.617-80.387,34.525-1.546,34.525-1.546Z" transform="translate(-342.217 -325)" fill="#3f3d56"/>
      <path id="Path_477" data-name="Path 477" d="M488.84,523.75s-28.857,3.607-40.194,24.735-17,59.26-17,59.26h10.821s6.184-75.749,38.648-71.627Z" transform="translate(-309.258 -309.142)" fill="#3f3d56"/>
      <path id="Path_478" data-name="Path 478" d="M461.45,712.52l-45.862-28.342s-2.576-10.306,26.8-14.428c0,0,55.532,19.422,50.182,26.716S469.179,715.1,461.45,712.52Z" transform="translate(-301.448 -379.908)" fill="#36334a"/>
      <path id="Path_479" data-name="Path 479" d="M448.5,465.031v60.29h6.7V464Z" transform="translate(-217.387 -224.658)" fill="#3f3d56"/>
      <path id="Path_480" data-name="Path 480" d="M648.07,645.75s12.883,50.5,4.638,57.714c0,0-10.821-31.949-19.066-27.826l2.576-29.888Z" transform="translate(-407.167 -368.275)" fill="#36334a"/>
      <circle id="Ellipse_89" data-name="Ellipse 89" cx="20.097" cy="20.097" r="20.097" transform="translate(270.791 27.038)" fill="#89525a"/>
      <path id="Path_481" data-name="Path 481" d="M712.1,251.346c8.2,1.393,15.279-8.136,23.483-6.8a15.758,15.758,0,0,1,5.047,1.986,50.064,50.064,0,0,1,24.13,32.319c.927,4.133,1.285,8.615-.46,12.475a23.715,23.715,0,0,1-3.864,5.511c-5.458,6.348-11.449,12.675-19.238,15.747-.761,2.635-.03,5.488.882,8.075,3.809,10.8-2.248,22.439-2.557,33.887-.053,1.958.006,4.1-1.218,5.633-1.359,1.7-3.786,2-5.957,2.121-19.9,1.121-39.77-1.932-59.466-4.975a2.989,2.989,0,0,1-1.445-.489,3.465,3.465,0,0,1-.884-2.259c-.73-4.326,3.11-7.833,1.289-11.824-3.131-6.861,3.7-14.363,5.668-21.643s2.746-8.56,4.122-15.974c.515-2.772-.968-11.13-.515-13.913,1.479-9.091.36-19.446,5.153-27.311,2.879-4.726,2.132-8.4,7.27-10.455C698.962,251.291,706.3,252.021,712.1,251.346Z" transform="translate(-425.012 -173.751)" fill="#d7e5f2"/>
      <path id="Path_482" data-name="Path 482" d="M518.93,474.828c-6,1.157-12.369,2.261-16.986,6.263-2.82,2.444-4.715,5.757-6.556,9L476.6,523.211c-5.728,10.1-11.46,20.205-16.654,30.59a5.516,5.516,0,0,0-.777,2.488,5.079,5.079,0,0,0,1.707,3.2,27.394,27.394,0,0,0,23.191,8.154c1.292-6.69,7.651-11.111,10.767-17.17,1.713-3.329,2.4-7.073,3.506-10.649,4.123-13.341,13.911-24.054,23.414-34.285,4.491-4.836,9.089-9.755,14.875-12.928,6.789-3.722,14.666-4.752,22.252-6.3s15.442-3.89,20.81-9.469a22.343,22.343,0,0,0,5.95-18.2c-4.86-.34-10.269-.972-14.957.591-5.445,1.815-10.711,4.3-16.164,6.151a268.553,268.553,0,0,1-35.6,9.439Z" transform="translate(-322.603 -277.384)" fill="#696880"/>
      <path id="Path_483" data-name="Path 483" d="M518.93,474.828c-6,1.157-12.369,2.261-16.986,6.263-2.82,2.444-4.715,5.757-6.556,9L476.6,523.211c-5.728,10.1-11.46,20.205-16.654,30.59a5.516,5.516,0,0,0-.777,2.488,5.079,5.079,0,0,0,1.707,3.2,27.394,27.394,0,0,0,23.191,8.154c1.292-6.69,7.651-11.111,10.767-17.17,1.713-3.329,2.4-7.073,3.506-10.649,4.123-13.341,13.911-24.054,23.414-34.285,4.491-4.836,9.089-9.755,14.875-12.928,6.789-3.722,14.666-4.752,22.252-6.3s15.442-3.89,20.81-9.469a22.343,22.343,0,0,0,5.95-18.2c-4.86-.34-10.269-.972-14.957.591-5.445,1.815-10.711,4.3-16.164,6.151a268.553,268.553,0,0,1-35.6,9.439Z" transform="translate(-322.603 -277.384)" opacity="0.1"/>
      <path id="Path_484" data-name="Path 484" d="M416.5,675.91a4.218,4.218,0,0,0-1.479,1.911c-.682,2.324,2.226,3.961,4.554,4.631,5.229,1.5,10.808,3.013,16.024,1.462,3.2-.951,5.982-2.989,9.16-4.007,4.716-1.511,9.824-.653,14.7.218a31.815,31.815,0,0,0-2.107-18.16c-1.564-3.608-7.825-5.364-11.553-5.522-4.075-.173-5.49,2.834-7.842,5.6C432.228,668.783,423.1,670.346,416.5,675.91Z" transform="translate(-301.153 -373.454)" fill="#3f3d56"/>
      <path id="Path_485" data-name="Path 485" d="M548.556,485.365c-2.883,1.147-5.839,2.34-8.1,4.465-2.388,2.242-3.785,5.319-5.06,8.337a232.847,232.847,0,0,0-9.6,27.385c-1.328,4.709-2.511,9.472-4.3,14.025-3.57,9.088-9.627,17.792-9.058,27.539a6.53,6.53,0,0,0,.922,3.364,7.73,7.73,0,0,0,3.491,2.364l6.852,2.975c3.677,1.6,8.164,3.132,11.449.834,2.2-1.537,3.076-4.325,3.74-6.925,2.395-9.387,3.875-19.138,8.166-27.823,4.85-9.817,13.05-17.75,17.39-27.8a9.639,9.639,0,0,1,2.4-3.92,8.516,8.516,0,0,1,3.539-1.4c25.735-5.86,52.05-9.065,77.579-15.766,3.629-.953,7.426-2.084,10.016-4.8,3.59-3.766,3.91-9.49,4.025-14.691.072-3.259.057-6.8-1.929-9.385-2.239-2.916-6.255-3.686-9.911-4.07-14.023-1.475-26.957.849-40.769,2.551-12.637,1.557-25.365,8.69-37.154,13.35Q560.4,480.656,548.556,485.365Z" transform="translate(-348.401 -278.05)" fill="#696880"/>
      <path id="Path_486" data-name="Path 486" d="M510,681.78c-1.928,4.576-4.007,9.356-7.916,12.418-1.633,1.279-3.745,2.56-3.81,4.633-.069,2.194,2.235,3.642,4.3,4.386,5.258,1.9,11.242,2.3,16.372.083,3.509-1.518,6.4-4.142,9.226-6.719a7.284,7.284,0,0,0,2.13-2.676,6.921,6.921,0,0,0,.239-2.81,72.017,72.017,0,0,0-3.041-16.871c-.13-.431-11.218-1.813-12.2-1.556C512.2,673.477,511.195,678.946,510,681.78Z" transform="translate(-341.554 -381.307)" fill="#3f3d56"/>
      <path id="Path_487" data-name="Path 487" d="M764.715,432.75l-66.989,2.061s-59.26,57.714-10.306,75.234c0,0,60.29,9.791,74.719-1.546C762.138,508.5,780.174,437.388,764.715,432.75Zm-3.092,19.066L690,456.454s5.153-17.52,25.765-17.52,43.8-4.638,45.862,6.184S761.623,451.816,761.623,451.816Z" transform="translate(-423.843 -265.035)" fill="#3f3d56"/>
      <ellipse id="Ellipse_90" data-name="Ellipse 90" cx="67.247" cy="76.265" rx="67.247" ry="76.265" transform="translate(258.424 200.179)" fill="#36334a"/>
      <ellipse id="Ellipse_91" data-name="Ellipse 91" cx="50.757" cy="56.683" rx="50.757" ry="56.683" transform="translate(278.005 219.761)" fill="#3f3d56"/>
      <path id="Path_488" data-name="Path 488" d="M796.57,580.239a15.1,15.1,0,0,0-.294-2.945l37.911-18.956-2.577-5.668-38.3,18.657a8,8,0,0,0-1.272-1.063l.029.006,11.2-55.732-9.905-.225-6.584,54.847.631.133a6.181,6.181,0,0,0-1.477.5l-33.121-34-4.681,6.565,34.029,31.307a13.688,13.688,0,0,0-1.507,5.276l-47.982,19.584-1.031,8.245,50.015-21.034a10.931,10.931,0,0,0,1.955,3.159l-15.384,52.4H773.9l12.913-50.268a5.882,5.882,0,0,0,1.773.284,6.142,6.142,0,0,0,3.275-.982l26.87,35.507,8.245-5.668-31.483-34.389A14.411,14.411,0,0,0,796.57,580.239Z" transform="translate(-454.667 -304.568)" fill="#36334a"/>
      <path id="Path_489" data-name="Path 489" d="M713.054,156.588c.908-2.28,3.836-3.223,4.794-5.481,1.031-2.429-.585-5.52.818-7.755,1.414-2.252,4.709-1.988,7.332-1.553,3.1.514,6.39.859,9.278-.37,1.285-.546,2.425-1.381,3.669-2.014a12.96,12.96,0,0,1,6.4-1.39,2.9,2.9,0,0,1,1.435.342,2.69,2.69,0,0,1,.931,1.2c.9,1.957,1.032,4.4,2.668,5.8a11.172,11.172,0,0,0,2.746,1.424,11.891,11.891,0,0,1,6.666,11.863,24.129,24.129,0,0,0-.406,3.4c.064,2.506,1.7,5.009.865,7.372-.622,1.756-2.441,2.8-4.224,3.337a2.424,2.424,0,0,1-1.594.081c-.914-.371-1.1-1.546-1.389-2.488a6.1,6.1,0,0,0-5.913-4.167c-2.079.088-4.182,1.256-6.143.561a8.176,8.176,0,0,1-2.488-1.758,12.32,12.32,0,0,0-6.2-3.163,6.628,6.628,0,0,0-6.282,2.368c-.554.772-.89,1.681-1.418,2.47C719.846,173.764,711.093,161.511,713.054,156.588Z" transform="translate(-445.521 -122.177)" fill="#36334a"/>
      <rect id="Rectangle_92" data-name="Rectangle 92" width="35" height="40" transform="translate(234.61 171.171)" fill="#ffd522"/>
      <path id="Path_490" data-name="Path 490" d="M720.036,411.33a5.468,5.468,0,0,0-4.783,1.781c-4.509,4.108-9.288,8.739-10.106,14.784a2.49,2.49,0,0,0,.187,1.637,2.543,2.543,0,0,0,2.221.882,14.785,14.785,0,0,0,11.176-4.936,8.577,8.577,0,0,1,2.543-2.376,6.632,6.632,0,0,1,3.037-.377c2.829.093,9.288,1.541,11.755.137,2.593-1.476,1.88-6.1.669-8.331C733.859,409.23,724.935,411.277,720.036,411.33Z" transform="translate(-441.796 -254.443)" fill="#89525a"/>
      <path id="Path_491" data-name="Path 491" d="M804.38,313.359c1.733,5.574.718,11.852,3.173,17.148,1.63,3.515,4.694,6.348,5.643,10.1.9,3.55-.3,7.375-2.412,10.369a34.4,34.4,0,0,1-7.983,7.472,38.919,38.919,0,0,1-10.363,6c-3.786,1.287-7.843,1.481-11.838,1.664l-26.478,1.214-4.876-14.62,17.252-6.758a18.625,18.625,0,0,1,5.335-1.5c3.193-.236,7.088.936,9.139-1.523a6.659,6.659,0,0,0,1.2-3.062c1.673-8.589.217-17.676,2.793-26.038,1.275-4.139,4.953-12.442,9.969-13.172C800.254,299.892,803.177,309.491,804.38,313.359Z" transform="translate(-463.199 -200.992)" fill="#d7e5f2"/>
    </g>
  </g>
</svg>
