<svg xmlns="http://www.w3.org/2000/svg" width="78.6" height="95.05" viewBox="0 0 78.6 95.05">
  <g id="noun_reliability_3201891" transform="translate(-10.7 -2.45)">
    <g id="Group_17" data-name="Group 17">
      <path id="Path_318" data-name="Path 318" d="M87.5,21.9C61.6,11.6,52,3.3,51.9,3.2a2.782,2.782,0,0,0-3.8,0c-.1.1-9.6,8.3-35.6,18.7a2.8,2.8,0,0,0-1.8,2.6c0,51.2,36.3,71.8,37.9,72.6a3.255,3.255,0,0,0,1.4.4,2.5,2.5,0,0,0,1.4-.4c1.5-.8,37.9-21.4,37.9-72.6A2.8,2.8,0,0,0,87.5,21.9ZM50,65.5A20.8,20.8,0,1,1,70.8,44.7,20.784,20.784,0,0,1,50,65.5Z" fill="#ffc107"/>
      <path id="Path_319" data-name="Path 319" d="M55.8,36.4l-9.1,9.1L43.2,42a3.818,3.818,0,1,0-5.4,5.4L44,53.6a3.864,3.864,0,0,0,2.7,1.1,4.049,4.049,0,0,0,2.7-1.1L61.2,41.8a3.818,3.818,0,1,0-5.4-5.4Z" fill="#3acc6c"/>
    </g>
  </g>
</svg>
