<svg xmlns="http://www.w3.org/2000/svg" width="40.997" height="32.854" viewBox="0 0 40.997 32.854">
  <g id="noun_Health_3607293" transform="translate(-3.493 -7.577)">
    <g id="Group_20" data-name="Group 20">
      <path id="Path_322" data-name="Path 322" d="M37.88,9.75A9.495,9.495,0,0,0,24.5,11.04l-2.09,2.54-2.08-2.54A9.506,9.506,0,0,0,6.95,9.76a9.506,9.506,0,0,0-1.27,13.4L22.05,40.28a.475.475,0,0,0,.36.15.515.515,0,0,0,.36-.15l2.62-2.74A11.483,11.483,0,0,0,40.71,20.43,9.518,9.518,0,0,0,37.88,9.75ZM17.1,20.43c-6.34,0-.743.041-.743,6.381C16.36,29.881,19.7,20.43,17.1,20.43Zm26.4,8.49A10.5,10.5,0,1,1,33,18.42,10.512,10.512,0,0,1,43.5,28.92Z" fill="#f22"/>
      <path id="Path_323" data-name="Path 323" d="M39,26.42H35.5v-3.5a.5.5,0,0,0-.5-.5H31a.5.5,0,0,0-.5.5v3.5H27a.5.5,0,0,0-.5.5v4a.5.5,0,0,0,.5.5h3.5v3.5a.5.5,0,0,0,.5.5h4a.5.5,0,0,0,.5-.5v-3.5H39a.5.5,0,0,0,.5-.5v-4A.508.508,0,0,0,39,26.42Z" fill="#ffd522"/>
    </g>
  </g>
</svg>
